{
.appVersion = "1143";
classes = (
{
automatic = 1;

glyphs = (
{
glyphname = A;
layers = (
{
anchors = (
{
name = bottom;
position = "{137, 0}";
},
{
name = ogonek;
position = "{246, 0}";
},
{
name = top;
position = "{150, 710}";
}
);
layerId = "DC66480E-7BB6-4652-B43C-57E9BA303B13";
paths = (
{
closed = 1;
nodes = (
"65 0 LINE",
"111 278 LINE",
"162 278 LINE",
"188 0 LINE",
"246 0 LINE",
"246 710 LINE",
"63 710 LINE",
"18 0 LINE"
);
},
{
closed = 1;
nodes = (
"130 325 OFFCURVE",
"128 327 OFFCURVE",
"128 330 CURVE SMOOTH",
"128 672 LINE SMOOTH",
"128 676 OFFCURVE",
"130 678 OFFCURVE",
"134 678 CURVE SMOOTH",
"177 678 LINE SMOOTH",
"181 678 OFFCURVE",
"183 676 OFFCURVE",
"183 672 CURVE",
"183 331 LINE SMOOTH",
"183 327 OFFCURVE",
"181 325 OFFCURVE",
"177 325 CURVE SMOOTH",
"134 325 LINE SMOOTH"
);
}
);
width = 286;
}
);
leftKerningGroup = A;
rightKerningGroup = A;
unicode = 0041;
},
{
glyphname = Aringacute;
layers = (
{
layerId = "DC66480E-7BB6-4652-B43C-57E9BA303B13";
paths = (
{
closed = 1;
nodes = (
"68 0 LINE",
"114 278 LINE",
"165 278 LINE",
"191 0 LINE",
"249 0 LINE",
"249 710 LINE",
"229 710 LINE",
"229 796 LINE",
"90 790 LINE",
"90 710 LINE",
"66 710 LINE",
"21 0 LINE"
);
},
{
closed = 1;
nodes = (
"133 325 OFFCURVE",
"131 327 OFFCURVE",
"131 330 CURVE SMOOTH",
"131 675 LINE",
"185 675 LINE",
"186 674 OFFCURVE",
"186 673 OFFCURVE",
"186 672 CURVE",
"186 331 LINE SMOOTH",
"186 327 OFFCURVE",
"184 325 OFFCURVE",
"180 325 CURVE SMOOTH",
"137 325 LINE SMOOTH"
);
},
{
closed = 1;
nodes = (
"134 710 OFFCURVE",
"133 711 OFFCURVE",
"133 714 CURVE SMOOTH",
"133 760 LINE SMOOTH",
"133 762 OFFCURVE",
"136 763 OFFCURVE",
"141 763 CURVE",
"181 758 LINE",
"185 756 OFFCURVE",
"187 754 OFFCURVE",
"187 752 CURVE SMOOTH",
"187 716 LINE SMOOTH",
"187 712 OFFCURVE",
"185 710 OFFCURVE",
"180 710 CURVE",
"136 710 LINE SMOOTH"
);
},
{
closed = 1;
nodes = (
"235 833 LINE",
"226 888 LINE",
"93 849 LINE",
"109 811 LINE"
);
}
);
width = 289;
}
);
leftKerningGroup = A;
rightKerningGroup = A;
unicode = 01FA;
},
{
glyphname = AE;
layers = (
{
anchors = (
{
name = bottom;
position = "{220, 0}";
},
{
name = top;
position = "{228, 710}";
}
);
layerId = "DC66480E-7BB6-4652-B43C-57E9BA303B13";
paths = (
{
closed = 1;
nodes = (
"68 0 LINE",
"114 278 LINE",
"185 278 LINE",
"211 0 LINE",
"427 0 LINE",
"415 101 LINE",
"280 83 LINE",
"280 393 LINE",
"384 411 LINE",
"384 461 LINE",
"275 461 LINE",
"275 632 LINE",
"418 632 LINE",
"418 710 LINE",
"66 710 LINE",
"21 0 LINE"
);
},
{
closed = 1;
nodes = (
"133 325 OFFCURVE",
"131 327 OFFCURVE",
"131 330 CURVE SMOOTH",
"131 672 LINE SMOOTH",
"131 676 OFFCURVE",
"133 678 OFFCURVE",
"137 678 CURVE SMOOTH",
"180 678 LINE SMOOTH",
"184 678 OFFCURVE",
"186 676 OFFCURVE",
"186 672 CURVE",
"186 331 LINE SMOOTH",
"186 327 OFFCURVE",
"184 325 OFFCURVE",
"180 325 CURVE SMOOTH",
"137 325 LINE SMOOTH"
);
}
);
width = 455;
}
);
leftKerningGroup = A;
rightKerningGroup = E;
unicode = 00C6;
},
{
glyphname = B;
layers = (
{
layerId = "DC66480E-7BB6-4652-B43C-57E9BA303B13";
paths = (
{
closed = 1;
nodes = (
"176 20 LINE",
"188 20 OFFCURVE",
"251 21 OFFCURVE",
"251 50 CURVE",
"251 352 LINE",
"251 365 OFFCURVE",
"223 370 OFFCURVE",
"200 374 CURVE",
"208 379 OFFCURVE",
"209 382 OFFCURVE",
"211 397 CURVE",
"240 652 LINE",
"241 662 LINE",
"241 705 OFFCURVE",
"178 710 OFFCURVE",
"153 710 CURVE",
"40 710 LINE",
"40 20 LINE"
);
},
{
closed = 1;
nodes = (
"125 76 OFFCURVE",
"119 78 OFFCURVE",
"119 79 CURVE",
"119 331 LINE",
"119 332 OFFCURVE",
"125 337 OFFCURVE",
"130 337 CURVE",
"172 337 LINE",
"176 337 OFFCURVE",
"176 335 OFFCURVE",
"176 331 CURVE",
"176 106 LINE",
"176 85 OFFCURVE",
"166 76 OFFCURVE",
"145 76 CURVE",
"130 76 LINE"
);
},
{
closed = 1;
nodes = (
"101 407 OFFCURVE",
"97 410 OFFCURVE",
"97 415 CURVE",
"97 647 LINE",
"97 650 OFFCURVE",
"101 651 OFFCURVE",
"109 651 CURVE",
"152 651 LINE",
"161 651 OFFCURVE",
"166 650 OFFCURVE",
"166 647 CURVE",
"156 431 LINE",
"156 426 OFFCURVE",
"153 424 OFFCURVE",
"147 422 CURVE",
"109 407 LINE"
);
}
);
width = 287;
}
);
unicode = 0042;
},
{
glyphname = C;
layers = (
{
anchors = (
{
name = bottom;
position = "{175, 0}";
},
{
name = top;
position = "{175, 710}";
}
);
layerId = "DC66480E-7BB6-4652-B43C-57E9BA303B13";
paths = (
{
closed = 1;
nodes = (
"284 0 LINE",
"284 167 LINE",
"222 167 LINE",
"202 89 LINE",
"201 85 OFFCURVE",
"197 83 OFFCURVE",
"190 83 CURVE",
"131 83 LINE",
"127 83 OFFCURVE",
"125 85 OFFCURVE",
"125 89 CURVE",
"104 588 LINE SMOOTH",
"103 621 OFFCURVE",
"106 651 OFFCURVE",
"138 651 CURVE",
"180 651 LINE",
"188 651 OFFCURVE",
"191 648 OFFCURVE",
"192 642 CURVE",
"202 529 LINE",
"268 529 LINE",
"284 654 LINE",
"284 710 LINE",
"120 710 LINE",
"68 710 OFFCURVE",
"40 685 OFFCURVE",
"40 654 CURVE",
"40 62 LINE",
"40 29 OFFCURVE",
"68 0 OFFCURVE",
"141 0 CURVE"
);
}
);
width = 316;
}
);
leftKerningGroup = O;
unicode = 0043;
},
{
glyphname = D;
layers = (
{
anchors = (
{
name = bottom;
position = "{135, 0}";
},
{
name = top;
position = "{145, 710}";
}
);
layerId = "DC66480E-7BB6-4652-B43C-57E9BA303B13";
paths = (
{
closed = 1;
nodes = (
"173 0 LINE",
"234 57 LINE",
"264 600 LINE",
"264 664 OFFCURVE",
"219 710 OFFCURVE",
"155 710 CURVE",
"40 710 LINE",
"40 0 LINE"
);
},
{
closed = 1;
nodes = (
"112 72 LINE",
"112 638 LINE SMOOTH",
"112 641 OFFCURVE",
"118 644 OFFCURVE",
"121 644 CURVE SMOOTH",
"166 644 LINE SMOOTH",
"174 644 OFFCURVE",
"178 642 OFFCURVE",
"178 638 CURVE",
"167 84 LINE SMOOTH",
"167 79 OFFCURVE",
"164 75 OFFCURVE",
"158 71 CURVE",
"121 66 LINE"
);
}
);
width = 295;
}
);
rightKerningGroup = O;
unicode = 0044;
},
{
glyphname = Eth;
layers = (
{
components = (
{
name = D;
}
);
layerId = "DC66480E-7BB6-4652-B43C-57E9BA303B13";
paths = (
{
closed = 1;
nodes = (
"157 338 LINE",
"157 387 LINE",
"-5 396 LINE",
"-2 338 LINE"
);
}
);
width = 295;
}
);
rightKerningGroup = O;
unicode = 00D0;
},
{
glyphname = E;
layers = (
{
anchors = (
{
name = bottom;
position = "{150, 0}";
},
{
name = ogonek;
position = "{272, 20}";
},
{
name = top;
position = "{157, 710}";
},
{
name = topleft;
position = "{20, 710}";
}
);
layerId = "DC66480E-7BB6-4652-B43C-57E9BA303B13";
paths = (
{
closed = 1;
nodes = (
"272 20 LINE",
"269 121 LINE",
"125 103 LINE",
"125 358 LINE",
"229 376 LINE",
"229 426 LINE",
"120 426 LINE",
"120 632 LINE",
"263 632 LINE",
"263 710 LINE",
"60 710 LINE",
"37 20 LINE"
);
}
);
width = 296;
}
);
unicode = 0045;
},
{
glyphname = F;
layers = (
{
layerId = "DC66480E-7BB6-4652-B43C-57E9BA303B13";
paths = (
{
closed = 1;
nodes = (
"124 0 LINE",
"124 355 LINE",
"228 373 LINE",
"228 423 LINE",
"119 423 LINE",
"119 622 LINE",
"242 622 LINE",
"242 710 LINE",
"59 710 LINE",
"36 0 LINE"
);
}
);
width = 266;
}
);
rightKerningGroup = F;
unicode = 0046;
},
{
glyphname = G;
layers = (
{
anchors = (
{
name = bottom;
position = "{174, 0}";
},
{
name = top;
position = "{181, 710}";
}
);
layerId = "DC66480E-7BB6-4652-B43C-57E9BA303B13";
paths = (
{
closed = 1;
nodes = (
"302 20 LINE",
"302 369 LINE",
"189 356 LINE",
"189 300 LINE",
"249 298 LINE",
"239 104 LINE SMOOTH",
"239 96 OFFCURVE",
"227 92 OFFCURVE",
"219 92 CURVE SMOOTH",
"146 92 LINE SMOOTH",
"137 92 OFFCURVE",
"125 101 OFFCURVE",
"125 110 CURVE SMOOTH",
"107 606 LINE",
"108 634 OFFCURVE",
"120 651 OFFCURVE",
"149 651 CURVE SMOOTH",
"216 651 LINE",
"246 561 LINE",
"289 561 LINE",
"289 710 LINE",
"76 710 LINE",
"40 656 LINE",
"40 97 LINE SMOOTH",
"40 45 OFFCURVE",
"65 20 OFFCURVE",
"92 20 CURVE"
);
}
);
width = 346;
}
);
leftKerningGroup = O;
unicode = 0047;
},
{
glyphname = H;
layers = (
{
anchors = (
{
name = bottom;
position = "{162, 0}";
},
{
name = top;
position = "{154, 710}";
}
);
layerId = "DC66480E-7BB6-4652-B43C-57E9BA303B13";
paths = (
{
closed = 1;
nodes = (
"278 -20 LINE",
"257 624 LINE",
"272 648 LINE",
"272 690 LINE",
"185 690 LINE",
"185 400 LINE",
"111 385 LINE",
"111 710 LINE",
"30 710 LINE",
"53 0 LINE",
"123 0 LINE",
"112 317 LINE",
"192 326 LINE",
"213 -20 LINE"
);
}
);
width = 310;
}
);
unicode = 0048;
},
{
glyphname = Hbar;
layers = (
{
components = (
{
name = H;
}
);
layerId = "DC66480E-7BB6-4652-B43C-57E9BA303B13";
paths = (
{
closed = 1;
nodes = (
"324 512 LINE",
"324 561 LINE",
"-1 570 LINE",
"2 512 LINE"
);
}
);
width = 325;
}
);
unicode = 0126;
},
{
glyphname = I;
layers = (
{
anchors = (
{
name = bottom;
position = "{84, 0}";
},
{
name = ogonek;
position = "{108, 0}";
},
{
name = top;
position = "{79, 710}";
},
{
name = topleft;
position = "{20, 710}";
}
);
layerId = "DC66480E-7BB6-4652-B43C-57E9BA303B13";
paths = (
{
closed = 1;
nodes = (
"118 0 LINE",
"127 710 LINE",
"26 710 LINE",
"26 664 LINE",
"44 616 LINE",
"44 0 LINE"
);
}
);
width = 163;
}
);
unicode = 0049;
},
{
glyphname = J;
layers = (
{
anchors = (
{
name = bottom;
position = "{192, 0}";
},
{
name = top;
position = "{199, 710}";
}
);
layerId = "DC66480E-7BB6-4652-B43C-57E9BA303B13";
paths = (
{
closed = 1;
nodes = (
"237 0 LINE",
"246 710 LINE",
"150 710 LINE",
"150 664 LINE",
"168 616 LINE",
"168 49 LINE",
"104 54 LINE",
"99 192 LINE",
"20 172 LINE",
"56 0 LINE"
);
}
);
width = 286;
}
);
leftKerningGroup = J;
unicode = 004A;
},
{
glyphname = K;
layers = (
{
anchors = (
{
name = bottom;
position = "{165, 0}";
},
{
name = top;
position = "{157, 710}";
}
);
layerId = "DC66480E-7BB6-4652-B43C-57E9BA303B13";
paths = (
{
closed = 1;
nodes = (
"124 -20 LINE",
"124 306 LINE",
"135 314 LINE",
"189 264 LINE",
"189 -20 LINE",
"269 -20 LINE",
"258 314 LINE",
"189 354 LINE",
"237 386 LINE",
"279 710 LINE",
"193 710 LINE",
"183 411 LINE",
"138 375 LINE",
"112 390 LINE",
"112 690 LINE",
"34 690 LINE",
"57 -20 LINE"
);
}
);
width = 298;
}
);
unicode = 004B;
},
{
glyphname = L;
layers = (
{
anchors = (
{
name = bottom;
position = "{124, 0}";
},
{
name = center;
position = "{206, 375}";
},
{
name = top;
position = "{88, 710}";
},
{
name = topright;
position = "{165, 500}";
}
);
layerId = "DC66480E-7BB6-4652-B43C-57E9BA303B13";
paths = (
{
closed = 1;
nodes = (
"229 0 LINE",
"229 64 LINE",
"116 82 LINE",
"137 710 LINE",
"40 710 LINE",
"40 0 LINE"
);
}
);
width = 245;
}
);
rightKerningGroup = L;
unicode = 004C;
},
{
glyphname = Lcaron;
layers = (
{
background = {
paths = (
{
closed = 1;
nodes = (
"273 759 LINE",
"187 755 LINE",
"219 663 LINE",
"168 588 LINE",
"211 573 LINE",
"279 663 LINE"
);
}
);
};
components = (
{
name = L;
},
{
name = caroncomb.alt;
transform = "{1, 0, 0, 1, 165, -82}";
}
);
layerId = "DC66480E-7BB6-4652-B43C-57E9BA303B13";
width = 245;
}
);
unicode = 013D;
},
{
glyphname = Ldot;
layers = (
{
background = {
paths = (
{
closed = 1;
nodes = (
"264 420 LINE",
"168 416 LINE",
"168 324 LINE",
"260 324 LINE"
);
}
);
};
components = (
{
name = L;
},
{
name = periodcentered.loclCAT.case;
transform = "{1, 0, 0, 1, 98, 6}";
}
);
layerId = "DC66480E-7BB6-4652-B43C-57E9BA303B13";
width = 245;
}
);
unicode = 013F;
},
{
glyphname = Lslash;
layers = (
{
layerId = "DC66480E-7BB6-4652-B43C-57E9BA303B13";
paths = (
{
closed = 1;
nodes = (
"239 0 LINE",
"239 64 LINE",
"126 82 LINE",
"135 353 LINE",
"243 418 LINE",
"218 464 LINE",
"137 418 LINE",
"147 710 LINE",
"50 710 LINE",
"50 369 LINE",
"-23 328 LINE",
"3 274 LINE",
"50 302 LINE",
"50 0 LINE"
);
}
);
width = 264;
}
);
rightKerningGroup = L;
unicode = 0141;
},
{
glyphname = M;
layers = (
{
layerId = "DC66480E-7BB6-4652-B43C-57E9BA303B13";
paths = (
{
closed = 1;
nodes = (
"76 -20 LINE",
"76 610 LINE",
"80 610 LINE",
"151 181 LINE",
"181 181 LINE",
"268 661 LINE",
"272 661 LINE",
"250 0 LINE",
"316 0 LINE",
"316 730 LINE",
"219 730 LINE",
"172 332 LINE",
"166 332 LINE",
"114 710 LINE",
"24 710 LINE",
"24 -20 LINE"
);
}
);
width = 340;
}
);
unicode = 004D;
},
{
glyphname = N;
layers = (
{
anchors = (
{
name = bottom;
position = "{172, 0}";
},
{
name = top;
position = "{179, 710}";
}
);
layerId = "DC66480E-7BB6-4652-B43C-57E9BA303B13";
paths = (
{
closed = 1;
nodes = (
"83 0 LINE",
"83 651 LINE",
"87 651 LINE",
"189 0 LINE",
"304 0 LINE",
"314 710 LINE",
"256 710 LINE",
"234 58 LINE",
"230 58 LINE",
"140 710 LINE",
"24 710 LINE",
"24 0 LINE"
);
}
);
width = 333;
}
);
unicode = 004E;
},
{
glyphname = Eng;
layers = (
{
background = {
paths = (
{
closed = 1;
nodes = (
"185 -141 LINE",
"239 -178 LINE",
"299 -81 LINE",
"319 17 LINE",
"331 582 LINE",
"252 582 LINE",
"255 -17 LINE"
);
},
{
closed = 1;
nodes = (
"332 707 LINE",
"317 721 LINE",
"250 711 LINE",
"249 661 LINE",
"268 646 LINE",
"331 646 LINE"
);
}
);
};
layerId = "DC66480E-7BB6-4652-B43C-57E9BA303B13";
paths = (
{
closed = 1;
nodes = (
"290 -108 LINE",
"316 29 LINE",
"324 710 LINE",
"238 710 LINE",
"238 664 LINE",
"256 616 LINE",
"256 313 LINE",
"252 313 LINE",
"140 710 LINE",
"24 710 LINE",
"24 0 LINE",
"83 0 LINE",
"83 651 LINE",
"87 651 LINE",
"256 158 LINE",
"256 -47 LINE",
"159 -71 LINE",
"174 -149 LINE"
);
}
);
width = 343;
}
);
unicode = 014A;
},
{
glyphname = Nhookleft;
layers = (
{
layerId = "DC66480E-7BB6-4652-B43C-57E9BA303B13";
paths = (
{
closed = 1;
nodes = (
"59 -108 LINE",
"84 29 LINE",
"83 651 LINE",
"87 651 LINE",
"189 0 LINE",
"304 0 LINE",
"314 710 LINE",
"256 710 LINE",
"234 58 LINE",
"230 58 LINE",
"140 710 LINE",
"24 710 LINE",
"25 -47 LINE",
"-59 -71 LINE",
"-44 -149 LINE"
);
}
);
width = 333;
}
);
unicode = 019D;
},
{
glyphname = O;
layers = (
{
anchors = (
{
name = bottom;
position = "{148, 0}";
},
{
name = center;
position = "{149, 355}";
},
{
name = ogonek;
position = "{195, 0}";
},
{
name = top;
position = "{150, 710}";
},
{
name = topleft;
position = "{20, 710}";
},
{
name = topright;
position = "{218, 710}";
}
);
layerId = "DC66480E-7BB6-4652-B43C-57E9BA303B13";
paths = (
{
closed = 1;
nodes = (
"195 0 LINE",
"258 36 LINE",
"258 682 LINE",
"218 710 LINE",
"83 710 LINE",
"40 678 LINE",
"40 42 LINE",
"99 0 LINE"
);
},
{
closed = 1;
nodes = (
"124 70 OFFCURVE",
"121 72 OFFCURVE",
"121 76 CURVE SMOOTH",
"121 649 LINE SMOOTH",
"121 655 OFFCURVE",
"124 658 OFFCURVE",
"130 658 CURVE SMOOTH",
"182 658 LINE SMOOTH",
"188 658 OFFCURVE",
"191 655 OFFCURVE",
"191 649 CURVE",
"181 76 LINE SMOOTH",
"181 72 OFFCURVE",
"178 70 OFFCURVE",
"172 70 CURVE SMOOTH",
"130 70 LINE SMOOTH"
);
}
);
width = 298;
}
);
leftKerningGroup = O;
rightKerningGroup = O;
unicode = 004F;
},
{
glyphname = Oslash;
layers = (
{
layerId = "DC66480E-7BB6-4652-B43C-57E9BA303B13";
paths = (
{
closed = 1;
nodes = (
"85 0 LINE",
"264 0 LINE",
"264 673 LINE",
"291 775 LINE",
"254 788 LINE",
"231 706 LINE",
"221 709 OFFCURVE",
"204 710 OFFCURVE",
"180 710 CURVE",
"46 710 LINE",
"46 31 LINE",
"18 -71 LINE",
"62 -88 LINE"
);
},
{
closed = 1;
nodes = (
"110 71 OFFCURVE",
"107 73 OFFCURVE",
"107 77 CURVE SMOOTH",
"107 81 LINE",
"192 404 LINE",
"187 77 LINE SMOOTH",
"187 73 OFFCURVE",
"184 71 OFFCURVE",
"178 71 CURVE SMOOTH",
"116 71 LINE SMOOTH"
);
},
{
closed = 1;
nodes = (
"107 649 LINE SMOOTH",
"107 655 OFFCURVE",
"110 658 OFFCURVE",
"116 658 CURVE SMOOTH",
"188 658 LINE SMOOTH",
"194 658 OFFCURVE",
"197 655 OFFCURVE",
"197 649 CURVE SMOOTH",
"195 575 LINE",
"107 253 LINE"
);
}
);
width = 310;
}
);
leftKerningGroup = O;
rightKerningGroup = O;
unicode = 00D8;
},
{
glyphname = Oslashacute;
layers = (
{
components = (
{
name = acutecomb.case;
transform = "{1, 0, 0, 1, 79, 128}";
}
);
layerId = "DC66480E-7BB6-4652-B43C-57E9BA303B13";
paths = (
{
closed = 1;
nodes = (
"85 0 LINE",
"264 0 LINE",
"264 673 LINE",
"291 775 LINE",
"254 788 LINE",
"231 706 LINE",
"221 709 OFFCURVE",
"204 710 OFFCURVE",
"180 710 CURVE",
"46 710 LINE",
"46 31 LINE",
"18 -71 LINE",
"62 -88 LINE"
);
},
{
closed = 1;
nodes = (
"110 71 OFFCURVE",
"107 73 OFFCURVE",
"107 77 CURVE SMOOTH",
"107 81 LINE",
"192 404 LINE",
"187 77 LINE SMOOTH",
"187 73 OFFCURVE",
"184 71 OFFCURVE",
"178 71 CURVE SMOOTH",
"116 71 LINE SMOOTH"
);
},
{
closed = 1;
nodes = (
"107 649 LINE SMOOTH",
"107 655 OFFCURVE",
"110 658 OFFCURVE",
"116 658 CURVE SMOOTH",
"188 658 LINE SMOOTH",
"194 658 OFFCURVE",
"197 655 OFFCURVE",
"197 649 CURVE SMOOTH",
"195 575 LINE",
"107 253 LINE"
);
}
);
width = 310;
}
);
leftKerningGroup = O;
rightKerningGroup = O;
unicode = 01FE;
},
{
glyphname = OE;
layers = (
{
layerId = "DC66480E-7BB6-4652-B43C-57E9BA303B13";
paths = (
{
closed = 1;
nodes = (
"195 0 LINE",
"255 34 LINE",
"258 0 LINE",
"416 10 LINE",
"404 91 LINE",
"269 73 LINE",
"269 363 LINE",
"373 381 LINE",
"373 431 LINE",
"264 431 LINE",
"264 632 LINE",
"407 632 LINE",
"407 710 LINE",
"83 710 LINE",
"40 678 LINE",
"40 42 LINE",
"99 0 LINE"
);
},
{
closed = 1;
nodes = (
"124 70 OFFCURVE",
"121 72 OFFCURVE",
"121 76 CURVE SMOOTH",
"121 649 LINE SMOOTH",
"121 655 OFFCURVE",
"124 658 OFFCURVE",
"130 658 CURVE SMOOTH",
"182 658 LINE SMOOTH",
"188 658 OFFCURVE",
"191 655 OFFCURVE",
"191 649 CURVE",
"181 76 LINE SMOOTH",
"181 72 OFFCURVE",
"178 70 OFFCURVE",
"172 70 CURVE SMOOTH",
"130 70 LINE SMOOTH"
);
}
);
width = 444;
}
);
leftKerningGroup = O;
rightKerningGroup = E;
unicode = 0152;
},
{
glyphname = P;
layers = (
{
layerId = "DC66480E-7BB6-4652-B43C-57E9BA303B13";
paths = (
{
closed = 1;
nodes = (
"102 0 LINE",
"102 306 LINE",
"155 306 LINE",
"248 306 OFFCURVE",
"258 367 OFFCURVE",
"258 379 CURVE",
"258 661 LINE",
"258 688 OFFCURVE",
"219 710 OFFCURVE",
"168 710 CURVE",
"22 710 LINE",
"22 681 LINE",
"44 669 LINE",
"44 0 LINE"
);
},
{
closed = 1;
nodes = (
"121 365 OFFCURVE",
"116 370 OFFCURVE",
"116 373 CURVE",
"116 658 LINE",
"116 663 OFFCURVE",
"120 665 OFFCURVE",
"128 665 CURVE",
"145 665 LINE",
"176 665 OFFCURVE",
"186 648 OFFCURVE",
"187 633 CURVE",
"177 381 LINE",
"177 377 OFFCURVE",
"175 376 OFFCURVE",
"171 375 CURVE",
"128 365 LINE"
);
}
);
width = 290;
}
);
rightKerningGroup = P;
unicode = 0050;
},
{
glyphname = Thorn;
layers = (
{
layerId = "DC66480E-7BB6-4652-B43C-57E9BA303B13";
paths = (
{
closed = 1;
nodes = (
"98 0 LINE",
"98 186 LINE",
"161 186 LINE",
"254 186 OFFCURVE",
"264 247 OFFCURVE",
"264 259 CURVE",
"264 531 LINE",
"264 558 OFFCURVE",
"225 580 OFFCURVE",
"174 580 CURVE",
"101 580 LINE",
"91 710 LINE",
"40 710 LINE",
"40 0 LINE"
);
},
{
closed = 1;
nodes = (
"117 237 OFFCURVE",
"112 242 OFFCURVE",
"112 245 CURVE",
"112 520 LINE",
"112 525 OFFCURVE",
"116 527 OFFCURVE",
"124 527 CURVE",
"151 527 LINE",
"182 527 OFFCURVE",
"192 510 OFFCURVE",
"193 495 CURVE",
"183 253 LINE",
"183 249 OFFCURVE",
"181 248 OFFCURVE",
"177 247 CURVE",
"124 237 LINE"
);
}
);
width = 296;
}
);
unicode = 00DE;
},
{
glyphname = Q;
layers = (
{
layerId = "DC66480E-7BB6-4652-B43C-57E9BA303B13";
paths = (
{
closed = 1;
nodes = (
"267 -124 LINE",
"203 30 LINE",
"258 30 LINE",
"258 673 LINE",
"218 710 LINE",
"78 710 LINE",
"40 664 LINE",
"40 30 LINE",
"153 30 LINE",
"197 -114 LINE",
"217 -131 LINE"
);
},
{
closed = 1;
nodes = (
"104 100 OFFCURVE",
"101 102 OFFCURVE",
"101 106 CURVE SMOOTH",
"111 639 LINE SMOOTH",
"111 645 OFFCURVE",
"114 648 OFFCURVE",
"120 648 CURVE SMOOTH",
"182 648 LINE SMOOTH",
"188 648 OFFCURVE",
"191 645 OFFCURVE",
"191 639 CURVE",
"191 106 LINE SMOOTH",
"191 103 OFFCURVE",
"182 100 OFFCURVE",
"175 100 CURVE",
"158 141 LINE",
"122 132 LINE",
"132 100 LINE",
"110 100 LINE SMOOTH"
);
}
);
width = 300;
}
);
leftKerningGroup = O;
unicode = 0051;
},
{
glyphname = R;
layers = (
{
anchors = (
{
name = bottom;
position = "{151, 0}";
},
{
name = top;
position = "{155, 710}";
}
);
layerId = "DC66480E-7BB6-4652-B43C-57E9BA303B13";
paths = (
{
closed = 1;
nodes = (
"275 0 LINE",
"254 206 LINE",
"195 316 LINE",
"251 332 OFFCURVE",
"258 374 OFFCURVE",
"258 384 CURVE SMOOTH",
"268 661 LINE",
"267 688 OFFCURVE",
"229 710 OFFCURVE",
"178 710 CURVE SMOOTH",
"22 710 LINE",
"22 681 LINE",
"44 669 LINE",
"44 0 LINE",
"102 0 LINE",
"102 311 LINE",
"131 311 LINE",
"186 193 LINE",
"202 -3 LINE"
);
},
{
closed = 1;
nodes = (
"121 375 OFFCURVE",
"116 380 OFFCURVE",
"116 383 CURVE",
"116 655 LINE SMOOTH",
"116 660 OFFCURVE",
"120 664 OFFCURVE",
"128 667 CURVE",
"189 667 OFFCURVE",
"193 648 OFFCURVE",
"193 634 CURVE SMOOTH",
"187 381 LINE SMOOTH",
"187 377 OFFCURVE",
"185 375 OFFCURVE",
"181 375 CURVE SMOOTH",
"128 375 LINE SMOOTH"
);
}
);
width = 305;
}
);
unicode = 0052;
},
{
glyphname = S;
layers = (
{
anchors = (
{
name = bottom;
position = "{141, 0}";
},
{
name = top;
position = "{142, 710}";
}
);
layerId = "DC66480E-7BB6-4652-B43C-57E9BA303B13";
paths = (
{
closed = 1;
nodes = (
"175 0 LINE SMOOTH",
"204 0 OFFCURVE",
"239 32 OFFCURVE",
"239 60 CURVE SMOOTH",
"239 388 LINE",
"112 421 LINE",
"97 642 LINE",
"239 661 LINE",
"239 710 LINE",
"72 710 LINE SMOOTH",
"51 710 OFFCURVE",
"32 684 OFFCURVE",
"32 663 CURVE SMOOTH",
"32 366 LINE",
"147 336 LINE",
"171 68 LINE",
"32 68 LINE",
"32 0 LINE"
);
}
);
width = 271;
}
);
unicode = 0053;
},
{
glyphname = Germandbls;
layers = (
{
layerId = "DC66480E-7BB6-4652-B43C-57E9BA303B13";
paths = (
{
closed = 1;
nodes = (
"126 -1 LINE",
"105 616 LINE",
"191 650 LINE",
"223 628 LINE",
"150 459 LINE",
"176 396 LINE",
"285 276 LINE",
"275 78 LINE",
"172 64 LINE",
"176 0 LINE",
"279 0 LINE",
"353 80 LINE",
"353 345 LINE",
"218 449 LINE",
"217 454 LINE",
"320 710 LINE",
"135 710 LINE",
"44 640 LINE",
"44 -1 LINE"
);
}
);
width = 393;
}
);
unicode = 1E9E;
},
{
glyphname = Schwa;
layers = (
{
layerId = "DC66480E-7BB6-4652-B43C-57E9BA303B13";
paths = (
{
closed = 1;
nodes = (
"250 20 LINE SMOOTH",
"277 20 OFFCURVE",
"302 45 OFFCURVE",
"302 97 CURVE SMOOTH",
"302 656 LINE",
"266 710 LINE",
"53 710 LINE",
"59 651 LINE",
"193 651 LINE SMOOTH",
"222 651 OFFCURVE",
"234 634 OFFCURVE",
"235 606 CURVE",
"226 362 LINE",
"40 374 LINE",
"40 20 LINE"
);
},
{
closed = 1;
nodes = (
"115 92 OFFCURVE",
"103 96 OFFCURVE",
"103 104 CURVE SMOOTH",
"93 300 LINE",
"224 300 LINE",
"217 110 LINE SMOOTH",
"217 101 OFFCURVE",
"205 92 OFFCURVE",
"196 92 CURVE",
"123 92 LINE SMOOTH"
);
}
);
width = 338;
}
);
unicode = 018F;
},
{
glyphname = T;
layers = (
{
anchors = (
{
name = bottom;
position = "{130, 0}";
},
{
name = top;
position = "{130, 710}";
}
);
layerId = "DC66480E-7BB6-4652-B43C-57E9BA303B13";
paths = (
{
closed = 1;
nodes = (
"173 20 LINE",
"173 653 LINE",
"245 653 LINE",
"245 710 LINE",
"30 710 LINE",
"20 672 LINE",
"89 660 LINE",
"89 20 LINE"
);
}
);
width = 265;
}
);
leftKerningGroup = T;
rightKerningGroup = T;
unicode = 0054;
},
{
glyphname = Tbar;
layers = (
{
layerId = "DC66480E-7BB6-4652-B43C-57E9BA303B13";
paths = (
{
closed = 1;
nodes = (
"178 20 LINE",
"178 434 LINE",
"272 437 LINE",
"272 492 LINE",
"178 492 LINE",
"178 643 LINE",
"270 643 LINE",
"270 710 LINE",
"15 710 LINE",
"5 662 LINE",
"94 650 LINE",
"94 492 LINE",
"4 492 LINE",
"7 428 LINE",
"94 431 LINE",
"94 20 LINE"
);
}
);
width = 275;
}
);
leftKerningGroup = T;
rightKerningGroup = T;
unicode = 0166;
},
{
glyphname = U;
layers = (
{
anchors = (
{
name = bottom;
position = "{146, 0}";
},
{
name = ogonek;
position = "{183, 0}";
},
{
name = top;
position = "{143, 710}";
},
{
name = topright;
position = "{250, 710}";
}
);
layerId = "DC66480E-7BB6-4652-B43C-57E9BA303B13";
paths = (
{
closed = 1;
nodes = (
"207 0 LINE SMOOTH",
"226 0 OFFCURVE",
"250 21 OFFCURVE",
"250 40 CURVE",
"250 710 LINE",
"166 710 LINE",
"187 63 LINE",
"100 69 LINE",
"100 687 LINE",
"40 687 LINE",
"40 0 LINE"
);
}
);
width = 290;
}
);
unicode = 0055;
},
{
glyphname = V;
layers = (
{
layerId = "DC66480E-7BB6-4652-B43C-57E9BA303B13";
paths = (
{
closed = 1;
nodes = (
"187 0 LINE",
"272 710 LINE",
"207 710 LINE",
"159 78 LINE",
"155 78 LINE",
"84 710 LINE",
"5 710 LINE",
"121 -10 LINE"
);
}
);
width = 277;
}
);
leftKerningGroup = V;
rightKerningGroup = V;
unicode = 0056;
},
{
glyphname = W;
layers = (
{
anchors = (
{
name = bottom;
position = "{163, 0}";
},
{
name = top;
position = "{171, 710}";
}
);
layerId = "DC66480E-7BB6-4652-B43C-57E9BA303B13";
paths = (
{
closed = 1;
nodes = (
"100 0 LINE",
"161 417 LINE",
"165 417 LINE",
"226 0 LINE",
"289 0 LINE",
"325 710 LINE",
"255 710 LINE",
"255 86 LINE",
"250 86 LINE",
"183 598 LINE",
"140 598 LINE",
"83 86 LINE",
"79 86 LINE",
"79 710 LINE",
"6 710 LINE",
"45 0 LINE"
);
}
);
width = 330;
}
);
leftKerningGroup = W;
rightKerningGroup = W;
unicode = 0057;
},
{
glyphname = X;
layers = (
{
layerId = "DC66480E-7BB6-4652-B43C-57E9BA303B13";
paths = (
{
closed = 1;
nodes = (
"107 0 LINE",
"116 263 LINE",
"144 300 LINE",
"219 55 LINE",
"219 0 LINE",
"292 0 LINE",
"292 30 LINE",
"279 45 LINE",
"194 334 LINE",
"262 402 LINE",
"292 710 LINE",
"218 710 LINE",
"188 418 LINE",
"168 386 LINE",
"96 710 LINE",
"14 710 LINE",
"119 364 LINE",
"48 293 LINE",
"20 0 LINE"
);
}
);
width = 299;
}
);
unicode = 0058;
},
{
glyphname = Y;
layers = (
{
anchors = (
{
name = bottom;
position = "{127, 0}";
},
{
name = top;
position = "{121, 710}";
}
);
layerId = "DC66480E-7BB6-4652-B43C-57E9BA303B13";
paths = (
{
closed = 1;
nodes = (
"158 -20 LINE",
"158 389 LINE",
"211 451 LINE",
"211 710 LINE",
"155 710 LINE",
"137 428 LINE",
"101 431 LINE",
"88 710 LINE",
"24 710 LINE",
"24 472 LINE",
"91 353 LINE",
"91 -20 LINE"
);
}
);
width = 235;
}
);
leftKerningGroup = Y;
rightKerningGroup = Y;
unicode = 0059;
},
{
glyphname = Z;
layers = (
{
anchors = (
{
name = bottom;
position = "{149, 0}";
},
{
name = top;
position = "{154, 710}";
}
);
layerId = "DC66480E-7BB6-4652-B43C-57E9BA303B13";
paths = (
{
closed = 1;
nodes = (
"266 0 LINE",
"258 65 LINE",
"124 84 LINE",
"266 679 LINE",
"235 710 LINE",
"40 710 LINE",
"40 670 LINE",
"176 638 LINE",
"58 88 LINE",
"24 22 LINE",
"42 0 LINE"
);
}
);
width = 290;
}
);
leftKerningGroup = Z;
unicode = 005A;
},
{
glyphname = A.alt;
layers = (
{
anchors = (
{
name = bottom;
position = "{148, 0}";
},
{
name = ogonek;
position = "{267, 0}";
},
{
name = top;
position = "{146, 710}";
}
);
layerId = "DC66480E-7BB6-4652-B43C-57E9BA303B13";
paths = (
{
closed = 1;
nodes = (
"85 0 LINE",
"107 228 LINE",
"187 266 LINE",
"223 0 LINE",
"267 0 LINE",
"226 710 LINE",
"68 710 LINE",
"23 0 LINE"
);
},
{
closed = 1;
nodes = (
"121 291 OFFCURVE",
"119 293 OFFCURVE",
"119 296 CURVE",
"119 648 LINE",
"119 653 OFFCURVE",
"121 657 OFFCURVE",
"125 658 CURVE",
"168 668 LINE",
"172 668 OFFCURVE",
"174 666 OFFCURVE",
"174 662 CURVE",
"168 303 LINE",
"168 299 OFFCURVE",
"166 298 OFFCURVE",
"162 297 CURVE",
"125 291 LINE"
);
}
);
width = 294;
}
);
leftKerningGroup = A.alt;
rightKerningGroup = A.alt;
},
{
glyphname = Aringacute.alt;
layers = (
{
layerId = "DC66480E-7BB6-4652-B43C-57E9BA303B13";
paths = (
{
closed = 1;
nodes = (
"87 0 LINE",
"109 228 LINE",
"189 266 LINE",
"225 0 LINE",
"269 0 LINE",
"228 710 LINE",
"217 710 LINE",
"217 810 LINE",
"78 810 LINE",
"78 710 LINE",
"70 710 LINE",
"25 0 LINE"
);
},
{
closed = 1;
nodes = (
"123 291 OFFCURVE",
"121 293 OFFCURVE",
"121 296 CURVE",
"121 648 LINE",
"121 653 OFFCURVE",
"123 657 OFFCURVE",
"127 658 CURVE",
"170 668 LINE",
"174 668 OFFCURVE",
"176 666 OFFCURVE",
"176 662 CURVE",
"170 303 LINE",
"170 299 OFFCURVE",
"168 298 OFFCURVE",
"164 297 CURVE",
"127 291 LINE"
);
},
{
closed = 1;
nodes = (
"122 710 OFFCURVE",
"121 711 OFFCURVE",
"121 714 CURVE SMOOTH",
"121 780 LINE SMOOTH",
"121 782 OFFCURVE",
"124 783 OFFCURVE",
"129 783 CURVE",
"169 778 LINE",
"173 776 OFFCURVE",
"175 774 OFFCURVE",
"175 772 CURVE SMOOTH",
"175 716 LINE SMOOTH",
"175 712 OFFCURVE",
"173 710 OFFCURVE",
"168 710 CURVE",
"124 710 LINE SMOOTH"
);
},
{
closed = 1;
nodes = (
"224 845 LINE",
"215 900 LINE",
"82 861 LINE",
"98 823 LINE"
);
}
);
width = 296;
}
);
leftKerningGroup = A.alt;
rightKerningGroup = A.alt;
},
{
glyphname = AE.alt;
layers = (
{
anchors = (
{
name = bottom;
position = "{244, 0}";
},
{
name = top;
position = "{259, 710}";
}
);
layerId = "DC66480E-7BB6-4652-B43C-57E9BA303B13";
paths = (
{
closed = 1;
nodes = (
"87 0 LINE",
"139 228 LINE",
"225 268 LINE",
"225 0 LINE",
"439 0 LINE",
"439 83 LINE",
"297 75 LINE",
"297 362 LINE",
"439 356 LINE",
"439 404 LINE",
"280 427 LINE",
"280 654 LINE",
"439 648 LINE",
"439 710 LINE",
"110 710 LINE",
"25 0 LINE"
);
},
{
closed = 1;
nodes = (
"153 305 OFFCURVE",
"151 307 OFFCURVE",
"151 310 CURVE",
"151 648 LINE",
"151 653 OFFCURVE",
"153 657 OFFCURVE",
"157 658 CURVE",
"200 668 LINE",
"204 668 OFFCURVE",
"206 666 OFFCURVE",
"206 662 CURVE",
"196 311 LINE",
"196 307 OFFCURVE",
"194 306 OFFCURVE",
"190 305 CURVE",
"157 305 LINE"
);
}
);
width = 488;
}
);
leftKerningGroup = A.alt;
rightKerningGroup = E.alt;
},
{
glyphname = B.alt;
layers = (
{
layerId = "DC66480E-7BB6-4652-B43C-57E9BA303B13";
paths = (
{
closed = 1;
nodes = (
"176 0 LINE",
"187 0 OFFCURVE",
"271 1 OFFCURVE",
"271 30 CURVE",
"291 282 LINE",
"291 331 OFFCURVE",
"251 359 OFFCURVE",
"230 364 CURVE",
"271 447 LINE",
"271 648 LINE",
"271 688 OFFCURVE",
"214 710 OFFCURVE",
"173 710 CURVE",
"40 710 LINE",
"40 0 LINE"
);
},
{
closed = 1;
nodes = (
"115 59 LINE",
"115 331 LINE",
"115 332 OFFCURVE",
"121 337 OFFCURVE",
"126 337 CURVE",
"202 327 LINE",
"206 326 OFFCURVE",
"206 324 OFFCURVE",
"206 321 CURVE",
"206 116 LINE",
"206 85 OFFCURVE",
"174 76 OFFCURVE",
"126 56 CURVE"
);
},
{
closed = 1;
nodes = (
"107 397 OFFCURVE",
"103 400 OFFCURVE",
"103 405 CURVE",
"103 645 LINE",
"191 649 LINE",
"200 649 OFFCURVE",
"205 648 OFFCURVE",
"205 645 CURVE",
"196 406 LINE",
"195 403 OFFCURVE",
"195 402 OFFCURVE",
"194 401 CURVE",
"191 398 OFFCURVE",
"189 397 OFFCURVE",
"187 397 CURVE",
"115 397 LINE"
);
}
);
width = 324;
}
);
},
{
glyphname = C.alt;
layers = (
{
anchors = (
{
name = bottom;
position = "{167, 0}";
},
{
name = top;
position = "{175, 710}";
}
);
layerId = "DC66480E-7BB6-4652-B43C-57E9BA303B13";
paths = (
{
closed = 1;
nodes = (
"288 20 LINE",
"288 187 LINE",
"255 187 LINE",
"236 174 LINE",
"236 99 LINE",
"236 95 OFFCURVE",
"232 93 OFFCURVE",
"224 93 CURVE",
"125 93 LINE",
"121 93 OFFCURVE",
"119 95 OFFCURVE",
"119 99 CURVE",
"119 567 LINE SMOOTH",
"119 600 OFFCURVE",
"120 630 OFFCURVE",
"152 630 CURVE",
"214 630 LINE",
"222 630 OFFCURVE",
"226 627 OFFCURVE",
"226 621 CURVE",
"226 528 LINE",
"272 528 LINE",
"288 689 LINE",
"134 709 LINE",
"130 709 OFFCURVE",
"125 710 OFFCURVE",
"121 710 CURVE",
"77 710 OFFCURVE",
"55 680 OFFCURVE",
"54 653 CURVE",
"34 62 LINE",
"75 20 LINE"
);
}
);
width = 314;
}
);
leftKerningGroup = O.alt;
},
{
glyphname = D.alt;
layers = (
{
anchors = (
{
name = bottom;
position = "{155, 0}";
},
{
name = top;
position = "{151, 710}";
}
);
layerId = "DC66480E-7BB6-4652-B43C-57E9BA303B13";
paths = (
{
closed = 1;
nodes = (
"216 0 LINE SMOOTH",
"225 0 OFFCURVE",
"275 4 OFFCURVE",
"275 56 CURVE SMOOTH",
"275 678 LINE",
"198 710 LINE",
"33 710 LINE",
"54 84 LINE",
"48 56 LINE",
"48 0 LINE"
);
},
{
closed = 1;
nodes = (
"122 69 OFFCURVE",
"119 72 OFFCURVE",
"119 78 CURVE SMOOTH",
"119 638 LINE SMOOTH",
"119 644 OFFCURVE",
"122 647 OFFCURVE",
"128 647 CURVE SMOOTH",
"204 647 LINE SMOOTH",
"211 647 OFFCURVE",
"213 646 OFFCURVE",
"213 638 CURVE SMOOTH",
"193 131 LINE",
"190 76 OFFCURVE",
"177 69 OFFCURVE",
"160 69 CURVE",
"128 69 LINE SMOOTH"
);
}
);
width = 315;
}
);
rightKerningGroup = O.alt;
},
{
glyphname = Eth.alt;
layers = (
{
components = (
{
name = D.alt;
}
);
layerId = "DC66480E-7BB6-4652-B43C-57E9BA303B13";
paths = (
{
closed = 1;
nodes = (
"177 338 LINE",
"177 387 LINE",
"8 396 LINE",
"11 338 LINE"
);
}
);
width = 315;
}
);
rightKerningGroup = O.alt;
},
{
glyphname = E.alt;
layers = (
{
anchors = (
{
name = bottom;
position = "{150, 0}";
},
{
name = ogonek;
position = "{258, 0}";
},
{
name = top;
position = "{153, 710}";
},
{
name = topleft;
position = "{20, 710}";
}
);
layerId = "DC66480E-7BB6-4652-B43C-57E9BA303B13";
paths = (
{
closed = 1;
nodes = (
"258 0 LINE",
"258 83 LINE",
"116 75 LINE",
"116 362 LINE",
"258 356 LINE",
"258 404 LINE",
"133 427 LINE",
"133 654 LINE",
"258 648 LINE",
"258 710 LINE",
"44 710 LINE",
"44 0 LINE"
);
}
);
width = 296;
}
);
},
{
glyphname = F.alt;
layers = (
{
layerId = "DC66480E-7BB6-4652-B43C-57E9BA303B13";
paths = (
{
closed = 1;
nodes = (
"126 -20 LINE",
"106 372 LINE",
"258 389 LINE",
"258 447 LINE",
"123 447 LINE",
"123 616 LINE",
"258 628 LINE",
"258 690 LINE",
"44 710 LINE",
"44 -20 LINE"
);
}
);
width = 286;
}
);
rightKerningGroup = F.alt;
},
{
glyphname = G.alt;
layers = (
{
anchors = (
{
name = bottom;
position = "{170, 0}";
},
{
name = top;
position = "{165, 710}";
}
);
layerId = "DC66480E-7BB6-4652-B43C-57E9BA303B13";
paths = (
{
closed = 1;
nodes = (
"204 0 LINE SMOOTH",
"239 0 OFFCURVE",
"274 22 OFFCURVE",
"274 58 CURVE SMOOTH",
"274 277 LINE",
"313 294 LINE",
"313 333 LINE",
"211 343 LINE",
"211 106 LINE SMOOTH",
"211 98 OFFCURVE",
"199 94 OFFCURVE",
"191 94 CURVE SMOOTH",
"145 94 LINE SMOOTH",
"136 94 OFFCURVE",
"124 103 OFFCURVE",
"124 112 CURVE SMOOTH",
"107 630 LINE",
"219 655 LINE",
"219 559 LINE",
"263 559 LINE",
"281 668 LINE",
"281 710 LINE",
"81 710 LINE SMOOTH",
"52 710 OFFCURVE",
"33 687 OFFCURVE",
"32 656 CURVE",
"54 0 LINE"
);
}
);
width = 333;
}
);
leftKerningGroup = O.alt;
},
{
glyphname = H.alt;
layers = (
{
anchors = (
{
name = bottom;
position = "{153, 0}";
},
{
name = top;
position = "{156, 710}";
}
);
layerId = "DC66480E-7BB6-4652-B43C-57E9BA303B13";
paths = (
{
closed = 1;
nodes = (
"114 0 LINE",
"114 327 LINE",
"200 310 LINE",
"229 0 LINE",
"273 0 LINE",
"273 710 LINE",
"200 710 LINE",
"200 400 LINE",
"101 395 LINE",
"112 710 LINE",
"40 710 LINE",
"40 0 LINE"
);
}
);
width = 313;
}
);
},
{
glyphname = Hbar.alt;
layers = (
{
components = (
{
name = H.alt;
}
);
layerId = "DC66480E-7BB6-4652-B43C-57E9BA303B13";
paths = (
{
closed = 1;
nodes = (
"319 542 LINE",
"319 592 LINE",
"2 592 LINE",
"5 534 LINE"
);
}
);
width = 313;
}
);
},
{
glyphname = I.alt;
layers = (
{
anchors = (
{
name = bottom;
position = "{85, 0}";
},
{
name = ogonek;
position = "{111, 20}";
},
{
name = top;
position = "{75, 710}";
},
{
name = topleft;
position = "{20, 710}";
}
);
layerId = "DC66480E-7BB6-4652-B43C-57E9BA303B13";
paths = (
{
closed = 1;
nodes = (
"126 20 LINE",
"105 710 LINE",
"42 710 LINE",
"42 20 LINE"
);
}
);
width = 157;
}
);
},
{
glyphname = J.alt;
layers = (
{
anchors = (
{
name = bottom;
position = "{132, 0}";
},
{
name = top;
position = "{188, 710}";
}
);
layerId = "DC66480E-7BB6-4652-B43C-57E9BA303B13";
paths = (
{
closed = 1;
nodes = (
"209 0 LINE",
"228 710 LINE",
"191 710 LINE",
"151 696 LINE",
"151 89 LINE",
"76 94 LINE",
"71 172 LINE",
"22 172 LINE",
"30 38 LINE SMOOTH",
"31 19 OFFCURVE",
"54 0 OFFCURVE",
"73 0 CURVE"
);
}
);
width = 264;
}
);
leftKerningGroup = J.alt;
},
{
glyphname = K.alt;
layers = (
{
anchors = (
{
name = bottom;
position = "{155, 0}";
},
{
name = top;
position = "{130, 710}";
}
);
layerId = "DC66480E-7BB6-4652-B43C-57E9BA303B13";
paths = (
{
closed = 1;
nodes = (
"118 0 LINE",
"118 321 LINE",
"140 338 LINE",
"193 0 LINE",
"252 0 LINE",
"270 21 LINE",
"190 369 LINE",
"231 401 LINE",
"252 710 LINE",
"166 687 LINE",
"177 432 LINE",
"106 372 LINE",
"106 710 LINE",
"64 710 LINE",
"38 700 LINE",
"51 0 LINE"
);
}
);
width = 286;
}
);
},
{
glyphname = L.alt;
layers = (
{
anchors = (
{
name = bottom;
position = "{139, 0}";
},
{
name = center;
position = "{211, 385}";
},
{
name = top;
position = "{78, 710}";
},
{
name = topright;
position = "{162, 540}";
}
);
layerId = "DC66480E-7BB6-4652-B43C-57E9BA303B13";
paths = (
{
closed = 1;
nodes = (
"242 0 LINE",
"242 69 LINE",
"129 82 LINE",
"114 105 LINE",
"114 710 LINE",
"40 710 LINE",
"40 0 LINE"
);
}
);
width = 264;
}
);
rightKerningGroup = L.alt;
},
{
glyphname = Lcaron.alt;
layers = (
{
components = (
{
name = L.alt;
},
{
name = caroncomb.alt;
transform = "{1, 0, 0, 1, 162, -42}";
}
);
layerId = "DC66480E-7BB6-4652-B43C-57E9BA303B13";
width = 264;
},
{
associatedMasterId = "DC66480E-7BB6-4652-B43C-57E9BA303B13";
components = (
{
name = L.alt;
}
);
layerId = "EA6572A8-D8F7-41ED-B0A1-40B0117B0336";
name = "Apr 29 18, 14:17";
paths = (
{
closed = 1;
nodes = (
"260 657 LINE",
"254 753 LINE",
"168 749 LINE",
"200 657 LINE",
"149 582 LINE",
"192 567 LINE"
);
}
);
width = 284;
}
);
},
{
glyphname = Lslash.alt;
layers = (
{
layerId = "DC66480E-7BB6-4652-B43C-57E9BA303B13";
paths = (
{
closed = 1;
nodes = (
"252 0 LINE",
"252 69 LINE",
"139 82 LINE",
"124 105 LINE",
"124 368 LINE",
"218 425 LINE",
"193 471 LINE",
"124 432 LINE",
"124 710 LINE",
"50 710 LINE",
"50 390 LINE",
"-33 344 LINE",
"-7 290 LINE",
"50 324 LINE",
"50 0 LINE"
);
}
);
width = 287;
}
);
rightKerningGroup = L.alt;
},
{
glyphname = M.alt;
layers = (
{
layerId = "DC66480E-7BB6-4652-B43C-57E9BA303B13";
paths = (
{
closed = 1;
nodes = (
"92 0 LINE",
"92 589 LINE",
"96 589 LINE",
"167 150 LINE",
"200 157 LINE",
"269 535 LINE",
"276 535 LINE",
"276 0 LINE",
"342 0 LINE",
"319 710 LINE",
"261 710 LINE",
"193 276 LINE",
"185 276 LINE",
"112 710 LINE",
"40 710 LINE",
"40 0 LINE"
);
}
);
width = 376;
}
);
},
{
glyphname = N.alt;
layers = (
{
anchors = (
{
name = bottom;
position = "{165, 0}";
},
{
name = top;
position = "{176, 710}";
}
);
layerId = "DC66480E-7BB6-4652-B43C-57E9BA303B13";
paths = (
{
closed = 1;
nodes = (
"79 -20 LINE",
"98 554 LINE",
"102 554 LINE",
"200 -20 LINE",
"268 -20 LINE",
"288 710 LINE",
"229 710 LINE",
"229 131 LINE",
"222 131 LINE",
"121 710 LINE",
"60 710 LINE",
"28 -20 LINE"
);
}
);
width = 320;
}
);
},
{
glyphname = Eng.alt;
layers = (
{
layerId = "DC66480E-7BB6-4652-B43C-57E9BA303B13";
paths = (
{
closed = 1;
nodes = (
"245 -119 LINE",
"288 -70 LINE",
"287 99 LINE",
"287 720 LINE",
"250 720 LINE",
"207 706 LINE",
"219 338 LINE",
"213 338 LINE",
"121 710 LINE",
"60 710 LINE",
"28 20 LINE",
"79 20 LINE",
"98 554 LINE",
"102 554 LINE",
"226 136 LINE",
"228 -46 LINE SMOOTH",
"228 -51 OFFCURVE",
"226 -55 OFFCURVE",
"222 -55 CURVE",
"139 -64 LINE",
"139 -119 LINE"
);
}
);
width = 319;
}
);
},
{
glyphname = Nhookleft.alt;
layers = (
{
layerId = "DC66480E-7BB6-4652-B43C-57E9BA303B13";
paths = (
{
closed = 1;
nodes = (
"45 -119 LINE",
"88 -70 LINE",
"98 554 LINE",
"102 554 LINE",
"200 -20 LINE",
"268 -20 LINE",
"288 710 LINE",
"229 710 LINE",
"229 131 LINE",
"222 131 LINE",
"121 710 LINE",
"60 710 LINE",
"37 -46 LINE",
"37 -51 OFFCURVE",
"35 -54 OFFCURVE",
"31 -55 CURVE",
"-35 -64 LINE",
"-35 -119 LINE"
);
}
);
width = 320;
}
);
},
{
glyphname = O.alt;
layers = (
{
anchors = (
{
name = bottom;
position = "{149, 0}";
},
{
name = center;
position = "{146, 355}";
},
{
name = ogonek;
position = "{190, 0}";
},
{
name = top;
position = "{144, 710}";
},
{
name = topleft;
position = "{20, 710}";
},
{
name = topright;
position = "{223, 703}";
}
);
layerId = "DC66480E-7BB6-4652-B43C-57E9BA303B13";
paths = (
{
closed = 1;
nodes = (
"245 0 LINE",
"252 662 LINE SMOOTH",
"252 689 OFFCURVE",
"228 710 OFFCURVE",
"191 710 CURVE SMOOTH",
"110 710 OFFCURVE",
"68 702 OFFCURVE",
"39 686 CURVE",
"39 56 LINE SMOOTH",
"39 17 OFFCURVE",
"56 0 OFFCURVE",
"112 0 CURVE"
);
},
{
closed = 1;
nodes = (
"103 63 LINE",
"109 640 LINE",
"118 646 LINE",
"180 643 LINE",
"186 642 OFFCURVE",
"189 640 OFFCURVE",
"189 637 CURVE SMOOTH",
"183 66 LINE",
"174 57 LINE"
);
}
);
width = 292;
}
);
leftKerningGroup = O.alt;
},
{
glyphname = Oslash.alt;
layers = (
{
layerId = "DC66480E-7BB6-4652-B43C-57E9BA303B13";
paths = (
{
closed = 1;
nodes = (
"84 0 LINE",
"203 0 LINE SMOOTH",
"243 0 OFFCURVE",
"257 14 OFFCURVE",
"257 37 CURVE",
"257 661 LINE",
"287 776 LINE",
"251 789 LINE",
"226 699 LINE",
"202 706 OFFCURVE",
"165 710 OFFCURVE",
"105 710 CURVE SMOOTH",
"68 710 OFFCURVE",
"44 696 OFFCURVE",
"44 685 CURVE SMOOTH",
"53 58 LINE",
"18 -72 LINE",
"61 -88 LINE"
);
},
{
closed = 1;
nodes = (
"118 61 LINE",
"116 122 LINE",
"193 419 LINE",
"200 77 LINE",
"127 52 LINE"
);
},
{
closed = 1;
nodes = (
"99 643 LINE SMOOTH",
"99 646 OFFCURVE",
"102 648 OFFCURVE",
"108 649 CURVE",
"181 639 LINE",
"190 633 LINE",
"190 568 LINE",
"111 272 LINE"
);
}
);
width = 303;
}
);
leftKerningGroup = O.alt;
rightKerningGroup = O.alt;
},
{
glyphname = Oslashacute.alt;
layers = (
{
components = (
{
name = acutecomb.case;
transform = "{1, 0, 0, 1, 69, 128}";
}
);
layerId = "DC66480E-7BB6-4652-B43C-57E9BA303B13";
paths = (
{
closed = 1;
nodes = (
"84 0 LINE",
"203 0 LINE SMOOTH",
"243 0 OFFCURVE",
"257 14 OFFCURVE",
"257 37 CURVE",
"257 661 LINE",
"287 776 LINE",
"251 789 LINE",
"226 699 LINE",
"202 706 OFFCURVE",
"165 710 OFFCURVE",
"105 710 CURVE SMOOTH",
"68 710 OFFCURVE",
"44 696 OFFCURVE",
"44 685 CURVE SMOOTH",
"53 58 LINE",
"18 -72 LINE",
"61 -88 LINE"
);
},
{
closed = 1;
nodes = (
"118 61 LINE",
"116 122 LINE",
"193 419 LINE",
"200 77 LINE",
"127 52 LINE"
);
},
{
closed = 1;
nodes = (
"99 643 LINE SMOOTH",
"99 646 OFFCURVE",
"102 648 OFFCURVE",
"108 649 CURVE",
"181 639 LINE",
"190 633 LINE",
"190 568 LINE",
"111 272 LINE"
);
}
);
width = 303;
}
);
leftKerningGroup = O.alt;
rightKerningGroup = O.alt;
},
{
glyphname = OE.alt;
layers = (
{
layerId = "DC66480E-7BB6-4652-B43C-57E9BA303B13";
paths = (
{
closed = 1;
nodes = (
"409 0 LINE",
"409 83 LINE",
"267 75 LINE",
"267 362 LINE",
"409 356 LINE",
"409 404 LINE",
"284 427 LINE",
"284 654 LINE",
"409 648 LINE",
"409 710 LINE",
"225 703 LINE",
"215 707 OFFCURVE",
"204 710 OFFCURVE",
"191 710 CURVE SMOOTH",
"110 710 OFFCURVE",
"68 702 OFFCURVE",
"39 686 CURVE",
"39 56 LINE SMOOTH",
"39 17 OFFCURVE",
"56 0 OFFCURVE",
"112 0 CURVE"
);
},
{
closed = 1;
nodes = (
"103 63 LINE",
"109 640 LINE",
"118 646 LINE",
"180 643 LINE",
"186 642 OFFCURVE",
"189 640 OFFCURVE",
"189 637 CURVE SMOOTH",
"183 66 LINE",
"174 57 LINE"
);
}
);
width = 458;
}
);
leftKerningGroup = O.alt;
rightKerningGroup = E.alt;
},
{
glyphname = P.alt;
layers = (
{
layerId = "DC66480E-7BB6-4652-B43C-57E9BA303B13";
paths = (
{
closed = 1;
nodes = (
"97 0 LINE",
"105 306 LINE",
"215 317 LINE",
"250 379 LINE",
"239 689 LINE SMOOTH",
"239 704 OFFCURVE",
"218 710 OFFCURVE",
"203 710 CURVE SMOOTH",
"160 710 LINE SMOOTH",
"120 710 OFFCURVE",
"51 701 OFFCURVE",
"51 687 CURVE",
"28 0 LINE"
);
},
{
closed = 1;
nodes = (
"111 658 LINE",
"167 665 LINE",
"182 650 LINE",
"182 391 LINE SMOOTH",
"182 387 OFFCURVE",
"180 385 OFFCURVE",
"176 385 CURVE",
"111 382 LINE"
);
}
);
width = 278;
}
);
},
{
glyphname = Thorn.alt;
layers = (
{
layerId = "DC66480E-7BB6-4652-B43C-57E9BA303B13";
paths = (
{
closed = 1;
nodes = (
"74 0 LINE",
"95 156 LINE",
"225 167 LINE",
"260 229 LINE",
"249 578 LINE SMOOTH",
"249 593 OFFCURVE",
"228 599 OFFCURVE",
"213 599 CURVE SMOOTH",
"170 599 LINE SMOOTH",
"157 599 OFFCURVE",
"123 596 OFFCURVE",
"108 593 CURVE",
"108 710 LINE",
"58 710 LINE",
"28 0 LINE"
);
},
{
closed = 1;
nodes = (
"111 547 LINE",
"177 554 LINE",
"192 539 LINE",
"192 231 LINE SMOOTH",
"192 227 OFFCURVE",
"190 225 OFFCURVE",
"186 225 CURVE",
"111 222 LINE"
);
}
);
width = 288;
}
);
},
{
glyphname = Q.alt;
layers = (
{
layerId = "DC66480E-7BB6-4652-B43C-57E9BA303B13";
paths = (
{
closed = 1;
nodes = (
"266 -114 LINE",
"156 0 LINE",
"193 0 LINE SMOOTH",
"233 0 OFFCURVE",
"247 14 OFFCURVE",
"247 37 CURVE SMOOTH",
"247 685 LINE SMOOTH",
"247 692 OFFCURVE",
"213 710 OFFCURVE",
"101 710 CURVE SMOOTH",
"64 710 OFFCURVE",
"40 696 OFFCURVE",
"40 685 CURVE",
"40 0 LINE",
"103 0 LINE",
"182 -121 LINE",
"207 -134 LINE"
);
},
{
closed = 1;
nodes = (
"100 61 LINE",
"120 633 LINE SMOOTH",
"120 636 OFFCURVE",
"123 638 OFFCURVE",
"129 639 CURVE",
"181 639 LINE",
"190 633 LINE",
"190 65 LINE",
"112 52 LINE"
);
}
);
width = 291;
}
);
leftKerningGroup = O.alt;
},
{
glyphname = R.alt;
layers = (
{
anchors = (
{
name = bottom;
position = "{152, 0}";
},
{
name = top;
position = "{147, 710}";
}
);
layerId = "DC66480E-7BB6-4652-B43C-57E9BA303B13";
paths = (
{
closed = 1;
nodes = (
"86 0 LINE",
"107 306 LINE",
"158 311 LINE",
"209 0 LINE",
"268 0 LINE",
"287 22 LINE",
"207 320 LINE",
"252 379 LINE",
"242 667 LINE",
"241 692 OFFCURVE",
"226 710 OFFCURVE",
"205 710 CURVE",
"162 710 LINE",
"122 710 OFFCURVE",
"40 707 OFFCURVE",
"40 699 CURVE",
"40 0 LINE"
);
},
{
closed = 1;
nodes = (
"100 648 LINE",
"169 655 LINE",
"184 640 LINE",
"184 391 LINE",
"184 387 OFFCURVE",
"182 385 OFFCURVE",
"178 385 CURVE",
"103 381 LINE"
);
}
);
width = 301;
}
);
},
{
glyphname = S.alt;
layers = (
{
anchors = (
{
name = bottom;
position = "{134, 0}";
},
{
name = top;
position = "{145, 710}";
}
);
layerId = "DC66480E-7BB6-4652-B43C-57E9BA303B13";
paths = (
{
closed = 1;
nodes = (
"156 0 LINE SMOOTH",
"184 0 OFFCURVE",
"230 32 OFFCURVE",
"230 60 CURVE",
"244 392 LINE",
"99 418 LINE",
"114 640 LINE",
"174 647 LINE",
"194 569 LINE",
"231 569 LINE",
"236 710 LINE",
"79 710 LINE",
"39 686 LINE",
"39 364 LINE",
"174 334 LINE",
"158 68 LINE",
"88 84 LINE",
"88 171 LINE",
"30 171 LINE",
"39 0 LINE"
);
}
);
width = 273;
}
);
leftKerningGroup = S.alt;
rightKerningGroup = S.alt;
},
{
glyphname = Germandbls.alt;
layers = (
{
layerId = "DC66480E-7BB6-4652-B43C-57E9BA303B13";
paths = (
{
closed = 1;
nodes = (
"115 0 LINE",
"110 645 LINE",
"272 655 LINE",
"221 568 OFFCURVE",
"184 520 OFFCURVE",
"184 500 CURVE SMOOTH",
"184 328 LINE",
"290 288 LINE",
"310 64 LINE",
"187 64 LINE",
"187 0 LINE",
"315 0 LINE SMOOTH",
"339 0 OFFCURVE",
"368 26 OFFCURVE",
"368 49 CURVE SMOOTH",
"368 336 LINE",
"252 378 LINE",
"239 484 LINE",
"359 641 LINE",
"286 710 LINE",
"87 710 LINE SMOOTH",
"61 710 OFFCURVE",
"44 692 OFFCURVE",
"44 661 CURVE",
"44 0 LINE"
);
}
);
width = 417;
}
);
},
{
glyphname = Schwa.alt;
layers = (
{
layerId = "DC66480E-7BB6-4652-B43C-57E9BA303B13";
paths = (
{
closed = 1;
nodes = (
"263 0 LINE",
"285 656 LINE",
"284 687 OFFCURVE",
"265 710 OFFCURVE",
"236 710 CURVE SMOOTH",
"36 710 LINE",
"36 668 LINE",
"210 630 LINE",
"202 387 LINE",
"43 387 LINE",
"43 58 LINE SMOOTH",
"43 22 OFFCURVE",
"78 0 OFFCURVE",
"113 0 CURVE SMOOTH"
);
},
{
closed = 1;
nodes = (
"118 94 OFFCURVE",
"106 98 OFFCURVE",
"106 106 CURVE SMOOTH",
"106 317 LINE",
"200 329 LINE",
"193 112 LINE SMOOTH",
"193 103 OFFCURVE",
"181 94 OFFCURVE",
"172 94 CURVE",
"126 94 LINE SMOOTH"
);
}
);
width = 312;
}
);
},
{
glyphname = T.alt;
layers = (
{
anchors = (
{
name = bottom;
position = "{121, 0}";
},
{
name = top;
position = "{134, 710}";
}
);
layerId = "DC66480E-7BB6-4652-B43C-57E9BA303B13";
paths = (
{
closed = 1;
nodes = (
"157 0 LINE",
"157 633 LINE",
"245 633 LINE",
"240 696 LINE",
"33 710 LINE",
"20 639 LINE",
"92 615 LINE",
"72 0 LINE"
);
}
);
width = 261;
}
);
leftKerningGroup = T.alt;
rightKerningGroup = T.alt;
},
{
glyphname = Tbar.alt;
layers = (
{
layerId = "DC66480E-7BB6-4652-B43C-57E9BA303B13";
paths = (
{
closed = 1;
nodes = (
"162 0 LINE",
"162 433 LINE",
"272 437 LINE",
"272 492 LINE",
"162 492 LINE",
"162 633 LINE",
"250 633 LINE",
"245 696 LINE",
"38 710 LINE",
"25 639 LINE",
"97 615 LINE",
"93 492 LINE",
"4 492 LINE",
"7 428 LINE",
"91 431 LINE",
"77 0 LINE"
);
}
);
width = 275;
}
);
leftKerningGroup = T.alt;
rightKerningGroup = T.alt;
},
{
glyphname = U.alt;
layers = (
{
anchors = (
{
name = bottom;
position = "{143, 0}";
},
{
name = ogonek;
position = "{192, 0}";
},
{
name = top;
position = "{157, 710}";
},
{
name = topright;
position = "{258, 683}";
}
);
layerId = "DC66480E-7BB6-4652-B43C-57E9BA303B13";
paths = (
{
closed = 1;
nodes = (
"258 -20 LINE",
"258 683 LINE",
"188 687 LINE",
"188 68 LINE",
"104 62 LINE",
"125 700 LINE",
"51 700 LINE",
"28 -20 LINE"
);
}
);
width = 289;
}
);
},
{
glyphname = V.alt;
layers = (
{
layerId = "DC66480E-7BB6-4652-B43C-57E9BA303B13";
paths = (
{
closed = 1;
nodes = (
"178 0 LINE",
"275 700 LINE",
"209 700 LINE",
"142 25 LINE",
"137 25 LINE",
"77 710 LINE",
"14 710 LINE",
"73 0 LINE"
);
}
);
width = 277;
}
);
leftKerningGroup = V.alt;
rightKerningGroup = V.alt;
},
{
glyphname = W.alt;
layers = (
{
anchors = (
{
name = bottom;
position = "{194, 0}";
},
{
name = top;
position = "{208, 710}";
}
);
layerId = "DC66480E-7BB6-4652-B43C-57E9BA303B13";
paths = (
{
closed = 1;
nodes = (
"178 0 LINE",
"201 500 LINE",
"205 500 LINE",
"281 10 LINE",
"377 10 LINE",
"410 700 LINE",
"349 700 LINE",
"327 33 LINE",
"322 33 LINE",
"239 539 LINE",
"245 690 LINE",
"173 690 LINE",
"124 37 LINE",
"120 37 LINE",
"69 710 LINE",
"4 710 LINE",
"73 0 LINE"
);
}
);
width = 415;
}
);
leftKerningGroup = W.alt;
rightKerningGroup = W.alt;
},
{
glyphname = X.alt;
layers = (
{
layerId = "DC66480E-7BB6-4652-B43C-57E9BA303B13";
paths = (
{
closed = 1;
nodes = (
"298 -11 LINE",
"209 343 LINE",
"280 690 LINE",
"213 690 LINE",
"176 399 LINE",
"141 390 LINE",
"101 710 LINE",
"23 710 LINE",
"87 386 LINE",
"9 0 LINE",
"87 0 LINE",
"131 324 LINE",
"159 339 LINE",
"202 -11 LINE"
);
}
);
width = 300;
}
);
},
{
glyphname = Y.alt;
layers = (
{
anchors = (
{
name = bottom;
position = "{143, 0}";
},
{
name = top;
position = "{127, 710}";
}
);
layerId = "DC66480E-7BB6-4652-B43C-57E9BA303B13";
paths = (
{
closed = 1;
nodes = (
"182 0 LINE",
"165 369 LINE",
"201 431 LINE",
"245 710 LINE",
"175 710 LINE",
"145 415 LINE",
"137 413 LINE",
"103 700 LINE",
"12 700 LINE",
"105 374 LINE",
"105 0 LINE"
);
}
);
width = 257;
}
);
leftKerningGroup = Y.alt;
rightKerningGroup = Y.alt;
},
{
glyphname = Z.alt;
layers = (
{
anchors = (
{
name = bottom;
position = "{140, 0}";
},
{
name = top;
position = "{147, 710}";
}
);
layerId = "DC66480E-7BB6-4652-B43C-57E9BA303B13";
paths = (
{
closed = 1;
nodes = (
"262 0 LINE",
"262 47 LINE",
"128 56 LINE",
"242 710 LINE",
"36 710 LINE",
"36 646 LINE",
"164 662 LINE",
"20 33 LINE",
"38 0 LINE"
);
}
);
width = 282;
}
);
leftKerningGroup = Z.alt;
rightKerningGroup = Z.alt;
},
{
glyphname = Y.loclGUA;
layers = (
{
anchors = (
{
name = bottom;
position = "{122, 0}";
},
{
name = top;
position = "{116, 710}";
}
);
layerId = "DC66480E-7BB6-4652-B43C-57E9BA303B13";
paths = (
{
closed = 1;
nodes = (
"211 0 LINE",
"211 710 LINE",
"145 710 LINE",
"145 388 LINE",
"96 391 LINE",
"83 690 LINE",
"24 690 LINE",
"24 338 LINE",
"138 323 LINE",
"153 57 LINE",
"41 72 LINE",
"31 0 LINE"
);
}
);
width = 235;
}
);
},
{
glyphname = a;
layers = (
{
anchors = (
{
name = bottom;
position = "{139, 0}";
},
{
name = ogonek;
position = "{226, 0}";
},
{
name = top;
position = "{139, 582}";
}
);
layerId = "DC66480E-7BB6-4652-B43C-57E9BA303B13";
paths = (
{
closed = 1;
nodes = (
"246 0 LINE",
"246 49 LINE",
"228 59 LINE",
"231 517 LINE SMOOTH",
"231 566 OFFCURVE",
"215 582 OFFCURVE",
"179 582 CURVE SMOOTH",
"47 582 LINE",
"47 532 LINE",
"155 525 LINE",
"167 519 LINE",
"164 331 LINE",
"80 337 LINE",
"54 337 OFFCURVE",
"35 320 OFFCURVE",
"36 291 CURVE",
"35 47 LINE SMOOTH",
"35 20 OFFCURVE",
"64 0 OFFCURVE",
"101 0 CURVE SMOOTH"
);
},
{
closed = 1;
nodes = (
"106 60 LINE",
"97 61 OFFCURVE",
"97 63 OFFCURVE",
"97 66 CURVE SMOOTH",
"101 270 LINE",
"106 276 LINE",
"162 276 LINE",
"164 66 LINE",
"159 58 LINE"
);
}
);
width = 274;
}
);
leftKerningGroup = a;
unicode = 0061;
},
{
glyphname = ae;
layers = (
{
anchors = (
{
name = bottom;
position = "{194, 0}";
},
{
name = top;
position = "{204, 582}";
}
);
layerId = "DC66480E-7BB6-4652-B43C-57E9BA303B13";
paths = (
{
closed = 1;
nodes = (
"368 0 LINE",
"368 122 LINE",
"325 122 LINE",
"308 56 LINE",
"249 57 LINE SMOOTH",
"243 57 OFFCURVE",
"241 61 OFFCURVE",
"241 65 CURVE SMOOTH",
"242 263 LINE",
"330 258 LINE",
"371 290 LINE",
"371 531 LINE SMOOTH",
"371 556 OFFCURVE",
"354 582 OFFCURVE",
"328 582 CURVE SMOOTH",
"47 582 LINE",
"47 532 LINE",
"155 525 LINE",
"167 519 LINE",
"164 331 LINE",
"80 337 LINE",
"54 337 OFFCURVE",
"35 320 OFFCURVE",
"36 291 CURVE",
"35 47 LINE SMOOTH",
"35 20 OFFCURVE",
"64 0 OFFCURVE",
"101 0 CURVE SMOOTH"
);
},
{
closed = 1;
nodes = (
"106 60 LINE",
"97 61 OFFCURVE",
"97 63 OFFCURVE",
"97 66 CURVE SMOOTH",
"101 270 LINE",
"106 276 LINE",
"162 276 LINE",
"164 66 LINE",
"159 58 LINE"
);
},
{
closed = 1;
nodes = (
"234 515 LINE SMOOTH",
"234 521 OFFCURVE",
"234 524 OFFCURVE",
"243 524 CURVE SMOOTH",
"301 524 LINE SMOOTH",
"306 524 OFFCURVE",
"310 521 OFFCURVE",
"310 515 CURVE SMOOTH",
"304 329 LINE SMOOTH",
"304 318 OFFCURVE",
"300 318 OFFCURVE",
"295 318 CURVE SMOOTH",
"239 318 LINE"
);
}
);
width = 411;
}
);
leftKerningGroup = a;
unicode = 00E6;
},
{
glyphname = b;
layers = (
{
layerId = "DC66480E-7BB6-4652-B43C-57E9BA303B13";
paths = (
{
closed = 1;
nodes = (
"190 0 LINE SMOOTH",
"224 0 OFFCURVE",
"237 24 OFFCURVE",
"237 56 CURVE SMOOTH",
"241 537 LINE SMOOTH",
"241 564 OFFCURVE",
"212 585 OFFCURVE",
"175 585 CURVE SMOOTH",
"148 585 OFFCURVE",
"126 583 OFFCURVE",
"109 581 CURVE",
"104 721 LINE",
"45 721 LINE",
"45 56 LINE SMOOTH",
"45 17 OFFCURVE",
"51 0 OFFCURVE",
"107 0 CURVE SMOOTH"
);
},
{
closed = 1;
nodes = (
"112 57 LINE",
"106 521 LINE",
"164 527 LINE",
"173 518 LINE",
"179 60 LINE SMOOTH",
"179 57 OFFCURVE",
"179 55 OFFCURVE",
"170 54 CURVE SMOOTH",
"121 51 LINE"
);
}
);
width = 286;
}
);
unicode = 0062;
},
{
glyphname = c;
layers = (
{
anchors = (
{
name = bottom;
position = "{132, 0}";
},
{
name = top;
position = "{141, 582}";
}
);
layerId = "DC66480E-7BB6-4652-B43C-57E9BA303B13";
paths = (
{
closed = 1;
nodes = (
"227 0 LINE",
"227 46 LINE",
"126 57 LINE SMOOTH",
"120 58 OFFCURVE",
"118 61 OFFCURVE",
"118 65 CURVE SMOOTH",
"109 515 LINE SMOOTH",
"109 521 OFFCURVE",
"109 524 OFFCURVE",
"118 524 CURVE SMOOTH",
"160 524 LINE SMOOTH",
"166 524 OFFCURVE",
"168 521 OFFCURVE",
"169 517 CURVE SMOOTH",
"180 479 LINE",
"221 479 LINE",
"224 582 LINE",
"96 582 LINE",
"96 582 OFFCURVE",
"45 540 OFFCURVE",
"45 540 CURVE",
"45 36 LINE SMOOTH",
"45 36 OFFCURVE",
"96 0 OFFCURVE",
"96 0 CURVE"
);
}
);
width = 253;
}
);
leftKerningGroup = o;
unicode = 0063;
},
{
glyphname = d;
layers = (
{
anchors = (
{
name = bottom;
position = "{148, 0}";
},
{
name = top;
position = "{141, 582}";
}
);
layerId = "DC66480E-7BB6-4652-B43C-57E9BA303B13";
paths = (
{
closed = 1;
nodes = (
"246 0 LINE",
"251 721 LINE",
"176 721 LINE",
"180 582 LINE",
"87 582 LINE SMOOTH",
"63 582 OFFCURVE",
"45 563 OFFCURVE",
"45 528 CURVE SMOOTH",
"47 36 LINE SMOOTH",
"47 12 OFFCURVE",
"58 0 OFFCURVE",
"98 0 CURVE SMOOTH"
);
},
{
closed = 1;
nodes = (
"118 63 OFFCURVE",
"118 65 OFFCURVE",
"118 69 CURVE",
"108 511 LINE",
"108 517 OFFCURVE",
"108 520 OFFCURVE",
"117 520 CURVE SMOOTH",
"169 520 LINE SMOOTH",
"174 520 OFFCURVE",
"178 517 OFFCURVE",
"178 511 CURVE SMOOTH",
"178 69 LINE SMOOTH",
"178 65 OFFCURVE",
"178 63 OFFCURVE",
"169 63 CURVE SMOOTH",
"127 63 LINE SMOOTH"
);
}
);
width = 294;
}
);
leftKerningGroup = o;
unicode = 0064;
},
{
glyphname = eth;
layers = (
{
background = {
paths = (
{
closed = 1;
nodes = (
"208 582 LINE",
"83 582 LINE",
"40 550 LINE",
"40 42 LINE",
"99 0 LINE",
"185 0 LINE",
"248 36 LINE",
"248 554 LINE"
);
},
{
closed = 1;
nodes = (
"187 521 CURVE",
"177 69 LINE SMOOTH",
"177 65 OFFCURVE",
"177 63 OFFCURVE",
"168 63 CURVE SMOOTH",
"116 63 LINE SMOOTH",
"107 63 OFFCURVE",
"107 65 OFFCURVE",
"107 69 CURVE SMOOTH",
"107 521 LINE SMOOTH",
"107 527 OFFCURVE",
"111 530 OFFCURVE",
"116 530 CURVE SMOOTH",
"178 530 LINE SMOOTH",
"187 530 OFFCURVE",
"187 527 OFFCURVE"
);
}
);
};
components = (
{
name = baraccent;
transform = "{0.9925, 0.1219, -0.1219, 0.9925, 89, 274}";
}
);
layerId = "DC66480E-7BB6-4652-B43C-57E9BA303B13";
paths = (
{
closed = 1;
nodes = (
"185 0 LINE",
"248 36 LINE",
"250 550 LINE",
"209 721 LINE",
"152 721 LINE",
"140 710 LINE",
"177 582 LINE",
"87 582 LINE",
"43 528 LINE",
"41 39 LINE",
"98 0 LINE"
);
},
{
closed = 1;
nodes = (
"118 63 OFFCURVE",
"118 65 OFFCURVE",
"118 69 CURVE",
"108 511 LINE",
"108 517 OFFCURVE",
"108 520 OFFCURVE",
"117 520 CURVE SMOOTH",
"169 520 LINE SMOOTH",
"174 520 OFFCURVE",
"178 517 OFFCURVE",
"178 511 CURVE SMOOTH",
"178 69 LINE SMOOTH",
"178 65 OFFCURVE",
"178 63 OFFCURVE",
"169 63 CURVE SMOOTH",
"127 63 LINE SMOOTH"
);
}
);
width = 292;
}
);
unicode = 00F0;
},
{
glyphname = e;
layers = (
{
anchors = (
{
name = bottom;
position = "{144, 0}";
},
{
name = ogonek;
position = "{240, 0}";
},
{
name = top;
position = "{148, 582}";
}
);
layerId = "DC66480E-7BB6-4652-B43C-57E9BA303B13";
paths = (
{
closed = 1;
nodes = (
"240 0 LINE",
"240 122 LINE",
"197 122 LINE",
"180 56 LINE",
"121 57 LINE SMOOTH",
"115 57 OFFCURVE",
"113 61 OFFCURVE",
"113 65 CURVE SMOOTH",
"114 263 LINE",
"202 258 LINE",
"243 290 LINE",
"243 531 LINE SMOOTH",
"243 556 OFFCURVE",
"226 582 OFFCURVE",
"200 582 CURVE SMOOTH",
"96 582 LINE SMOOTH",
"65 582 OFFCURVE",
"45 570 OFFCURVE",
"45 538 CURVE SMOOTH",
"45 36 LINE SMOOTH",
"45 13 OFFCURVE",
"65 0 OFFCURVE",
"96 0 CURVE SMOOTH"
);
},
{
closed = 1;
nodes = (
"106 515 LINE SMOOTH",
"106 521 OFFCURVE",
"106 524 OFFCURVE",
"115 524 CURVE SMOOTH",
"173 524 LINE",
"178 524 OFFCURVE",
"182 521 OFFCURVE",
"182 515 CURVE SMOOTH",
"176 329 LINE SMOOTH",
"176 318 OFFCURVE",
"172 318 OFFCURVE",
"167 318 CURVE SMOOTH",
"111 318 LINE"
);
}
);
width = 281;
}
);
leftKerningGroup = o;
unicode = 0065;
},
{
glyphname = schwa;
layers = (
{
layerId = "DC66480E-7BB6-4652-B43C-57E9BA303B13";
paths = (
{
closed = 1;
nodes = (
"187 0 LINE SMOOTH",
"218 0 OFFCURVE",
"238 12 OFFCURVE",
"238 44 CURVE SMOOTH",
"238 546 LINE SMOOTH",
"238 569 OFFCURVE",
"218 582 OFFCURVE",
"187 582 CURVE SMOOTH",
"43 582 LINE",
"43 534 LINE",
"162 523 LINE SMOOTH",
"168 522 OFFCURVE",
"170 519 OFFCURVE",
"170 515 CURVE SMOOTH",
"169 313 LINE",
"40 322 LINE",
"40 51 LINE SMOOTH",
"40 26 OFFCURVE",
"57 0 OFFCURVE",
"83 0 CURVE SMOOTH"
);
},
{
closed = 1;
nodes = (
"105 58 OFFCURVE",
"101 61 OFFCURVE",
"101 67 CURVE SMOOTH",
"107 247 LINE SMOOTH",
"107 258 OFFCURVE",
"111 258 OFFCURVE",
"116 258 CURVE SMOOTH",
"172 258 LINE",
"177 67 LINE SMOOTH",
"177 61 OFFCURVE",
"177 58 OFFCURVE",
"168 58 CURVE SMOOTH",
"110 58 LINE"
);
}
);
width = 283;
}
);
unicode = 0259;
},
{
glyphname = f;
layers = (
{
layerId = "DC66480E-7BB6-4652-B43C-57E9BA303B13";
paths = (
{
closed = 1;
nodes = (
"113 0 LINE",
"108 522 LINE",
"201 529 LINE",
"201 582 LINE",
"107 582 LINE",
"109 645 LINE",
"223 655 LINE",
"223 710 LINE",
"85 710 LINE SMOOTH",
"59 710 OFFCURVE",
"42 692 OFFCURVE",
"42 661 CURVE SMOOTH",
"43 582 LINE",
"3 582 LINE",
"3 522 LINE",
"44 522 LINE",
"42 0 LINE"
);
}
);
width = 193;
}
);
unicode = 0066;
},
{
glyphname = g;
layers = (
{
anchors = (
{
name = bottom;
position = "{146, -100}";
},
{
name = top;
position = "{141, 582}";
}
);
layerId = "DC66480E-7BB6-4652-B43C-57E9BA303B13";
paths = (
{
closed = 1;
nodes = (
"227 -129 LINE SMOOTH",
"260 -129 OFFCURVE",
"272 -96 OFFCURVE",
"271 -58 CURVE SMOOTH",
"267 36 LINE",
"234 82 LINE",
"116 82 LINE",
"116 148 LINE",
"204 150 LINE",
"244 198 LINE",
"240 561 LINE",
"250 635 LINE",
"209 635 LINE",
"186 582 LINE",
"97 582 LINE SMOOTH",
"69 582 OFFCURVE",
"40 565 OFFCURVE",
"41 536 CURVE SMOOTH",
"45 174 LINE",
"67 149 LINE",
"67 82 LINE",
"67 82 OFFCURVE",
"22 80 OFFCURVE",
"21 40 CURVE SMOOTH",
"17 -84 LINE",
"71 -129 LINE"
);
},
{
closed = 1;
nodes = (
"81 -71 LINE",
"83 25 LINE SMOOTH",
"83 30 OFFCURVE",
"87 32 OFFCURVE",
"91 32 CURVE SMOOTH",
"192 27 LINE SMOOTH",
"198 27 OFFCURVE",
"201 22 OFFCURVE",
"201 18 CURVE SMOOTH",
"206 -63 LINE SMOOTH",
"206 -68 OFFCURVE",
"204 -72 OFFCURVE",
"198 -72 CURVE SMOOTH"
);
},
{
closed = 1;
nodes = (
"111 204 LINE SMOOTH",
"107 204 OFFCURVE",
"104 207 OFFCURVE",
"104 211 CURVE SMOOTH",
"104 514 LINE SMOOTH",
"104 518 OFFCURVE",
"107 520 OFFCURVE",
"109 520 CURVE SMOOTH",
"173 528 LINE SMOOTH",
"178 529 OFFCURVE",
"180 527 OFFCURVE",
"180 523 CURVE SMOOTH",
"179 202 LINE"
);
}
);
width = 282;
}
);
leftKerningGroup = g;
unicode = 0067;
},
{
glyphname = h;
layers = (
{
anchors = (
{
name = bottom;
position = "{151, 0}";
},
{
name = top;
position = "{79, 710}";
}
);
layerId = "DC66480E-7BB6-4652-B43C-57E9BA303B13";
paths = (
{
closed = 1;
nodes = (
"176 -3 OFFCURVE",
"263 0 OFFCURVE",
"263 0 CURVE",
"263 37 LINE",
"248 54 LINE",
"248 554 LINE",
"208 582 LINE",
"111 582 LINE",
"113 722 LINE",
"70 722 LINE",
"45 706 LINE",
"51 0 LINE",
"117 0 LINE",
"110 521 LINE",
"178 522 LINE SMOOTH",
"187 522 OFFCURVE",
"187 519 OFFCURVE",
"187 513 CURVE",
"176 -3 LINE"
);
}
);
width = 293;
}
);
unicode = 0068;
},
{
glyphname = i;
layers = (
{
background = {
paths = (
{
closed = 1;
nodes = (
"125 -24 LINE",
"126 21 LINE",
"112 51 LINE",
"120 582 LINE",
"46 582 LINE",
"50 -24 LINE"
);
},
{
closed = 1;
nodes = (
"107 648 LINE",
"122 669 LINE",
"126 721 LINE",
"40 721 LINE",
"44 654 LINE",
"61 644 LINE"
);
}
);
};
components = (
{
name = idotless;
},
{
name = dotaccent;
transform = "{1, 0, 0, 1, 6, 0}";
}
);
layerId = "DC66480E-7BB6-4652-B43C-57E9BA303B13";
width = 163;
}
);
unicode = 0069;
},
{
glyphname = idotless;
layers = (
{
anchors = (
{
name = bottom;
position = "{88, 0}";
},
{
name = ogonek;
position = "{125, -24}";
},
{
name = top;
position = "{83, 582}";
}
);
layerId = "DC66480E-7BB6-4652-B43C-57E9BA303B13";
paths = (
{
closed = 1;
nodes = (
"125 -24 LINE",
"126 21 LINE",
"112 51 LINE",
"120 582 LINE",
"46 582 LINE",
"50 -24 LINE"
);
}
);
width = 163;
}
);
unicode = 0131;
},
{
glyphname = iogonek;
layers = (
{
components = (
{
name = i;
},
{
name = ogonekcomb;
transform = "{1, 0, 0, 1, -33, -24}";
}
);
layerId = "DC66480E-7BB6-4652-B43C-57E9BA303B13";
width = 163;
},
{
associatedMasterId = "DC66480E-7BB6-4652-B43C-57E9BA303B13";
components = (
{
name = i;
}
);
layerId = "25E8559E-8906-480C-AB83-975EC018EF4C";
name = "Apr 29 18, 15:18";
paths = (
{
closed = 1;
nodes = (
"239 -146 LINE",
"223 -100 LINE",
"134 -145 LINE",
"100 -83 LINE",
"125 -24 LINE",
"126 21 LINE",
"111 50 LINE",
"38 -95 LINE",
"126 -209 LINE"
);
}
);
width = 163;
}
);
unicode = 012F;
},
{
glyphname = j;
layers = (
{
background = {
paths = (
{
closed = 1;
nodes = (
"94 -81 LINE",
"114 17 LINE",
"126 582 LINE",
"47 582 LINE",
"50 -17 LINE",
"-20 -141 LINE",
"34 -178 LINE"
);
},
{
closed = 1;
nodes = (
"126 646 LINE",
"127 707 LINE",
"112 721 LINE",
"45 711 LINE",
"44 661 LINE",
"63 646 LINE"
);
}
);
};
components = (
{
name = jdotless;
},
{
name = dotaccentcomb;
transform = "{1, 0, 0, 1, 36, 0}";
}
);
layerId = "DC66480E-7BB6-4652-B43C-57E9BA303B13";
width = 168;
}
);
unicode = 006A;
},
{
glyphname = jdotless;
production = uni0237;
layers = (
{
anchors = (
{
name = bottom;
position = "{84, 0}";
},
{
name = top;
position = "{84, 582}";
}
);
layerId = "DC66480E-7BB6-4652-B43C-57E9BA303B13";
paths = (
{
closed = 1;
nodes = (
"94 -81 LINE",
"114 17 LINE",
"126 582 LINE",
"47 582 LINE",
"50 -17 LINE",
"-20 -141 LINE",
"34 -178 LINE"
);
}
);
width = 168;
}
);
unicode = 0237;
},
{
glyphname = k;
layers = (
{
anchors = (
{
name = bottom;
position = "{151, 0}";
},
{
name = top;
position = "{139, 582}";
}
);
layerId = "DC66480E-7BB6-4652-B43C-57E9BA303B13";
paths = (
{
closed = 1;
nodes = (
"116 0 LINE",
"116 267 LINE",
"125 274 LINE",
"177 233 LINE",
"177 0 LINE",
"243 0 LINE",
"233 274 LINE",
"177 306 LINE",
"216 333 LINE",
"251 581 LINE",
"180 581 LINE",
"172 353 LINE",
"127 324 LINE",
"106 336 LINE",
"106 721 LINE",
"42 721 LINE",
"61 0 LINE"
);
}
);
width = 273;
}
);
unicode = 006B;
},
{
glyphname = kgreenlandic;
layers = (
{
layerId = "DC66480E-7BB6-4652-B43C-57E9BA303B13";
paths = (
{
closed = 1;
nodes = (
"120 0 LINE",
"120 226 LINE",
"142 243 LINE",
"195 0 LINE",
"254 0 LINE",
"272 49 LINE",
"195 281 LINE",
"233 306 LINE",
"254 560 LINE",
"168 537 LINE",
"179 337 LINE",
"108 277 LINE",
"108 560 LINE",
"66 560 LINE",
"30 538 LINE",
"53 0 LINE"
);
}
);
width = 290;
}
);
unicode = 0138;
},
{
glyphname = l;
layers = (
{
anchors = (
{
name = bottom;
position = "{91, 0}";
},
{
name = center;
position = "{159, 381}";
},
{
name = top;
position = "{79, 710}";
},
{
name = topright;
position = "{139, 582}";
}
);
layerId = "DC66480E-7BB6-4652-B43C-57E9BA303B13";
paths = (
{
closed = 1;
nodes = (
"134 0 LINE",
"133 42 LINE",
"115 53 LINE",
"108 710 LINE",
"108 710 OFFCURVE",
"30 710 OFFCURVE",
"30 710 CURVE",
"30 676 LINE",
"51 655 LINE",
"45 0 LINE"
);
}
);
width = 159;
}
);
unicode = 006C;
},
{
glyphname = lslash;
layers = (
{
components = (
{
name = l;
transform = "{1, 0, 0, 1, 20, 0}";
}
);
layerId = "DC66480E-7BB6-4652-B43C-57E9BA303B13";
paths = (
{
closed = 1;
nodes = (
"214 409 LINE",
"185 453 LINE",
"-7 325 LINE",
"27 277 LINE"
);
}
);
width = 209;
}
);
unicode = 0142;
},
{
glyphname = m;
layers = (
{
layerId = "DC66480E-7BB6-4652-B43C-57E9BA303B13";
paths = (
{
closed = 1;
nodes = (
"387 -25 LINE",
"387 27 LINE",
"365 38 LINE",
"366 509 LINE SMOOTH",
"366 536 OFFCURVE",
"342 557 OFFCURVE",
"305 557 CURVE",
"273 557 OFFCURVE",
"246 556 OFFCURVE",
"227 553 CURVE",
"218 570 OFFCURVE",
"201 582 OFFCURVE",
"173 582 CURVE SMOOTH",
"101 582 OFFCURVE",
"42 582 OFFCURVE",
"42 582 CURVE",
"43 54 LINE",
"27 36 LINE",
"27 0 LINE",
"103 0 LINE",
"100 518 LINE SMOOTH",
"100 523 OFFCURVE",
"103 526 OFFCURVE",
"108 526 CURVE SMOOTH",
"166 522 LINE",
"175 521 OFFCURVE",
"175 519 OFFCURVE",
"175 516 CURVE SMOOTH",
"172 0 LINE",
"239 0 LINE",
"232 494 LINE",
"298 494 LINE",
"307 493 OFFCURVE",
"307 491 OFFCURVE",
"307 488 CURVE SMOOTH",
"303 -25 LINE"
);
}
);
width = 412;
}
);
unicode = 006D;
},
{
glyphname = n;
layers = (
{
anchors = (
{
name = bottom;
position = "{139, 0}";
},
{
name = top;
position = "{144, 582}";
}
);
layerId = "DC66480E-7BB6-4652-B43C-57E9BA303B13";
paths = (
{
closed = 1;
nodes = (
"103 0 LINE",
"109 522 LINE",
"168 522 LINE",
"177 521 OFFCURVE",
"177 519 OFFCURVE",
"177 516 CURVE SMOOTH",
"171 0 LINE",
"233 0 LINE",
"234 535 LINE SMOOTH",
"234 562 OFFCURVE",
"210 583 OFFCURVE",
"173 583 CURVE SMOOTH",
"102 583 OFFCURVE",
"70 578 OFFCURVE",
"45 562 CURVE",
"45 0 LINE"
);
}
);
width = 279;
}
);
unicode = 006E;
},
{
glyphname = eng;
layers = (
{
layerId = "DC66480E-7BB6-4652-B43C-57E9BA303B13";
paths = (
{
closed = 1;
nodes = (
"207 -108 LINE",
"233 29 LINE",
"234 535 LINE SMOOTH",
"234 562 OFFCURVE",
"210 583 OFFCURVE",
"173 583 CURVE SMOOTH",
"102 583 OFFCURVE",
"70 578 OFFCURVE",
"45 562 CURVE",
"45 0 LINE",
"103 0 LINE",
"109 522 LINE",
"168 522 LINE",
"177 521 OFFCURVE",
"177 519 OFFCURVE",
"177 516 CURVE SMOOTH",
"171 -49 LINE",
"76 -73 LINE",
"91 -149 LINE"
);
}
);
width = 279;
}
);
unicode = 014B;
},
{
glyphname = nhookleft;
layers = (
{
layerId = "DC66480E-7BB6-4652-B43C-57E9BA303B13";
paths = (
{
closed = 1;
nodes = (
"80 -108 LINE",
"103 29 LINE",
"109 522 LINE",
"168 522 LINE",
"177 521 OFFCURVE",
"177 519 OFFCURVE",
"177 516 CURVE SMOOTH",
"171 0 LINE",
"233 0 LINE",
"234 535 LINE SMOOTH",
"234 562 OFFCURVE",
"210 583 OFFCURVE",
"173 583 CURVE SMOOTH",
"102 583 OFFCURVE",
"70 578 OFFCURVE",
"45 562 CURVE",
"44 -49 LINE",
"-41 -73 LINE",
"-26 -149 LINE"
);
}
);
width = 279;
}
);
unicode = 0272;
},
{
glyphname = o;
layers = (
{
anchors = (
{
name = bottom;
position = "{150, 0}";
},
{
name = center;
position = "{149, 291}";
},
{
name = ogonek;
position = "{178, 0}";
},
{
name = top;
position = "{155, 582}";
},
{
name = topright;
position = "{213, 582}";
}
);
layerId = "DC66480E-7BB6-4652-B43C-57E9BA303B13";
paths = (
{
closed = 1;
nodes = (
"190 0 LINE",
"253 36 LINE",
"253 554 LINE",
"213 582 LINE",
"88 582 LINE",
"45 550 LINE",
"45 42 LINE",
"104 0 LINE"
);
},
{
closed = 1;
nodes = (
"112 63 OFFCURVE",
"112 65 OFFCURVE",
"112 69 CURVE SMOOTH",
"112 521 LINE SMOOTH",
"112 527 OFFCURVE",
"116 530 OFFCURVE",
"121 530 CURVE SMOOTH",
"183 530 LINE SMOOTH",
"192 530 OFFCURVE",
"192 527 OFFCURVE",
"192 521 CURVE",
"182 69 LINE SMOOTH",
"182 65 OFFCURVE",
"182 63 OFFCURVE",
"173 63 CURVE SMOOTH",
"121 63 LINE SMOOTH"
);
}
);
width = 298;
}
);
leftKerningGroup = o;
unicode = 006F;
},
{
glyphname = oslash;
layers = (
{
anchors = (
{
name = bottom;
position = "{148, 0}";
},
{
name = top;
position = "{151, 582}";
}
);
layerId = "DC66480E-7BB6-4652-B43C-57E9BA303B13";
paths = (
{
closed = 1;
nodes = (
"80.658 0.399 LINE",
"190 0 LINE",
"253 36 LINE",
"253 552.86 LINE",
"278 633 LINE",
"241 649 LINE",
"219.384 582 LINE",
"88 582 LINE",
"45 550 LINE",
"45 42 LINE",
"17 -46 LINE",
"61 -63 LINE"
);
},
{
closed = 1;
nodes = (
"112 63 OFFCURVE",
"112 65 OFFCURVE",
"112 69 CURVE SMOOTH",
"112 100.869 LINE",
"188.102 344.823 LINE",
"182 69 LINE SMOOTH",
"182 65 OFFCURVE",
"182 63 OFFCURVE",
"173 63 CURVE SMOOTH",
"121 63 LINE SMOOTH"
);
},
{
closed = 1;
nodes = (
"112 521 LINE",
"112 527 OFFCURVE",
"116 530 OFFCURVE",
"121 530 CURVE SMOOTH",
"183 530 LINE SMOOTH",
"192 530 OFFCURVE",
"192 527 OFFCURVE",
"192 521 CURVE SMOOTH",
"191.433 495.364 LINE",
"112 249.158 LINE"
);
}
);
width = 298;
}
);
leftKerningGroup = o;
unicode = 00F8;
},
{
glyphname = oe;
layers = (
{
layerId = "DC66480E-7BB6-4652-B43C-57E9BA303B13";
paths = (
{
closed = 1;
nodes = (
"388 0 LINE",
"388 122 LINE",
"345 122 LINE",
"328 56 LINE",
"269 57 LINE SMOOTH",
"263 57 OFFCURVE",
"261 61 OFFCURVE",
"261 65 CURVE SMOOTH",
"262 263 LINE",
"350 258 LINE",
"391 290 LINE",
"391 531 LINE SMOOTH",
"391 556 OFFCURVE",
"374 582 OFFCURVE",
"348 582 CURVE SMOOTH",
"88 582 LINE",
"45 550 LINE",
"45 42 LINE",
"104 0 LINE"
);
},
{
closed = 1;
nodes = (
"112 63 OFFCURVE",
"112 65 OFFCURVE",
"112 69 CURVE SMOOTH",
"112 521 LINE SMOOTH",
"112 527 OFFCURVE",
"116 530 OFFCURVE",
"121 530 CURVE SMOOTH",
"183 530 LINE SMOOTH",
"192 530 OFFCURVE",
"192 527 OFFCURVE",
"192 521 CURVE SMOOTH",
"182 69 LINE SMOOTH",
"182 65 OFFCURVE",
"182 63 OFFCURVE",
"173 63 CURVE SMOOTH",
"121 63 LINE SMOOTH"
);
},
{
closed = 1;
nodes = (
"254 515 LINE",
"254 521 OFFCURVE",
"254 524 OFFCURVE",
"263 524 CURVE SMOOTH",
"321 524 LINE SMOOTH",
"326 524 OFFCURVE",
"330 521 OFFCURVE",
"330 515 CURVE SMOOTH",
"324 329 LINE SMOOTH",
"324 318 OFFCURVE",
"320 318 OFFCURVE",
"315 318 CURVE SMOOTH",
"259 318 LINE"
);
}
);
width = 431;
}
);
leftKerningGroup = o;
unicode = 0153;
},
{
glyphname = p;
layers = (
{
layerId = "DC66480E-7BB6-4652-B43C-57E9BA303B13";
paths = (
{
closed = 1;
nodes = (
"104 -129 LINE",
"109 1 LINE",
"126 -1 OFFCURVE",
"148 -3 OFFCURVE",
"175 -3 CURVE SMOOTH",
"212 -3 OFFCURVE",
"241 18 OFFCURVE",
"241 45 CURVE SMOOTH",
"237 526 LINE SMOOTH",
"237 558 OFFCURVE",
"224 582 OFFCURVE",
"190 582 CURVE",
"46 582 LINE",
"46 582 OFFCURVE",
"45 -129 OFFCURVE",
"45 -129 CURVE"
);
},
{
closed = 1;
nodes = (
"106 61 LINE",
"115 525 LINE",
"124 531 LINE",
"170 528 LINE SMOOTH",
"179 527 OFFCURVE",
"179 525 OFFCURVE",
"179 522 CURVE SMOOTH",
"173 64 LINE",
"164 55 LINE"
);
}
);
width = 286;
}
);
unicode = 0070;
},
{
glyphname = thorn;
layers = (
{
layerId = "DC66480E-7BB6-4652-B43C-57E9BA303B13";
paths = (
{
closed = 1;
nodes = (
"98 -130 LINE",
"98 126 LINE",
"151 126 LINE SMOOTH",
"244 126 OFFCURVE",
"254 187 OFFCURVE",
"254 199 CURVE SMOOTH",
"254 421 LINE SMOOTH",
"254 448 OFFCURVE",
"215 470 OFFCURVE",
"164 470 CURVE",
"101 470 LINE",
"91 710 LINE",
"40 710 LINE",
"40 -130 LINE"
);
},
{
closed = 1;
nodes = (
"117 177 OFFCURVE",
"112 182 OFFCURVE",
"112 185 CURVE",
"112 410 LINE SMOOTH",
"112 415 OFFCURVE",
"116 417 OFFCURVE",
"124 417 CURVE SMOOTH",
"141 417 LINE SMOOTH",
"172 417 OFFCURVE",
"182 400 OFFCURVE",
"183 385 CURVE",
"173 193 LINE SMOOTH",
"173 189 OFFCURVE",
"171 187 OFFCURVE",
"167 187 CURVE",
"124 177 LINE"
);
}
);
width = 286;
}
);
unicode = 00FE;
},
{
glyphname = q;
layers = (
{
layerId = "DC66480E-7BB6-4652-B43C-57E9BA303B13";
paths = (
{
closed = 1;
nodes = (
"251 -129 LINE",
"246 582 LINE",
"98 582 LINE SMOOTH",
"58 582 OFFCURVE",
"47 570 OFFCURVE",
"47 546 CURVE SMOOTH",
"45 54 LINE SMOOTH",
"45 19 OFFCURVE",
"63 0 OFFCURVE",
"87 0 CURVE SMOOTH",
"180 0 LINE",
"186 -129 LINE"
);
},
{
closed = 1;
nodes = (
"115 62 OFFCURVE",
"115 64 OFFCURVE",
"115 68 CURVE",
"105 510 LINE",
"105 516 OFFCURVE",
"105 519 OFFCURVE",
"114 519 CURVE SMOOTH",
"169 519 LINE SMOOTH",
"174 519 OFFCURVE",
"178 516 OFFCURVE",
"178 510 CURVE SMOOTH",
"178 68 LINE SMOOTH",
"178 64 OFFCURVE",
"178 62 OFFCURVE",
"169 62 CURVE SMOOTH",
"124 62 LINE SMOOTH"
);
}
);
width = 294;
}
);
leftKerningGroup = o;
unicode = 0071;
},
{
glyphname = r;
layers = (
{
anchors = (
{
name = bottom;
position = "{82, 0}";
},
{
name = top;
position = "{127, 582}";
}
);
layerId = "DC66480E-7BB6-4652-B43C-57E9BA303B13";
paths = (
{
closed = 1;
nodes = (
"111 0 LINE",
"109 527 LINE",
"152 522 LINE SMOOTH",
"161 521 OFFCURVE",
"161 519 OFFCURVE",
"161 516 CURVE SMOOTH",
"166 450 LINE",
"218 450 LINE",
"218 535 LINE SMOOTH",
"218 562 OFFCURVE",
"194 583 OFFCURVE",
"157 583 CURVE SMOOTH",
"86 583 OFFCURVE",
"67 579 OFFCURVE",
"45 574 CURVE",
"45 0 LINE"
);
}
);
width = 235;
}
);
rightKerningGroup = r;
unicode = 0072;
},
{
glyphname = s;
layers = (
{
anchors = (
{
name = bottom;
position = "{126, 0}";
},
{
name = top;
position = "{128, 582}";
}
);
layerId = "DC66480E-7BB6-4652-B43C-57E9BA303B13";
paths = (
{
closed = 1;
nodes = (
"157 0 LINE SMOOTH",
"181 0 OFFCURVE",
"210 26 OFFCURVE",
"210 49 CURVE SMOOTH",
"210 323 LINE",
"108 350 LINE",
"95 517 LINE",
"210 533 LINE",
"210 582 LINE",
"73 582 LINE SMOOTH",
"56 582 OFFCURVE",
"40 561 OFFCURVE",
"40 543 CURVE SMOOTH",
"40 300 LINE",
"132 275 LINE",
"152 64 LINE",
"40 64 LINE",
"40 0 LINE"
);
}
);
width = 246;
}
);
leftKerningGroup = s;
unicode = 0073;
},
{
glyphname = germandbls;
layers = (
{
layerId = "DC66480E-7BB6-4652-B43C-57E9BA303B13";
paths = (
{
closed = 1;
nodes = (
"126 -1 LINE",
"105 616 LINE",
"201 640 LINE",
"226 602 LINE",
"160 389 LINE",
"186 326 LINE",
"295 296 LINE",
"295 68 LINE",
"233 84 LINE",
"241 171 LINE",
"174 171 LINE",
"186 0 LINE",
"289 0 LINE SMOOTH",
"318 0 OFFCURVE",
"360 32 OFFCURVE",
"363 60 CURVE",
"363 365 LINE",
"228 379 LINE",
"227 384 LINE",
"330 601 LINE",
"218 710 LINE",
"145 710 LINE",
"44 640 LINE",
"44 -1 LINE"
);
}
);
width = 412;
}
);
unicode = 00DF;
},
{
glyphname = longs;
layers = (
{
layerId = "DC66480E-7BB6-4652-B43C-57E9BA303B13";
paths = (
{
closed = 1;
nodes = (
"126 -20 LINE",
"99 616 LINE",
"258 628 LINE",
"258 690 LINE",
"44 710 LINE",
"44 -20 LINE"
);
}
);
width = 292;
}
);
unicode = 017F;
},
{
glyphname = t;
layers = (
{
anchors = (
{
name = bottom;
position = "{140, 0}";
},
{
name = top;
position = "{134, 582}";
}
);
layerId = "DC66480E-7BB6-4652-B43C-57E9BA303B13";
paths = (
{
closed = 1;
nodes = (
"228 0 LINE",
"228 137 LINE",
"193 137 LINE",
"183 54 LINE",
"126 72 LINE",
"126 522 LINE",
"126 522 OFFCURVE",
"226 522 OFFCURVE",
"226 522 CURVE",
"226 582 LINE",
"128 582 LINE",
"128 710 LINE",
"80 710 LINE",
"63 581 LINE",
"20 558 LINE",
"20 528 LINE",
"63 528 LINE",
"56 49 LINE",
"56 49 OFFCURVE",
"99 0 OFFCURVE",
"99 0 CURVE"
);
}
);
width = 238;
}
);
rightKerningGroup = t;
unicode = 0074;
},
{
glyphname = tcaron;
layers = (
{
components = (
{
name = t;
}
);
layerId = "DC66480E-7BB6-4652-B43C-57E9BA303B13";
paths = (
{
closed = 1;
nodes = (
"213 612 LINE",
"271 687 LINE",
"265 783 LINE",
"179 779 LINE",
"211 687 LINE",
"160 612 LINE"
);
}
);
width = 257;
}
);
rightKerningGroup = t;
unicode = 0165;
},
{
glyphname = u;
layers = (
{
anchors = (
{
name = bottom;
position = "{153, 0}";
},
{
name = ogonek;
position = "{202, 0}";
},
{
name = top;
position = "{151, 582}";
},
{
name = topright;
position = "{233, 582}";
}
);
layerId = "DC66480E-7BB6-4652-B43C-57E9BA303B13";
paths = (
{
closed = 1;
nodes = (
"213 0 LINE",
"253 28 LINE",
"253 582 LINE",
"182 582 LINE",
"192 67 LINE SMOOTH",
"192 61 OFFCURVE",
"192 58 OFFCURVE",
"183 58 CURVE SMOOTH",
"121 58 LINE SMOOTH",
"116 58 OFFCURVE",
"112 61 OFFCURVE",
"112 67 CURVE SMOOTH",
"112 583 LINE",
"73 583 LINE",
"45 550 LINE",
"45 32 LINE",
"88 0 LINE"
);
}
);
width = 298;
}
);
leftKerningGroup = o;
unicode = 0075;
},
{
glyphname = v;
layers = (
{
layerId = "DC66480E-7BB6-4652-B43C-57E9BA303B13";
paths = (
{
closed = 1;
nodes = (
"159 -25 LINE",
"252 581 LINE",
"184 581 LINE",
"140 97 LINE",
"129 97 LINE",
"89 581 LINE",
"12 581 LINE",
"105 -25 LINE"
);
}
);
width = 262;
}
);
unicode = 0076;
},
{
glyphname = w;
layers = (
{
anchors = (
{
name = bottom;
position = "{183, 0}";
},
{
name = top;
position = "{183, 582}";
}
);
layerId = "DC66480E-7BB6-4652-B43C-57E9BA303B13";
paths = (
{
closed = 1;
nodes = (
"127 -25 LINE",
"186 359 LINE",
"245 -1 LINE",
"299 -1 LINE",
"362 605 LINE",
"285 605 LINE",
"275 121 LINE",
"264 121 LINE",
"216 473 LINE",
"156 473 LINE",
"108 97 LINE",
"97 97 LINE",
"87 581 LINE",
"10 581 LINE",
"73 -25 LINE"
);
}
);
width = 370;
}
);
rightKerningGroup = w;
unicode = 0077;
},
{
glyphname = x;
layers = (
{
layerId = "DC66480E-7BB6-4652-B43C-57E9BA303B13";
paths = (
{
closed = 1;
nodes = (
"83 0 LINE",
"115 262 LINE",
"131 271 LINE",
"192 0 LINE",
"273 0 LINE",
"179 294 LINE",
"200 306 LINE",
"258 607 LINE",
"189 607 LINE",
"156 331 LINE",
"139 321 LINE",
"93 582 LINE",
"12 582 LINE",
"97 302 LINE",
"67 285 LINE",
"14 0 LINE"
);
}
);
width = 276;
}
);
unicode = 0078;
},
{
glyphname = y;
layers = (
{
anchors = (
{
name = bottom;
position = "{209, 0}";
},
{
name = top;
position = "{132, 582}";
}
);
background = {
paths = (
{
closed = 1;
nodes = (
"-685 -129 LINE",
"-476 -129 LINE",
"-476 -92 LINE",
"-500 -74 LINE",
"-549 -74 LINE",
"-549 15 LINE",
"-458 581 LINE",
"-526 581 LINE",
"-570 137 LINE",
"-581 137 LINE",
"-621 581 LINE",
"-698 581 LINE",
"-607 15 LINE",
"-607 -74 LINE",
"-685 -74 LINE"
);
},
{
closed = 1;
nodes = (
"10 -149 LINE",
"137 -149 LINE",
"252 581 LINE",
"184 581 LINE",
"144 137 LINE",
"133 137 LINE",
"89 581 LINE",
"12 581 LINE",
"107 51 LINE",
"91 -100 LINE",
"58 -95 LINE",
"53 -48 LINE",
"-16 -67 LINE"
);
},
{
closed = 1;
nodes = (
"-256 -169 LINE",
"-241 -163 LINE",
"-237 -114 LINE",
"-239 15 LINE",
"-148 581 LINE",
"-216 581 LINE",
"-260 137 LINE",
"-271 137 LINE",
"-311 581 LINE",
"-388 581 LINE",
"-297 15 LINE",
"-306 -169 LINE"
);
}
);
};
layerId = "DC66480E-7BB6-4652-B43C-57E9BA303B13";
paths = (
{
closed = 1;
nodes = (
"136 -55 LINE",
"167 41 LINE",
"252 581 LINE",
"184 581 LINE",
"142 147 LINE",
"131 147 LINE",
"89 581 LINE",
"12 581 LINE",
"107 14 LINE",
"14 -131 LINE",
"68 -168 LINE"
);
}
);
width = 264;
}
);
rightKerningGroup = y;
unicode = 0079;
},
{
glyphname = z;
layers = (
{
anchors = (
{
name = bottom;
position = "{118, 0}";
},
{
name = top;
position = "{119, 582}";
}
);
layerId = "DC66480E-7BB6-4652-B43C-57E9BA303B13";
paths = (
{
closed = 1;
nodes = (
"210 0 LINE",
"210 53 LINE",
"98 69 LINE",
"214 557 LINE",
"189 582 LINE",
"29 582 LINE",
"30 527 LINE",
"137 514 LINE",
"23 48 LINE",
"46 0 LINE"
);
}
);
width = 237;
}
);
leftKerningGroup = z;
unicode = 007A;
},
{
glyphname = a.alt;
layers = (
{
anchors = (
{
name = bottom;
position = "{140, 0}";
},
{
name = ogonek;
position = "{233, 0}";
},
{
name = top;
position = "{136, 582}";
}
);
layerId = "DC66480E-7BB6-4652-B43C-57E9BA303B13";
paths = (
{
closed = 1;
nodes = (
"233 0 LINE",
"233 549 LINE",
"195 582 LINE",
"38 582 LINE",
"41 460 LINE",
"81 460 LINE",
"85 524 LINE",
"86 529 OFFCURVE",
"89 532 OFFCURVE",
"96 532 CURVE",
"157 525 LINE",
"163 525 OFFCURVE",
"165 521 OFFCURVE",
"165 517 CURVE",
"169 324 LINE",
"76 324 LINE",
"35 292 LINE",
"35 38 LINE",
"78 0 LINE"
);
},
{
closed = 1;
nodes = (
"106 58 OFFCURVE",
"102 61 OFFCURVE",
"102 67 CURVE",
"102 247 LINE",
"102 255 OFFCURVE",
"106 257 OFFCURVE",
"111 258 CURVE",
"167 271 LINE",
"172 67 LINE",
"172 61 OFFCURVE",
"172 58 OFFCURVE",
"163 58 CURVE",
"111 58 LINE"
);
}
);
width = 278;
}
);
leftKerningGroup = a.alt;
},
{
glyphname = ae.alt;
layers = (
{
anchors = (
{
name = bottom;
position = "{204, 0}";
},
{
name = top;
position = "{204, 582}";
}
);
layerId = "DC66480E-7BB6-4652-B43C-57E9BA303B13";
paths = (
{
closed = 1;
nodes = (
"356 0 LINE",
"356 57 LINE",
"259 57 LINE",
"247 63 LINE",
"241 259 LINE",
"330 256 LINE SMOOTH",
"362 255 OFFCURVE",
"367 279 OFFCURVE",
"367 299 CURVE SMOOTH",
"368 540 LINE",
"329 582 LINE",
"38 582 LINE",
"41 460 LINE",
"81 460 LINE",
"85 524 LINE",
"86 529 OFFCURVE",
"89 532 OFFCURVE",
"96 532 CURVE",
"157 525 LINE",
"163 525 OFFCURVE",
"165 521 OFFCURVE",
"165 517 CURVE SMOOTH",
"169 324 LINE",
"76 324 LINE",
"35 292 LINE",
"35 38 LINE",
"78 0 LINE"
);
},
{
closed = 1;
nodes = (
"106 58 OFFCURVE",
"102 61 OFFCURVE",
"102 67 CURVE SMOOTH",
"102 247 LINE SMOOTH",
"102 258 OFFCURVE",
"106 257 OFFCURVE",
"111 258 CURVE SMOOTH",
"167 271 LINE",
"172 67 LINE SMOOTH",
"172 61 OFFCURVE",
"172 58 OFFCURVE",
"163 58 CURVE SMOOTH",
"111 58 LINE SMOOTH"
);
},
{
closed = 1;
nodes = (
"233 516 LINE",
"238 524 LINE",
"297 522 LINE",
"306 521 OFFCURVE",
"306 519 OFFCURVE",
"306 516 CURVE SMOOTH",
"302 320 LINE",
"297 314 LINE",
"243 308 LINE"
);
}
);
width = 408;
}
);
leftKerningGroup = a.alt;
},
{
glyphname = b.alt;
layers = (
{
layerId = "DC66480E-7BB6-4652-B43C-57E9BA303B13";
paths = (
{
closed = 1;
nodes = (
"180 0 LINE",
"243 36 LINE",
"243 554 LINE",
"203 582 LINE",
"110 582 LINE",
"111 710 LINE",
"30 710 LINE",
"30 675 LINE",
"45 662 LINE",
"45 42 LINE",
"104 0 LINE"
);
},
{
closed = 1;
nodes = (
"116 63 OFFCURVE",
"112 66 OFFCURVE",
"112 72 CURVE SMOOTH",
"112 524 LINE SMOOTH",
"112 528 OFFCURVE",
"112 530 OFFCURVE",
"121 530 CURVE SMOOTH",
"163 530 LINE SMOOTH",
"172 530 OFFCURVE",
"172 528 OFFCURVE",
"172 524 CURVE SMOOTH",
"182 72 LINE",
"182 66 OFFCURVE",
"182 63 OFFCURVE",
"173 63 CURVE SMOOTH",
"121 63 LINE SMOOTH"
);
}
);
width = 288;
}
);
},
{
glyphname = c.alt;
layers = (
{
anchors = (
{
name = bottom;
position = "{137, 0}";
},
{
name = top;
position = "{140, 582}";
}
);
layerId = "DC66480E-7BB6-4652-B43C-57E9BA303B13";
paths = (
{
closed = 1;
nodes = (
"227 0 LINE",
"227 122 LINE",
"184 122 LINE",
"181 60 LINE SMOOTH",
"180 55 OFFCURVE",
"179 51 OFFCURVE",
"173 51 CURVE SMOOTH",
"121 57 LINE SMOOTH",
"115 57 OFFCURVE",
"113 61 OFFCURVE",
"113 65 CURVE SMOOTH",
"103 515 LINE SMOOTH",
"103 521 OFFCURVE",
"103 524 OFFCURVE",
"112 524 CURVE SMOOTH",
"160 524 LINE SMOOTH",
"166 524 OFFCURVE",
"168 521 OFFCURVE",
"169 517 CURVE SMOOTH",
"180 463 LINE",
"221 463 LINE",
"224 582 LINE",
"96 582 LINE SMOOTH",
"65 582 OFFCURVE",
"45 572 OFFCURVE",
"45 540 CURVE SMOOTH",
"45 36 LINE SMOOTH",
"45 13 OFFCURVE",
"65 0 OFFCURVE",
"96 0 CURVE SMOOTH"
);
}
);
width = 257;
}
);
leftKerningGroup = o.alt;
},
{
glyphname = d.alt;
layers = (
{
anchors = (
{
name = bottom;
position = "{156, 0}";
},
{
name = top;
position = "{141, 582}";
}
);
layerId = "DC66480E-7BB6-4652-B43C-57E9BA303B13";
paths = (
{
closed = 1;
nodes = (
"273 0 LINE",
"273 42 LINE",
"245 62 LINE",
"251 721 LINE",
"179 721 LINE",
"180 582 LINE",
"87 582 LINE",
"45 528 LINE",
"47 36 LINE",
"98 0 LINE"
);
},
{
closed = 1;
nodes = (
"108 63 OFFCURVE",
"108 66 OFFCURVE",
"108 72 CURVE",
"118 514 LINE SMOOTH",
"118 518 OFFCURVE",
"118 520 OFFCURVE",
"127 520 CURVE SMOOTH",
"169 520 LINE SMOOTH",
"178 520 OFFCURVE",
"178 518 OFFCURVE",
"178 514 CURVE SMOOTH",
"178 72 LINE SMOOTH",
"178 66 OFFCURVE",
"174 63 OFFCURVE",
"169 63 CURVE SMOOTH",
"117 63 LINE SMOOTH"
);
}
);
width = 301;
}
);
leftKerningGroup = o.alt;
},
{
glyphname = eth.alt;
layers = (
{
components = (
{
name = baraccent;
transform = "{0.9925, 0.1219, -0.1219, 0.9925, 89, 274}";
}
);
layerId = "DC66480E-7BB6-4652-B43C-57E9BA303B13";
paths = (
{
closed = 1;
nodes = (
"166 0 LINE SMOOTH",
"222 0 OFFCURVE",
"240 17 OFFCURVE",
"240 56 CURVE SMOOTH",
"246 532 LINE SMOOTH",
"246 566 OFFCURVE",
"221 669 OFFCURVE",
"209 721 CURVE",
"139 721 LINE",
"176 585 LINE",
"108 585 OFFCURVE",
"70 577 OFFCURVE",
"45 561 CURVE",
"45 0 LINE"
);
},
{
closed = 1;
nodes = (
"109 60 LINE",
"112 521 LINE",
"121 527 LINE",
"175 524 LINE",
"184 523 OFFCURVE",
"184 521 OFFCURVE",
"184 518 CURVE SMOOTH",
"178 57 LINE",
"118 51 LINE"
);
}
);
width = 292;
}
);
},
{
glyphname = e.alt;
layers = (
{
anchors = (
{
name = bottom;
position = "{153, 0}";
},
{
name = ogonek;
position = "{229, 0}";
},
{
name = top;
position = "{148, 582}";
}
);
layerId = "DC66480E-7BB6-4652-B43C-57E9BA303B13";
paths = (
{
closed = 1;
nodes = (
"229 0 LINE",
"229 57 LINE",
"132 57 LINE",
"120 63 LINE",
"114 259 LINE",
"203 256 LINE SMOOTH",
"235 255 OFFCURVE",
"240 279 OFFCURVE",
"240 299 CURVE SMOOTH",
"241 540 LINE",
"241 540 OFFCURVE",
"202 582 OFFCURVE",
"202 582 CURVE",
"84 582 LINE",
"48 540 LINE",
"45 45 LINE",
"45 45 OFFCURVE",
"83 0 OFFCURVE",
"83 0 CURVE"
);
},
{
closed = 1;
nodes = (
"106 516 LINE",
"111 524 LINE",
"170 522 LINE",
"179 521 OFFCURVE",
"179 519 OFFCURVE",
"179 516 CURVE SMOOTH",
"175 320 LINE",
"170 314 LINE",
"116 308 LINE"
);
}
);
width = 281;
}
);
leftKerningGroup = o.alt;
},
{
glyphname = schwa.alt;
layers = (
{
layerId = "DC66480E-7BB6-4652-B43C-57E9BA303B13";
paths = (
{
closed = 1;
nodes = (
"197 0 LINE",
"233 42 LINE",
"236 537 LINE",
"236 537 OFFCURVE",
"198 582 OFFCURVE",
"198 582 CURVE",
"52 582 LINE",
"52 525 LINE",
"149 525 LINE",
"161 519 LINE",
"167 317 LINE",
"78 320 LINE SMOOTH",
"46 321 OFFCURVE",
"41 297 OFFCURVE",
"41 277 CURVE SMOOTH",
"40 42 LINE",
"40 42 OFFCURVE",
"79 0 OFFCURVE",
"79 0 CURVE"
);
},
{
closed = 1;
nodes = (
"111 60 LINE",
"102 61 OFFCURVE",
"102 63 OFFCURVE",
"102 66 CURVE SMOOTH",
"106 256 LINE",
"111 262 LINE",
"165 268 LINE",
"175 66 LINE",
"170 58 LINE"
);
}
);
width = 281;
}
);
},
{
glyphname = f.alt;
layers = (
{
layerId = "DC66480E-7BB6-4652-B43C-57E9BA303B13";
paths = (
{
closed = 1;
nodes = (
"81 -129 LINE",
"124 -80 LINE",
"109 522 LINE",
"201 522 LINE",
"201 583 LINE",
"108 583 LINE",
"108 637 LINE SMOOTH",
"108 642 OFFCURVE",
"110 646 OFFCURVE",
"114 646 CURVE SMOOTH",
"223 655 LINE",
"223 710 LINE",
"85 710 LINE",
"42 661 LINE",
"43 583 LINE",
"3 565 LINE",
"3 522 LINE",
"44 522 LINE",
"52 -56 LINE SMOOTH",
"52 -61 OFFCURVE",
"50 -65 OFFCURVE",
"46 -65 CURVE SMOOTH",
"-57 -74 LINE",
"-57 -129 LINE"
);
}
);
width = 185;
}
);
},
{
glyphname = g.alt;
layers = (
{
anchors = (
{
name = bottom;
position = "{142, -100}";
},
{
name = top;
position = "{155, 582}";
}
);
layerId = "DC66480E-7BB6-4652-B43C-57E9BA303B13";
paths = (
{
closed = 1;
nodes = (
"211 -129 LINE SMOOTH",
"242 -129 OFFCURVE",
"265 -113 OFFCURVE",
"266 -80 CURVE SMOOTH",
"269 39 LINE SMOOTH",
"269 56 OFFCURVE",
"261 82 OFFCURVE",
"227 82 CURVE SMOOTH",
"118 82 LINE",
"118 135 LINE SMOOTH",
"118 146 OFFCURVE",
"124 148 OFFCURVE",
"135 148 CURVE SMOOTH",
"202 148 LINE SMOOTH",
"233 148 OFFCURVE",
"239 171 OFFCURVE",
"239 194 CURVE SMOOTH",
"234 528 LINE",
"282 542 LINE",
"282 582 LINE",
"106 582 LINE SMOOTH",
"72 582 OFFCURVE",
"46 558 OFFCURVE",
"46 536 CURVE SMOOTH",
"45 191 LINE SMOOTH",
"45 158 OFFCURVE",
"68 153 OFFCURVE",
"68 153 CURVE",
"68 82 LINE",
"57 82 OFFCURVE",
"26 76 OFFCURVE",
"24 51 CURVE SMOOTH",
"14 -79 LINE SMOOTH",
"14 -103 OFFCURVE",
"36 -129 OFFCURVE",
"67 -129 CURVE SMOOTH"
);
},
{
closed = 1;
nodes = (
"81 -75 OFFCURVE",
"79 -66 OFFCURVE",
"79 -60 CURVE SMOOTH",
"80 26 LINE SMOOTH",
"80 30 OFFCURVE",
"85 33 OFFCURVE",
"88 33 CURVE SMOOTH",
"199 24 LINE SMOOTH",
"206 23 OFFCURVE",
"210 17 OFFCURVE",
"210 10 CURVE SMOOTH",
"204 -56 LINE SMOOTH",
"204 -64 OFFCURVE",
"199 -72 OFFCURVE",
"192 -72 CURVE SMOOTH",
"89 -75 LINE SMOOTH"
);
},
{
closed = 1;
nodes = (
"107 201 OFFCURVE",
"105 210 OFFCURVE",
"105 216 CURVE SMOOTH",
"115 517 LINE SMOOTH",
"115 521 OFFCURVE",
"120 524 OFFCURVE",
"123 524 CURVE SMOOTH",
"169 527 LINE SMOOTH",
"176 527 OFFCURVE",
"180 520 OFFCURVE",
"180 513 CURVE SMOOTH",
"171 219 LINE SMOOTH",
"171 211 OFFCURVE",
"166 203 OFFCURVE",
"159 203 CURVE SMOOTH",
"115 201 LINE SMOOTH"
);
}
);
width = 291;
}
);
leftKerningGroup = g.alt;
},
{
glyphname = h.alt;
layers = (
{
anchors = (
{
name = bottom;
position = "{151, 0}";
},
{
name = top;
position = "{68, 706}";
}
);
layerId = "DC66480E-7BB6-4652-B43C-57E9BA303B13";
paths = (
{
closed = 1;
nodes = (
"93 0 LINE",
"116 12 LINE",
"112 500 LINE",
"117 508 LINE",
"176 506 LINE SMOOTH",
"183 506 OFFCURVE",
"185 503 OFFCURVE",
"185 500 CURVE SMOOTH",
"179 0 LINE",
"258 0 LINE",
"247 535 LINE SMOOTH",
"246 562 OFFCURVE",
"218 582 OFFCURVE",
"181 582 CURVE",
"181 582 OFFCURVE",
"108 567 OFFCURVE",
"108 567 CURVE",
"108 567 OFFCURVE",
"108 710 OFFCURVE",
"108 710 CURVE",
"108 710 OFFCURVE",
"30 710 OFFCURVE",
"30 710 CURVE",
"30 678 LINE",
"48 647 LINE",
"45 0 LINE"
);
}
);
width = 292;
}
);
},
{
glyphname = idotless.alt;
layers = (
{
anchors = (
{
name = bottom;
position = "{91, 0}";
},
{
name = ogonek;
position = "{120, 0}";
},
{
name = top;
position = "{81, 582}";
}
);
layerId = "DC66480E-7BB6-4652-B43C-57E9BA303B13";
paths = (
{
closed = 1;
nodes = (
"129 0 LINE",
"113 582 LINE",
"50 582 LINE",
"50 0 LINE"
);
}
);
width = 167;
}
);
},
{
glyphname = jdotless.alt;
layers = (
{
anchors = (
{
name = bottom;
position = "{84, 0}";
},
{
name = top;
position = "{78, 582}";
}
);
layerId = "DC66480E-7BB6-4652-B43C-57E9BA303B13";
paths = (
{
closed = 1;
nodes = (
"81 -129 LINE",
"124 -80 LINE",
"113 582 LINE",
"39 582 LINE",
"39 541 LINE",
"52 516 LINE",
"52 -56 LINE SMOOTH",
"52 -61 OFFCURVE",
"50 -65 OFFCURVE",
"46 -65 CURVE SMOOTH",
"-57 -74 LINE",
"-57 -129 LINE"
);
}
);
width = 167;
}
);
},
{
glyphname = k.alt;
layers = (
{
anchors = (
{
name = bottom;
position = "{151, 0}";
},
{
name = top;
position = "{139, 582}";
}
);
layerId = "DC66480E-7BB6-4652-B43C-57E9BA303B13";
paths = (
{
closed = 1;
nodes = (
"117 0 LINE",
"117 255 LINE",
"142 277 LINE",
"205 0 LINE",
"263 0 LINE",
"278 17 LINE",
"184 304 LINE",
"205 322 LINE",
"244 582 LINE",
"175 582 LINE",
"160 357 LINE",
"107 308 LINE",
"107 721 LINE",
"45 721 LINE",
"56 0 LINE"
);
}
);
width = 274;
}
);
},
{
glyphname = kgreenlandic.alt;
layers = (
{
layerId = "DC66480E-7BB6-4652-B43C-57E9BA303B13";
paths = (
{
closed = 1;
nodes = (
"116 0 LINE",
"116 267 LINE",
"125 274 LINE",
"177 233 LINE",
"177 0 LINE",
"243 0 LINE",
"233 274 LINE",
"177 306 LINE",
"216 333 LINE",
"251 581 LINE",
"180 581 LINE",
"172 353 LINE",
"127 324 LINE",
"106 336 LINE",
"106 582 LINE",
"42 582 LINE",
"61 0 LINE"
);
}
);
width = 273;
}
);
},
{
glyphname = l.alt;
layers = (
{
anchors = (
{
name = bottom;
position = "{96, 0}";
},
{
name = center;
position = "{162, 381}";
},
{
name = top;
position = "{79, 710}";
},
{
name = topright;
position = "{140, 582}";
}
);
layerId = "DC66480E-7BB6-4652-B43C-57E9BA303B13";
paths = (
{
closed = 1;
nodes = (
"143 -25 LINE",
"144 20 LINE",
"111 33 LINE",
"119 721 LINE",
"45 721 LINE",
"49 -25 LINE"
);
}
);
width = 160;
}
);
},
{
glyphname = lslash.alt;
layers = (
{
components = (
{
name = l.alt;
transform = "{1, 0, 0, 1, 22, 0}";
}
);
layerId = "DC66480E-7BB6-4652-B43C-57E9BA303B13";
paths = (
{
closed = 1;
nodes = (
"214 409 LINE",
"185 453 LINE",
"-7 325 LINE",
"27 277 LINE"
);
}
);
width = 209;
}
);
},
{
glyphname = m.alt;
layers = (
{
layerId = "DC66480E-7BB6-4652-B43C-57E9BA303B13";
paths = (
{
closed = 1;
nodes = (
"115 0 LINE",
"116 522 LINE",
"176 515 LINE SMOOTH",
"185 514 OFFCURVE",
"185 512 OFFCURVE",
"185 506 CURVE SMOOTH",
"180 0 LINE",
"225 0 LINE",
"252 13 LINE",
"246 520 LINE SMOOTH",
"246 520 OFFCURVE",
"306 522 OFFCURVE",
"306 522 CURVE SMOOTH",
"315 522 OFFCURVE",
"315 512 OFFCURVE",
"315 512 CURVE",
"315 0 LINE",
"385 1 LINE",
"377 553 LINE",
"337 582 LINE",
"28 582 LINE",
"28 546 LINE",
"49 522 LINE",
"41 0 LINE"
);
}
);
width = 430;
}
);
},
{
glyphname = n.alt;
layers = (
{
anchors = (
{
name = bottom;
position = "{143, 0}";
},
{
name = top;
position = "{146, 582}";
}
);
layerId = "DC66480E-7BB6-4652-B43C-57E9BA303B13";
paths = (
{
closed = 1;
nodes = (
"115 0 LINE",
"116 520 LINE",
"176 522 LINE SMOOTH",
"185 522 OFFCURVE",
"185 519 OFFCURVE",
"185 513 CURVE",
"174 22 LINE",
"174 22 OFFCURVE",
"186 0 OFFCURVE",
"200 0 CURVE SMOOTH",
"221 0 OFFCURVE",
"246 0 OFFCURVE",
"246 0 CURVE",
"246 554 LINE",
"206 582 LINE",
"28 582 LINE",
"28 534 LINE",
"49 522 LINE",
"49 0 LINE"
);
}
);
width = 291;
}
);
},
{
glyphname = eng.alt;
layers = (
{
layerId = "DC66480E-7BB6-4652-B43C-57E9BA303B13";
paths = (
{
closed = 1;
nodes = (
"205 -119 LINE",
"248 -70 LINE",
"248 554 LINE",
"208 582 LINE",
"30 582 LINE",
"30 534 LINE",
"51 522 LINE",
"51 0 LINE",
"117 0 LINE",
"118 520 LINE",
"178 522 LINE SMOOTH",
"187 522 OFFCURVE",
"187 519 OFFCURVE",
"187 513 CURVE SMOOTH",
"181 -46 LINE SMOOTH",
"181 -51 OFFCURVE",
"179 -55 OFFCURVE",
"175 -55 CURVE",
"102 -64 LINE",
"102 -119 LINE"
);
}
);
width = 293;
}
);
},
{
glyphname = nhookleft.alt;
layers = (
{
layerId = "DC66480E-7BB6-4652-B43C-57E9BA303B13";
paths = (
{
closed = 1;
nodes = (
"73 -119 LINE",
"116 -70 LINE",
"116 520 LINE",
"176 522 LINE SMOOTH",
"185 522 OFFCURVE",
"185 519 OFFCURVE",
"185 513 CURVE SMOOTH",
"174 22 LINE",
"174 22 OFFCURVE",
"186 0 OFFCURVE",
"200 0 CURVE SMOOTH",
"246 0 LINE",
"246 554 LINE",
"206 582 LINE",
"28 582 LINE",
"28 534 LINE",
"49 522 LINE",
"48 -46 LINE SMOOTH",
"48 -51 OFFCURVE",
"46 -54 OFFCURVE",
"42 -55 CURVE",
"-28 -64 LINE",
"-28 -119 LINE"
);
}
);
width = 291;
}
);
},
{
glyphname = o.alt;
layers = (
{
anchors = (
{
name = bottom;
position = "{145, 0}";
},
{
name = center;
position = "{145, 291}";
},
{
name = ogonek;
position = "{182, 0}";
},
{
name = top;
position = "{148, 582}";
},
{
name = topright;
position = "{210, 585}";
}
);
layerId = "DC66480E-7BB6-4652-B43C-57E9BA303B13";
paths = (
{
closed = 1;
nodes = (
"239 0 LINE",
"246 537 LINE SMOOTH",
"246 564 OFFCURVE",
"217 585 OFFCURVE",
"180 585 CURVE SMOOTH",
"109 585 OFFCURVE",
"70 577 OFFCURVE",
"45 561 CURVE",
"45 56 LINE SMOOTH",
"45 17 OFFCURVE",
"65 0 OFFCURVE",
"121 0 CURVE"
);
},
{
closed = 1;
nodes = (
"106 57 LINE",
"112 521 LINE",
"121 527 LINE",
"175 524 LINE",
"184 523 OFFCURVE",
"184 521 OFFCURVE",
"184 518 CURVE SMOOTH",
"178 60 LINE",
"169 51 LINE"
);
}
);
width = 289;
}
);
leftKerningGroup = o.alt;
},
{
glyphname = oslash.alt;
layers = (
{
anchors = (
{
name = bottom;
position = "{143, 0}";
},
{
name = top;
position = "{151, 582}";
}
);
layerId = "DC66480E-7BB6-4652-B43C-57E9BA303B13";
paths = (
{
closed = 1;
nodes = (
"81.935 4.146 LINE",
"92.346 1.345 OFFCURVE",
"105.249 0 OFFCURVE",
"121 0 CURVE SMOOTH",
"239 0 LINE",
"245.91 530.075 LINE",
"278 633 LINE",
"241 649 LINE",
"217.686 576.664 LINE",
"207.066 581.944 OFFCURVE",
"194.115 585 OFFCURVE",
"180 585 CURVE SMOOTH",
"109 585 OFFCURVE",
"70 577 OFFCURVE",
"45 561 CURVE",
"45 56 LINE",
"45.818 43.412 LINE",
"17 -46 LINE",
"61 -63 LINE"
);
},
{
closed = 1;
nodes = (
"106 57 LINE",
"106.328 82.385 LINE",
"181.45 323.327 LINE",
"178 60 LINE",
"169 51 LINE"
);
},
{
closed = 1;
nodes = (
"112 521 LINE",
"121 527 LINE",
"175 524 LINE",
"184 523 OFFCURVE",
"184 521 OFFCURVE",
"184 518 CURVE SMOOTH",
"183.374 470.205 LINE",
"108.332 237.375 LINE"
);
}
);
width = 291;
}
);
leftKerningGroup = o.alt;
},
{
glyphname = oe.alt;
layers = (
{
layerId = "DC66480E-7BB6-4652-B43C-57E9BA303B13";
paths = (
{
closed = 1;
nodes = (
"366 0 LINE",
"366 57 LINE",
"269 57 LINE",
"257 63 LINE",
"251 259 LINE",
"340 256 LINE SMOOTH",
"372 255 OFFCURVE",
"377 279 OFFCURVE",
"377 299 CURVE SMOOTH",
"378 540 LINE",
"339 582 LINE",
"180 582 LINE SMOOTH",
"109 582 OFFCURVE",
"70 577 OFFCURVE",
"45 561 CURVE",
"45 56 LINE SMOOTH",
"45 17 OFFCURVE",
"65 0 OFFCURVE",
"121 0 CURVE SMOOTH"
);
},
{
closed = 1;
nodes = (
"106 57 LINE",
"112 521 LINE",
"121 527 LINE",
"175 524 LINE",
"184 523 OFFCURVE",
"184 521 OFFCURVE",
"184 518 CURVE SMOOTH",
"178 60 LINE",
"169 51 LINE"
);
},
{
closed = 1;
nodes = (
"245.145 471.389 LINE",
"245.784 520.455 LINE",
"248 524 LINE",
"307 522 LINE",
"316 521 OFFCURVE",
"316 519 OFFCURVE",
"316 516 CURVE SMOOTH",
"312 320 LINE",
"307 314 LINE",
"253 308 LINE"
);
}
);
width = 418;
}
);
leftKerningGroup = o.alt;
},
{
glyphname = p.alt;
layers = (
{
layerId = "DC66480E-7BB6-4652-B43C-57E9BA303B13";
paths = (
{
closed = 1;
nodes = (
"118 -128 LINE",
"116 0 LINE",
"209 0 LINE SMOOTH",
"233 0 OFFCURVE",
"251 19 OFFCURVE",
"251 54 CURVE SMOOTH",
"249 546 LINE SMOOTH",
"249 570 OFFCURVE",
"238 582 OFFCURVE",
"198 582 CURVE SMOOTH",
"32 582 LINE",
"32 544 LINE",
"50 526 LINE",
"44 -128 LINE"
);
},
{
closed = 1;
nodes = (
"122 62 OFFCURVE",
"118 65 OFFCURVE",
"118 71 CURVE SMOOTH",
"118 513 LINE SMOOTH",
"118 517 OFFCURVE",
"118 519 OFFCURVE",
"127 519 CURVE SMOOTH",
"169 519 LINE SMOOTH",
"178 519 OFFCURVE",
"178 517 OFFCURVE",
"178 513 CURVE",
"188 71 LINE",
"188 65 OFFCURVE",
"188 62 OFFCURVE",
"179 62 CURVE SMOOTH",
"127 62 LINE SMOOTH"
);
}
);
width = 296;
}
);
},
{
glyphname = thorn.alt;
layers = (
{
layerId = "DC66480E-7BB6-4652-B43C-57E9BA303B13";
paths = (
{
closed = 1;
nodes = (
"74 -130 LINE",
"95 96 LINE",
"215 107 LINE",
"250 169 LINE",
"239 479 LINE SMOOTH",
"238 494 OFFCURVE",
"218 500 OFFCURVE",
"203 500 CURVE SMOOTH",
"160 500 LINE SMOOTH",
"147 500 OFFCURVE",
"123 497 OFFCURVE",
"108 494 CURVE",
"108 710 LINE",
"58 710 LINE",
"28 -130 LINE"
);
},
{
closed = 1;
nodes = (
"111 448 LINE",
"167 455 LINE",
"182 440 LINE",
"182 171 LINE SMOOTH",
"182 167 OFFCURVE",
"180 165 OFFCURVE",
"176 165 CURVE",
"111 162 LINE"
);
}
);
width = 278;
}
);
},
{
glyphname = q.alt;
layers = (
{
layerId = "DC66480E-7BB6-4652-B43C-57E9BA303B13";
paths = (
{
closed = 1;
nodes = (
"251 -129 LINE",
"245 520 LINE",
"273 540 LINE",
"273 582 LINE",
"98 582 LINE SMOOTH",
"71 582 OFFCURVE",
"47 563 OFFCURVE",
"47 534 CURVE SMOOTH",
"45 54 LINE",
"87 0 LINE",
"180 0 LINE",
"179 -129 LINE"
);
},
{
closed = 1;
nodes = (
"118 62 OFFCURVE",
"118 64 OFFCURVE",
"118 68 CURVE SMOOTH",
"108 510 LINE",
"108 516 OFFCURVE",
"108 519 OFFCURVE",
"117 519 CURVE SMOOTH",
"169 519 LINE SMOOTH",
"174 519 OFFCURVE",
"178 516 OFFCURVE",
"178 510 CURVE SMOOTH",
"178 68 LINE SMOOTH",
"178 64 OFFCURVE",
"178 62 OFFCURVE",
"169 62 CURVE SMOOTH",
"127 62 LINE SMOOTH"
);
}
);
width = 301;
}
);
leftKerningGroup = o.alt;
},
{
glyphname = r.alt;
layers = (
{
anchors = (
{
name = bottom;
position = "{82, 0}";
},
{
name = top;
position = "{127, 582}";
}
);
layerId = "DC66480E-7BB6-4652-B43C-57E9BA303B13";
paths = (
{
closed = 1;
nodes = (
"117 0 LINE",
"104 523 LINE",
"159 522 LINE",
"168 522 OFFCURVE",
"177 440 OFFCURVE",
"177 434 CURVE",
"220 434 LINE",
"218 582 LINE",
"30 582 LINE",
"30 534 LINE",
"51 522 LINE",
"51 0 LINE"
);
}
);
width = 235;
}
);
rightKerningGroup = r.alt;
},
{
glyphname = s.alt;
layers = (
{
anchors = (
{
name = bottom;
position = "{126, 0}";
},
{
name = top;
position = "{128, 582}";
}
);
layerId = "DC66480E-7BB6-4652-B43C-57E9BA303B13";
paths = (
{
closed = 1;
nodes = (
"141 0 LINE SMOOTH",
"163 0 OFFCURVE",
"201 26 OFFCURVE",
"201 49 CURVE",
"213 324 LINE",
"101 345 LINE",
"113 523 LINE",
"156 529 LINE",
"172 466 LINE",
"202 466 LINE",
"206 582 LINE",
"78 582 LINE",
"45 562 LINE",
"45 288 LINE",
"149 264 LINE",
"136 58 LINE",
"92 59 LINE",
"72 139 LINE",
"38 139 LINE",
"45 0 LINE"
);
}
);
width = 248;
}
);
leftKerningGroup = s.alt;
},
{
glyphname = germandbls.alt;
layers = (
{
background = {
paths = (
{
closed = 1;
nodes = (
"365 60 CURVE",
"365 365 LINE",
"230 379 LINE",
"229 384 LINE",
"332 601 LINE",
"220 710 LINE",
"147 710 LINE",
"46 640 LINE",
"46 -1 LINE",
"128 -1 LINE",
"107 616 LINE",
"203 640 LINE",
"228 602 LINE",
"162 389 LINE",
"188 326 LINE",
"297 296 LINE",
"297 68 LINE",
"235 84 LINE",
"243 171 LINE",
"176 171 LINE",
"188 0 LINE",
"291 0 LINE SMOOTH",
"320 0 OFFCURVE",
"362 32 OFFCURVE"
);
}
);
};
layerId = "DC66480E-7BB6-4652-B43C-57E9BA303B13";
paths = (
{
closed = 1;
nodes = (
"81 -129 LINE",
"124 -80 LINE",
"108 637 LINE",
"108 642 OFFCURVE",
"110 646 OFFCURVE",
"114 646 CURVE",
"250 653 LINE",
"162 389 LINE",
"193 343 LINE",
"297 264 LINE",
"284 58 LINE",
"240 59 LINE",
"220 139 LINE",
"186 139 LINE",
"193 0 LINE",
"289 0 LINE SMOOTH",
"311 0 OFFCURVE",
"349 26 OFFCURVE",
"349 49 CURVE",
"361 324 LINE",
"230 408 LINE",
"327 604 LINE",
"261 710 LINE",
"85 710 LINE",
"42 661 LINE",
"52 -56 LINE SMOOTH",
"52 -61 OFFCURVE",
"50 -65 OFFCURVE",
"46 -65 CURVE",
"-57 -74 LINE",
"-57 -129 LINE"
);
}
);
width = 401;
}
);
},
{
glyphname = longs.alt;
layers = (
{
layerId = "DC66480E-7BB6-4652-B43C-57E9BA303B13";
paths = (
{
closed = 1;
nodes = (
"103 -20 LINE",
"99 604 LINE",
"114 619 LINE",
"248 638 LINE",
"258 657 LINE",
"258 700 LINE",
"80 708 LINE SMOOTH",
"64 709 OFFCURVE",
"44 702 OFFCURVE",
"44 687 CURVE SMOOTH",
"37 185 LINE",
"44 -20 LINE"
);
}
);
width = 292;
}
);
},
{
glyphname = t.alt;
layers = (
{
anchors = (
{
name = bottom;
position = "{140, 0}";
},
{
name = top;
position = "{134, 582}";
}
);
layerId = "DC66480E-7BB6-4652-B43C-57E9BA303B13";
paths = (
{
closed = 1;
nodes = (
"221 0 LINE",
"221 51 LINE",
"133 61 LINE",
"122 506 LINE SMOOTH",
"122 517 OFFCURVE",
"127 522 OFFCURVE",
"135 522 CURVE SMOOTH",
"226 522 LINE",
"226 582 LINE",
"128 582 LINE",
"134 710 LINE",
"91 710 LINE",
"65 690 LINE",
"64 582 LINE",
"20 582 LINE",
"20 528 LINE",
"63 528 LINE",
"56 49 LINE SMOOTH",
"55 21 OFFCURVE",
"76 0 OFFCURVE",
"99 0 CURVE SMOOTH"
);
}
);
width = 238;
}
);
rightKerningGroup = t.alt;
},
{
glyphname = tcaron.alt;
layers = (
{
components = (
{
name = t.alt;
}
);
layerId = "DC66480E-7BB6-4652-B43C-57E9BA303B13";
paths = (
{
closed = 1;
nodes = (
"213 612 LINE",
"271 687 LINE",
"265 783 LINE",
"179 779 LINE",
"211 687 LINE",
"160 612 LINE"
);
}
);
width = 257;
}
);
rightKerningGroup = t.alt;
},
{
glyphname = u.alt;
layers = (
{
anchors = (
{
name = bottom;
position = "{147, 0}";
},
{
name = ogonek;
position = "{242, 0}";
},
{
name = top;
position = "{151, 582}";
},
{
name = topright;
position = "{227, 582}";
}
);
layerId = "DC66480E-7BB6-4652-B43C-57E9BA303B13";
paths = (
{
closed = 1;
nodes = (
"104 0 OFFCURVE",
"262 0 OFFCURVE",
"262 0 CURVE",
"262 44 LINE",
"244 59 LINE",
"247 582 LINE",
"176 582 LINE",
"180 66 LINE",
"175 58 LINE",
"116 60 LINE",
"107 61 OFFCURVE",
"107 63 OFFCURVE",
"107 66 CURVE SMOOTH",
"113 582 LINE",
"46 582 LINE",
"38 47 LINE SMOOTH",
"38 20 OFFCURVE",
"67 0 OFFCURVE",
"104 0 CURVE"
);
}
);
width = 292;
}
);
leftKerningGroup = o.alt;
},
{
glyphname = v.alt;
layers = (
{
layerId = "DC66480E-7BB6-4652-B43C-57E9BA303B13";
paths = (
{
closed = 1;
nodes = (
"157 0 LINE",
"234 582 LINE",
"167 582 LINE",
"121 56 LINE",
"117 56 LINE",
"81 582 LINE",
"12 582 LINE",
"65 0 LINE"
);
}
);
width = 244;
}
);
},
{
glyphname = w.alt;
layers = (
{
anchors = (
{
name = bottom;
position = "{202, 0}";
},
{
name = top;
position = "{202, 582}";
}
);
layerId = "DC66480E-7BB6-4652-B43C-57E9BA303B13";
paths = (
{
closed = 1;
nodes = (
"153 0 LINE",
"200 489 LINE",
"206 489 LINE",
"230 0 LINE",
"321 0 LINE",
"394 582 LINE",
"334 582 LINE",
"288 56 LINE",
"284 56 LINE",
"248 582 LINE",
"166 582 LINE",
"117 56 LINE",
"113 56 LINE",
"81 582 LINE",
"12 582 LINE",
"61 0 LINE"
);
}
);
width = 404;
}
);
rightKerningGroup = w.alt;
},
{
glyphname = x.alt;
layers = (
{
layerId = "DC66480E-7BB6-4652-B43C-57E9BA303B13";
paths = (
{
closed = 1;
nodes = (
"81 0 LINE",
"122 265 LINE",
"135 277 LINE",
"176 0 LINE",
"260 0 LINE",
"187 281 LINE",
"245 582 LINE",
"185 582 LINE",
"149 327 LINE",
"130 319 LINE",
"93 582 LINE",
"24 582 LINE",
"76 316 LINE",
"12 0 LINE"
);
}
);
width = 272;
}
);
},
{
glyphname = y.alt;
layers = (
{
anchors = (
{
name = bottom;
position = "{221, 0}";
},
{
name = top;
position = "{123, 582}";
}
);
layerId = "DC66480E-7BB6-4652-B43C-57E9BA303B13";
paths = (
{
closed = 1;
nodes = (
"118 -129 LINE SMOOTH",
"146 -129 OFFCURVE",
"158 -114 OFFCURVE",
"161 -90 CURVE SMOOTH",
"168 32 LINE",
"234 582 LINE",
"167 582 LINE",
"126 79 LINE",
"122 79 LINE",
"81 582 LINE",
"12 582 LINE",
"74 0 LINE",
"110 0 LINE",
"106 -67 LINE",
"18 -77 LINE",
"18 -129 LINE"
);
}
);
width = 246;
}
);
rightKerningGroup = y.alt;
},
{
glyphname = z.alt;
layers = (
{
anchors = (
{
name = bottom;
position = "{120, 0}";
},
{
name = top;
position = "{121, 582}";
}
);
layerId = "DC66480E-7BB6-4652-B43C-57E9BA303B13";
paths = (
{
closed = 1;
nodes = (
"219 0 LINE",
"219 53 LINE",
"103 46 LINE",
"202 582 LINE",
"33 582 LINE",
"33 529 LINE",
"132 521 LINE",
"20 27 LINE",
"35 0 LINE"
);
}
);
width = 232;
}
);
leftKerningGroup = z.alt;
},
{
glyphname = y.loclGUA;
layers = (
{
anchors = (
{
name = bottom;
position = "{147, -100}";
},
{
name = top;
position = "{149, 582}";
}
);
layerId = "DC66480E-7BB6-4652-B43C-57E9BA303B13";
paths = (
{
closed = 1;
nodes = (
"210 -129 LINE",
"253 -89 LINE",
"253 582 LINE",
"212 582 LINE",
"182 558 LINE",
"192 87 LINE SMOOTH",
"192 81 OFFCURVE",
"192 78 OFFCURVE",
"183 78 CURVE SMOOTH",
"121 78 LINE SMOOTH",
"116 78 OFFCURVE",
"112 78 OFFCURVE",
"112 87 CURVE SMOOTH",
"112 582 LINE",
"45 582 LINE",
"45 52 LINE",
"88 20 LINE",
"192 20 LINE",
"192 -67 LINE",
"56 -77 LINE",
"56 -129 LINE"
);
}
);
width = 298;
}
);
},
{
glyphname = A_N_D;
layers = (
{
background = {
paths = (
{
closed = 1;
nodes = (
"595 710 LINE",
"595 140 LINE",
"708 140 LINE",
"769 197 LINE",
"799 600 LINE",
"799 664 OFFCURVE",
"754 710 OFFCURVE",
"690 710 CURVE"
);
},
{
closed = 1;
nodes = (
"709 224 LINE",
"709 219 OFFCURVE",
"706 215 OFFCURVE",
"700 211 CURVE",
"667 206 LINE",
"658 212 LINE",
"658 638 LINE",
"658 641 OFFCURVE",
"664 644 OFFCURVE",
"667 644 CURVE",
"711 644 LINE",
"719 644 OFFCURVE",
"723 642 OFFCURVE",
"723 638 CURVE"
);
},
{
closed = 1;
nodes = (
"244 140 LINE",
"244 710 LINE",
"71 710 LINE",
"26 140 LINE",
"73 140 LINE",
"119 418 LINE",
"160 418 LINE",
"186 140 LINE"
);
},
{
closed = 1;
nodes = (
"181 471 LINE",
"181 467 OFFCURVE",
"179 465 OFFCURVE",
"175 465 CURVE",
"142 465 LINE",
"138 465 OFFCURVE",
"136 467 OFFCURVE",
"136 470 CURVE",
"136 672 LINE",
"136 676 OFFCURVE",
"138 678 OFFCURVE",
"142 678 CURVE",
"175 678 LINE",
"179 678 OFFCURVE",
"181 676 OFFCURVE",
"181 672 CURVE"
);
},
{
closed = 1;
nodes = (
"530 140 LINE",
"541 710 LINE",
"483 710 LINE",
"461 198 LINE",
"457 198 LINE",
"417 710 LINE",
"301 710 LINE",
"301 140 LINE",
"360 140 LINE",
"360 651 LINE",
"364 651 LINE",
"416 140 LINE"
);
},
{
closed = 1;
nodes = (
"778 0 LINE",
"778 91 LINE",
"26 66 LINE",
"33 0 LINE"
);
}
);
};
layerId = "DC66480E-7BB6-4652-B43C-57E9BA303B13";
paths = (
{
closed = 1;
nodes = (
"355 140 LINE",
"355 651 LINE",
"366 651 LINE",
"418 140 LINE",
"530 140 LINE",
"541 710 LINE",
"488 710 LINE",
"466 198 LINE",
"455 198 LINE",
"415 710 LINE",
"301 710 LINE",
"301 140 LINE"
);
},
{
closed = 1;
nodes = (
"778 0 LINE",
"778 86 LINE",
"26 61 LINE",
"33 0 LINE"
);
},
{
closed = 1;
nodes = (
"68 140 LINE",
"114 423 LINE",
"167 423 LINE",
"193 140 LINE",
"244 140 LINE",
"244 710 LINE",
"71 710 LINE",
"26 140 LINE"
);
},
{
closed = 1;
nodes = (
"133 460 OFFCURVE",
"131 462 OFFCURVE",
"131 465 CURVE",
"131 677 LINE",
"131 681 OFFCURVE",
"133 683 OFFCURVE",
"137 683 CURVE",
"180 683 LINE",
"184 683 OFFCURVE",
"186 681 OFFCURVE",
"186 677 CURVE",
"186 466 LINE",
"186 462 OFFCURVE",
"184 460 OFFCURVE",
"180 460 CURVE",
"137 460 LINE"
);
},
{
closed = 1;
nodes = (
"653 207 LINE",
"653 643 LINE",
"653 646 OFFCURVE",
"659 649 OFFCURVE",
"662 649 CURVE",
"716 649 LINE",
"724 649 OFFCURVE",
"728 647 OFFCURVE",
"728 643 CURVE",
"714 219 LINE",
"714 214 OFFCURVE",
"711 210 OFFCURVE",
"705 206 CURVE",
"662 201 LINE"
);
},
{
closed = 1;
nodes = (
"708 140 LINE",
"769 197 LINE",
"799 600 LINE",
"799 664 OFFCURVE",
"754 710 OFFCURVE",
"690 710 CURVE",
"595 710 LINE",
"595 140 LINE"
);
}
);
width = 837;
}
);
leftKerningGroup = A;
rightKerningGroup = O;
},
{
glyphname = A_S;
layers = (
{
background = {
paths = (
{
closed = 1;
nodes = (
"250 140 LINE",
"250 710 LINE",
"77 710 LINE",
"32 140 LINE",
"79 140 LINE",
"125 418 LINE",
"166 418 LINE",
"192 140 LINE"
);
},
{
closed = 1;
nodes = (
"187 471 LINE",
"187 467 OFFCURVE",
"185 465 OFFCURVE",
"181 465 CURVE",
"148 465 LINE",
"144 465 OFFCURVE",
"142 467 OFFCURVE",
"142 470 CURVE",
"142 672 LINE",
"142 676 OFFCURVE",
"144 678 OFFCURVE",
"148 678 CURVE",
"181 678 LINE",
"185 678 OFFCURVE",
"187 676 OFFCURVE",
"187 672 CURVE"
);
},
{
closed = 1;
nodes = (
"365 642 LINE",
"457 661 LINE",
"457 710 LINE",
"340 710 LINE",
"319 710 OFFCURVE",
"300 684 OFFCURVE",
"300 663 CURVE",
"300 436 LINE",
"375 406 LINE",
"389 208 LINE",
"300 208 LINE",
"300 140 LINE",
"393 140 LINE",
"422 140 OFFCURVE",
"457 172 OFFCURVE",
"457 200 CURVE",
"457 458 LINE",
"370 491 LINE"
);
},
{
closed = 1;
nodes = (
"460 0 LINE",
"460 89 LINE",
"41 89 LINE",
"33 15 LINE"
);
}
);
};
layerId = "DC66480E-7BB6-4652-B43C-57E9BA303B13";
paths = (
{
closed = 1;
nodes = (
"74 140 LINE",
"120 423 LINE",
"171 423 LINE",
"197 140 LINE",
"250 140 LINE",
"250 710 LINE",
"77 710 LINE",
"32 140 LINE"
);
},
{
closed = 1;
nodes = (
"460 84 LINE",
"41 84 LINE",
"33 15 LINE",
"460 0 LINE"
);
},
{
closed = 1;
nodes = (
"139 460 OFFCURVE",
"137 462 OFFCURVE",
"137 465 CURVE",
"137 677 LINE",
"137 681 OFFCURVE",
"139 683 OFFCURVE",
"143 683 CURVE",
"186 683 LINE",
"190 683 OFFCURVE",
"192 681 OFFCURVE",
"192 677 CURVE",
"192 466 LINE",
"192 462 OFFCURVE",
"190 460 OFFCURVE",
"186 460 CURVE",
"143 460 LINE"
);
},
{
closed = 1;
nodes = (
"393 140 LINE",
"422 140 OFFCURVE",
"457 172 OFFCURVE",
"457 200 CURVE",
"457 455 LINE",
"365 488 LINE",
"360 647 LINE",
"457 666 LINE",
"457 710 LINE",
"340 710 LINE",
"319 710 OFFCURVE",
"300 684 OFFCURVE",
"300 663 CURVE",
"300 439 LINE",
"380 409 LINE",
"394 203 LINE",
"300 203 LINE",
"300 140 LINE"
);
}
);
width = 497;
}
);
leftKerningGroup = A;
},
{
glyphname = E_L;
layers = (
{
layerId = "DC66480E-7BB6-4652-B43C-57E9BA303B13";
paths = (
{
closed = 1;
nodes = (
"201 160 LINE",
"194 251 LINE",
"125 243 LINE",
"125 428 LINE",
"188 438 LINE",
"188 496 LINE",
"120 496 LINE",
"120 632 LINE",
"192 632 LINE",
"192 710 LINE",
"69 710 LINE",
"46 160 LINE"
);
},
{
closed = 1;
nodes = (
"391 0 LINE",
"391 89 LINE",
"48 76 LINE",
"56 0 LINE"
);
},
{
closed = 1;
nodes = (
"391 140 LINE",
"391 209 LINE",
"328 222 LINE",
"349 710 LINE",
"262 710 LINE",
"262 140 LINE"
);
}
);
width = 416;
}
);
rightKerningGroup = L;
},
{
glyphname = E_U;
layers = (
{
background = {
paths = (
{
closed = 1;
nodes = (
"449 710 LINE",
"371 710 LINE",
"392 203 LINE",
"324 209 LINE",
"324 687 LINE",
"264 687 LINE",
"264 140 LINE",
"406 140 LINE",
"425 140 OFFCURVE",
"449 161 OFFCURVE",
"449 180 CURVE"
);
},
{
closed = 1;
nodes = (
"213 150 LINE",
"201 239 LINE",
"126 221 LINE",
"126 408 LINE",
"180 426 LINE",
"180 476 LINE",
"121 476 LINE",
"121 642 LINE",
"204 642 LINE",
"204 710 LINE",
"71 710 LINE",
"48 150 LINE"
);
},
{
closed = 1;
nodes = (
"46 89 LINE",
"46 0 LINE",
"440 0 LINE",
"448 74 LINE"
);
}
);
};
layerId = "DC66480E-7BB6-4652-B43C-57E9BA303B13";
paths = (
{
closed = 1;
nodes = (
"406 140 LINE",
"425 140 OFFCURVE",
"449 161 OFFCURVE",
"449 180 CURVE",
"449 710 LINE",
"376 710 LINE",
"397 198 LINE",
"319 204 LINE",
"319 687 LINE",
"264 687 LINE",
"264 140 LINE"
);
},
{
closed = 1;
nodes = (
"440 0 LINE",
"448 69 LINE",
"46 84 LINE",
"46 0 LINE"
);
},
{
closed = 1;
nodes = (
"213 150 LINE",
"201 234 LINE",
"121 216 LINE",
"121 413 LINE",
"180 431 LINE",
"180 476 LINE",
"116 476 LINE",
"116 647 LINE",
"204 647 LINE",
"204 710 LINE",
"71 710 LINE",
"48 150 LINE"
);
}
);
width = 499;
}
);
},
{
glyphname = F_F;
layers = (
{
layerId = "DC66480E-7BB6-4652-B43C-57E9BA303B13";
paths = (
{
closed = 1;
nodes = (
"121 0 LINE",
"121 355 LINE",
"258 373 LINE",
"258 423 LINE",
"116 423 LINE",
"116 611 LINE",
"325 611 LINE",
"305 0 LINE",
"390 0 LINE",
"390 355 LINE",
"494 373 LINE",
"494 423 LINE",
"385 423 LINE",
"385 625 LINE",
"508 625 LINE",
"508 710 LINE",
"325 710 LINE",
"323.931 677 LINE",
"59 677 LINE",
"36 0 LINE"
);
}
);
width = 532;
}
);
leftMetricsKey = F;
rightKerningGroup = F;
rightMetricsKey = F;
},
{
glyphname = F_I;
layers = (
{
layerId = "DC66480E-7BB6-4652-B43C-57E9BA303B13";
paths = (
{
closed = 1;
nodes = (
"121 0 LINE",
"121 355 LINE",
"296 371 LINE",
"313 329 LINE",
"313 0 LINE",
"384 0 LINE",
"393 423 LINE",
"116 423 LINE",
"116 625 LINE",
"382 625 LINE",
"382 710 LINE",
"59 710 LINE",
"36 0 LINE"
);
}
);
width = 429;
}
);
leftMetricsKey = F;
rightMetricsKey = I;
},
{
glyphname = F_L;
layers = (
{
layerId = "DC66480E-7BB6-4652-B43C-57E9BA303B13";
paths = (
{
closed = 1;
nodes = (
"121 0 LINE",
"121 355 LINE",
"228 373 LINE",
"228 423 LINE",
"116 423 LINE",
"116 624 LINE",
"309 624 LINE",
"309 0 LINE",
"495 0 LINE",
"495 64 LINE",
"382 82 LINE",
"403 710 LINE",
"59 710 LINE",
"36 0 LINE"
);
}
);
width = 511;
}
);
leftMetricsKey = F;
rightMetricsKey = L;
},
{
glyphname = F_O_R;
layers = (
{
background = {
paths = (
{
closed = 1;
nodes = (
"47 89 LINE",
"47 0 LINE",
"639 25 LINE",
"632 89 LINE"
);
},
{
closed = 1;
nodes = (
"45 140 LINE",
"123 140 LINE",
"123 390 LINE",
"187 408 LINE",
"187 458 LINE",
"118 458 LINE",
"118 642 LINE",
"201 642 LINE",
"201 710 LINE",
"68 710 LINE"
);
},
{
closed = 1;
nodes = (
"275 710 LINE",
"232 678 LINE",
"232 182 LINE",
"291 140 LINE",
"337 140 LINE",
"400 176 LINE",
"400 682 LINE",
"360 710 LINE"
);
},
{
closed = 1;
nodes = (
"331 216 LINE",
"331 212 OFFCURVE",
"328 210 OFFCURVE",
"322 210 CURVE",
"310 210 LINE",
"304 210 OFFCURVE",
"301 212 OFFCURVE",
"301 216 CURVE",
"301 649 LINE",
"301 655 OFFCURVE",
"304 658 OFFCURVE",
"310 658 CURVE",
"334 658 LINE",
"340 658 OFFCURVE",
"343 655 OFFCURVE",
"343 649 CURVE"
);
},
{
closed = 1;
nodes = (
"507 416 LINE",
"531 416 LINE",
"566 298 LINE",
"572 137 LINE",
"640 140 LINE",
"629 311 LINE",
"590 421 LINE",
"619 437 OFFCURVE",
"623 479 OFFCURVE",
"623 489 CURVE",
"633 661 LINE",
"632 688 OFFCURVE",
"594 710 OFFCURVE",
"543 710 CURVE",
"427 710 LINE",
"427 681 LINE",
"449 669 LINE",
"449 140 LINE",
"507 140 LINE"
);
},
{
closed = 1;
nodes = (
"516 655 LINE",
"516 660 OFFCURVE",
"520 664 OFFCURVE",
"528 667 CURVE",
"559 667 OFFCURVE",
"562 655 OFFCURVE",
"563 634 CURVE",
"557 486 LINE",
"557 482 OFFCURVE",
"555 480 OFFCURVE",
"551 480 CURVE",
"528 480 LINE",
"521 480 OFFCURVE",
"516 485 OFFCURVE",
"516 488 CURVE"
);
}
);
};
layerId = "DC66480E-7BB6-4652-B43C-57E9BA303B13";
paths = (
{
closed = 1;
nodes = (
"640 140 LINE",
"629 311 LINE",
"590 421 LINE",
"619 437 OFFCURVE",
"623 479 OFFCURVE",
"623 489 CURVE",
"633 661 LINE",
"632 688 OFFCURVE",
"594 710 OFFCURVE",
"543 710 CURVE",
"427 710 LINE",
"427 681 LINE",
"449 669 LINE",
"449 140 LINE",
"502 140 LINE",
"502 421 LINE",
"536 421 LINE",
"571 298 LINE",
"577 137 LINE"
);
},
{
closed = 1;
nodes = (
"639 25 LINE",
"632 84 LINE",
"47 84 LINE",
"47 0 LINE"
);
},
{
closed = 1;
nodes = (
"118 140 LINE",
"118 395 LINE",
"187 413 LINE",
"187 458 LINE",
"113 458 LINE",
"113 647 LINE",
"201 647 LINE",
"201 710 LINE",
"68 710 LINE",
"45 140 LINE"
);
},
{
closed = 1;
nodes = (
"337 140 LINE",
"400 176 LINE",
"400 682 LINE",
"360 710 LINE",
"275 710 LINE",
"232 678 LINE",
"232 182 LINE",
"291 140 LINE"
);
},
{
closed = 1;
nodes = (
"299 205 OFFCURVE",
"296 207 OFFCURVE",
"296 211 CURVE",
"296 654 LINE",
"296 660 OFFCURVE",
"299 663 OFFCURVE",
"305 663 CURVE",
"339 663 LINE",
"345 663 OFFCURVE",
"348 660 OFFCURVE",
"348 654 CURVE",
"336 211 LINE",
"336 207 OFFCURVE",
"333 205 OFFCURVE",
"327 205 CURVE",
"305 205 LINE"
);
},
{
closed = 1;
nodes = (
"516 475 OFFCURVE",
"511 480 OFFCURVE",
"511 483 CURVE",
"511 660 LINE",
"511 665 OFFCURVE",
"515 669 OFFCURVE",
"523 672 CURVE",
"559 672 OFFCURVE",
"567 660 OFFCURVE",
"568 639 CURVE",
"562 481 LINE",
"562 477 OFFCURVE",
"560 475 OFFCURVE",
"556 475 CURVE",
"523 475 LINE"
);
}
);
width = 678;
}
);
rightKerningGroup = R;
},
{
glyphname = L_A;
layers = (
{
background = {
paths = (
{
closed = 1;
nodes = (
"386 140 LINE",
"386 710 LINE",
"223 710 LINE",
"191 255 LINE",
"238 250 LINE",
"271 418 LINE",
"302 418 LINE",
"328 140 LINE"
);
},
{
closed = 1;
nodes = (
"323 471 LINE",
"323 467 OFFCURVE",
"321 465 OFFCURVE",
"317 465 CURVE",
"287 465 LINE",
"283 465 OFFCURVE",
"281 467 OFFCURVE",
"281 470 CURVE",
"281 672 LINE",
"281 676 OFFCURVE",
"283 678 OFFCURVE",
"287 678 CURVE",
"317 678 LINE",
"321 678 OFFCURVE",
"323 676 OFFCURVE",
"323 672 CURVE"
);
},
{
closed = 1;
nodes = (
"241 140 LINE",
"241 209 LINE",
"115 222 LINE",
"136 710 LINE",
"49 710 LINE",
"49 140 LINE"
);
},
{
closed = 1;
nodes = (
"48 89 LINE",
"48 0 LINE",
"391 13 LINE",
"383 89 LINE"
);
}
);
};
layerId = "DC66480E-7BB6-4652-B43C-57E9BA303B13";
paths = (
{
closed = 1;
nodes = (
"386 140 LINE",
"386 710 LINE",
"223 710 LINE",
"191 255 LINE",
"233 250 LINE",
"266 423 LINE",
"312 423 LINE",
"338 140 LINE"
);
},
{
closed = 1;
nodes = (
"391 13 LINE",
"383 84 LINE",
"48 84 LINE",
"48 0 LINE"
);
},
{
closed = 1;
nodes = (
"241 140 LINE",
"241 204 LINE",
"110 217 LINE",
"131 710 LINE",
"49 710 LINE",
"49 140 LINE"
);
},
{
closed = 1;
nodes = (
"278 460 OFFCURVE",
"276 462 OFFCURVE",
"276 465 CURVE",
"276 677 LINE",
"276 681 OFFCURVE",
"278 683 OFFCURVE",
"282 683 CURVE",
"322 683 LINE",
"326 683 OFFCURVE",
"328 681 OFFCURVE",
"328 677 CURVE",
"328 466 LINE",
"328 462 OFFCURVE",
"326 460 OFFCURVE",
"322 460 CURVE",
"282 460 LINE"
);
}
);
width = 441;
}
);
rightKerningGroup = A;
},
{
glyphname = L_A_S;
layers = (
{
background = {
paths = (
{
closed = 1;
nodes = (
"388 140 LINE",
"388 710 LINE",
"225 710 LINE",
"193 255 LINE",
"240 250 LINE",
"273 418 LINE",
"304 418 LINE",
"330 140 LINE"
);
},
{
closed = 1;
nodes = (
"325 471 LINE",
"325 467 OFFCURVE",
"323 465 OFFCURVE",
"319 465 CURVE",
"289 465 LINE",
"285 465 OFFCURVE",
"283 467 OFFCURVE",
"283 470 CURVE",
"283 672 LINE",
"283 676 OFFCURVE",
"285 678 OFFCURVE",
"289 678 CURVE",
"319 678 LINE",
"323 678 OFFCURVE",
"325 676 OFFCURVE",
"325 672 CURVE"
);
},
{
closed = 1;
nodes = (
"243 140 LINE",
"243 209 LINE",
"117 222 LINE",
"138 710 LINE",
"51 710 LINE",
"51 140 LINE"
);
},
{
closed = 1;
nodes = (
"50 89 LINE",
"50 0 LINE",
"602 25 LINE",
"595 89 LINE"
);
},
{
closed = 1;
nodes = (
"489 642 LINE",
"601 661 LINE",
"601 710 LINE",
"474 710 LINE",
"453 710 OFFCURVE",
"434 684 OFFCURVE",
"434 663 CURVE",
"434 406 LINE",
"529 376 LINE",
"543 208 LINE",
"434 208 LINE",
"434 140 LINE",
"537 140 LINE",
"566 140 OFFCURVE",
"601 172 OFFCURVE",
"601 200 CURVE",
"601 428 LINE",
"501 461 LINE"
);
}
);
};
layerId = "DC66480E-7BB6-4652-B43C-57E9BA303B13";
paths = (
{
closed = 1;
nodes = (
"386 140 LINE",
"386 710 LINE",
"223 710 LINE",
"191 255 LINE",
"233 250 LINE",
"266 423 LINE",
"312 423 LINE",
"338 140 LINE"
);
},
{
closed = 1;
nodes = (
"602 25 LINE",
"595 84 LINE",
"50 84 LINE",
"50 0 LINE"
);
},
{
closed = 1;
nodes = (
"241 140 LINE",
"241 204 LINE",
"110 217 LINE",
"131 710 LINE",
"49 710 LINE",
"49 140 LINE"
);
},
{
closed = 1;
nodes = (
"278 460 OFFCURVE",
"276 462 OFFCURVE",
"276 465 CURVE",
"276 677 LINE",
"276 681 OFFCURVE",
"278 683 OFFCURVE",
"282 683 CURVE",
"322 683 LINE",
"326 683 OFFCURVE",
"328 681 OFFCURVE",
"328 677 CURVE",
"328 466 LINE",
"328 462 OFFCURVE",
"326 460 OFFCURVE",
"322 460 CURVE",
"282 460 LINE"
);
},
{
closed = 1;
nodes = (
"537 140 LINE",
"566 140 OFFCURVE",
"601 172 OFFCURVE",
"601 200 CURVE",
"601 424 LINE",
"496 457 LINE",
"484 647 LINE",
"601 666 LINE",
"601 710 LINE",
"474 710 LINE",
"453 710 OFFCURVE",
"434 684 OFFCURVE",
"434 663 CURVE",
"434 409 LINE",
"533 379 LINE",
"547 203 LINE",
"434 203 LINE",
"434 140 LINE"
);
}
);
width = 643;
}
);
},
{
glyphname = L_L;
layers = (
{
layerId = "DC66480E-7BB6-4652-B43C-57E9BA303B13";
paths = (
{
closed = 1;
nodes = (
"349 0 LINE",
"349 64 LINE",
"116 82 LINE",
"137 710 LINE",
"40 710 LINE",
"40 0 LINE"
);
},
{
closed = 1;
nodes = (
"344 130 LINE",
"347 190 LINE",
"265 188 LINE",
"261 706 LINE",
"195 705 LINE",
"192 130 LINE"
);
}
);
width = 365;
}
);
leftMetricsKey = L;
rightMetricsKey = L;
},
{
glyphname = L_O_S;
layers = (
{
background = {
paths = (
{
closed = 1;
nodes = (
"273 140 LINE",
"273 209 LINE",
"117 222 LINE",
"138 710 LINE",
"51 710 LINE",
"51 140 LINE"
);
},
{
closed = 1;
nodes = (
"602 0 LINE",
"602 89 LINE",
"50 70 LINE",
"57 0 LINE"
);
},
{
closed = 1;
nodes = (
"489 642 LINE",
"601 661 LINE",
"601 710 LINE",
"474 710 LINE",
"453 710 OFFCURVE",
"434 684 OFFCURVE",
"434 663 CURVE",
"434 406 LINE",
"529 376 LINE",
"543 208 LINE",
"324 208 LINE",
"324 140 LINE",
"537 140 LINE",
"566 140 OFFCURVE",
"601 172 OFFCURVE",
"601 200 CURVE",
"601 428 LINE",
"501 461 LINE"
);
},
{
closed = 1;
nodes = (
"233 710 LINE",
"190 678 LINE",
"190 293 LINE",
"249 251 LINE",
"325 251 LINE",
"388 287 LINE",
"388 682 LINE",
"348 710 LINE"
);
},
{
closed = 1;
nodes = (
"315 327 LINE",
"315 323 OFFCURVE",
"312 321 OFFCURVE",
"306 321 CURVE",
"274 321 LINE",
"268 321 OFFCURVE",
"265 323 OFFCURVE",
"265 327 CURVE",
"265 649 LINE",
"265 655 OFFCURVE",
"268 658 OFFCURVE",
"274 658 CURVE",
"317 658 LINE",
"323 658 OFFCURVE",
"326 655 OFFCURVE",
"326 649 CURVE"
);
}
);
};
layerId = "DC66480E-7BB6-4652-B43C-57E9BA303B13";
paths = (
{
closed = 1;
nodes = (
"537 140 LINE",
"566 140 OFFCURVE",
"601 172 OFFCURVE",
"601 200 CURVE",
"601 424 LINE",
"496 457 LINE",
"484 647 LINE",
"601 666 LINE",
"601 710 LINE",
"474 710 LINE",
"453 710 OFFCURVE",
"434 684 OFFCURVE",
"434 663 CURVE",
"434 409 LINE",
"533 379 LINE",
"547 203 LINE",
"324 203 LINE",
"324 140 LINE"
);
},
{
closed = 1;
nodes = (
"602 0 LINE",
"602 84 LINE",
"50 65 LINE",
"57 0 LINE"
);
},
{
closed = 1;
nodes = (
"273 140 LINE",
"273 204 LINE",
"110 217 LINE",
"131 710 LINE",
"49 710 LINE",
"49 140 LINE"
);
},
{
closed = 1;
nodes = (
"325 251 LINE",
"388 287 LINE",
"388 682 LINE",
"348 710 LINE",
"233 710 LINE",
"190 678 LINE",
"190 293 LINE",
"249 251 LINE"
);
},
{
closed = 1;
nodes = (
"263 316 OFFCURVE",
"260 318 OFFCURVE",
"260 322 CURVE",
"260 654 LINE",
"260 660 OFFCURVE",
"263 663 OFFCURVE",
"269 663 CURVE",
"322 663 LINE",
"328 663 OFFCURVE",
"331 660 OFFCURVE",
"331 654 CURVE",
"320 322 LINE",
"320 318 OFFCURVE",
"317 316 OFFCURVE",
"311 316 CURVE",
"269 316 LINE"
);
}
);
width = 643;
}
);
},
{
glyphname = O_S;
layers = (
{
background = {
paths = (
{
closed = 1;
nodes = (
"93 710 LINE",
"50 678 LINE",
"50 182 LINE",
"109 140 LINE",
"155 140 LINE",
"218 176 LINE",
"218 682 LINE",
"178 710 LINE"
);
},
{
closed = 1;
nodes = (
"149 216 LINE",
"149 212 OFFCURVE",
"146 210 OFFCURVE",
"140 210 CURVE",
"128 210 LINE",
"122 210 OFFCURVE",
"119 212 OFFCURVE",
"119 216 CURVE",
"119 649 LINE",
"119 655 OFFCURVE",
"122 658 OFFCURVE",
"128 658 CURVE",
"152 658 LINE",
"158 658 OFFCURVE",
"161 655 OFFCURVE",
"161 649 CURVE"
);
},
{
closed = 1;
nodes = (
"329 642 LINE",
"421 661 LINE",
"421 710 LINE",
"304 710 LINE",
"283 710 OFFCURVE",
"264 684 OFFCURVE",
"264 663 CURVE",
"264 436 LINE",
"339 406 LINE",
"353 208 LINE",
"264 208 LINE",
"264 140 LINE",
"357 140 LINE",
"386 140 OFFCURVE",
"421 172 OFFCURVE",
"421 200 CURVE",
"421 458 LINE",
"334 491 LINE"
);
},
{
closed = 1;
nodes = (
"51 89 LINE",
"51 0 LINE",
"406 0 LINE",
"414 76 LINE"
);
}
);
};
layerId = "DC66480E-7BB6-4652-B43C-57E9BA303B13";
paths = (
{
closed = 1;
nodes = (
"155 140 LINE",
"218 176 LINE",
"218 682 LINE",
"178 710 LINE",
"93 710 LINE",
"50 678 LINE",
"50 182 LINE",
"109 140 LINE"
);
},
{
closed = 1;
nodes = (
"406 0 LINE",
"414 71 LINE",
"51 84 LINE",
"51 0 LINE"
);
},
{
closed = 1;
nodes = (
"117 205 OFFCURVE",
"114 207 OFFCURVE",
"114 211 CURVE",
"114 654 LINE",
"114 660 OFFCURVE",
"117 663 OFFCURVE",
"123 663 CURVE",
"157 663 LINE",
"163 663 OFFCURVE",
"166 660 OFFCURVE",
"166 654 CURVE",
"154 211 LINE",
"154 207 OFFCURVE",
"151 205 OFFCURVE",
"145 205 CURVE",
"123 205 LINE"
);
},
{
closed = 1;
nodes = (
"357 140 LINE",
"386 140 OFFCURVE",
"421 172 OFFCURVE",
"421 200 CURVE",
"421 455 LINE",
"329 488 LINE",
"324 647 LINE",
"421 666 LINE",
"421 710 LINE",
"304 710 LINE",
"283 710 OFFCURVE",
"264 684 OFFCURVE",
"264 663 CURVE",
"264 439 LINE",
"344 409 LINE",
"358 203 LINE",
"264 203 LINE",
"264 140 LINE"
);
}
);
width = 461;
}
);
},
{
glyphname = T_H_E;
layers = (
{
background = {
paths = (
{
closed = 1;
nodes = (
"290 653 LINE",
"290 710 LINE",
"55 710 LINE",
"45 672 LINE",
"94 660 LINE",
"94 140 LINE",
"165 140 LINE",
"165 653 LINE"
);
},
{
closed = 1;
nodes = (
"345 431 LINE",
"366 120 LINE",
"431 120 LINE",
"410 624 LINE",
"425 648 LINE",
"425 690 LINE",
"338 690 LINE",
"338 505 LINE",
"294 490 LINE",
"294 610 LINE",
"213 610 LINE",
"236 140 LINE",
"306 140 LINE",
"295 422 LINE"
);
},
{
closed = 1;
nodes = (
"630 150 LINE",
"618 239 LINE",
"543 221 LINE",
"543 408 LINE",
"597 426 LINE",
"597 476 LINE",
"538 476 LINE",
"538 642 LINE",
"621 642 LINE",
"621 710 LINE",
"488 710 LINE",
"465 150 LINE"
);
},
{
closed = 1;
nodes = (
"632 0 LINE",
"632 89 LINE",
"70 70 LINE",
"77 0 LINE"
);
}
);
};
layerId = "DC66480E-7BB6-4652-B43C-57E9BA303B13";
paths = (
{
closed = 1;
nodes = (
"160 140 LINE",
"160 658 LINE",
"290 658 LINE",
"290 710 LINE",
"55 710 LINE",
"45 677 LINE",
"99 665 LINE",
"99 140 LINE"
);
},
{
closed = 1;
nodes = (
"632 0 LINE",
"632 84 LINE",
"70 65 LINE",
"77 0 LINE"
);
},
{
closed = 1;
nodes = (
"431 120 LINE",
"410 624 LINE",
"425 648 LINE",
"425 690 LINE",
"343 690 LINE",
"343 505 LINE",
"289 490 LINE",
"289 610 LINE",
"213 610 LINE",
"236 140 LINE",
"301 140 LINE",
"290 422 LINE",
"350 431 LINE",
"371 120 LINE"
);
},
{
closed = 1;
nodes = (
"630 150 LINE",
"618 234 LINE",
"538 216 LINE",
"538 413 LINE",
"597 431 LINE",
"597 476 LINE",
"533 476 LINE",
"533 647 LINE",
"621 647 LINE",
"621 710 LINE",
"488 710 LINE",
"465 150 LINE"
);
}
);
width = 670;
}
);
leftKerningGroup = T;
},
{
glyphname = T_O;
layers = (
{
background = {
paths = (
{
closed = 1;
nodes = (
"200 653 LINE",
"200 710 LINE",
"35 710 LINE",
"25 672 LINE",
"74 660 LINE",
"74 140 LINE",
"145 140 LINE",
"145 653 LINE"
);
},
{
closed = 1;
nodes = (
"273 710 LINE",
"230 678 LINE",
"230 182 LINE",
"289 140 LINE",
"335 140 LINE",
"398 176 LINE",
"398 682 LINE",
"358 710 LINE"
);
},
{
closed = 1;
nodes = (
"329 216 LINE",
"329 212 OFFCURVE",
"326 210 OFFCURVE",
"320 210 CURVE",
"308 210 LINE",
"302 210 OFFCURVE",
"299 212 OFFCURVE",
"299 216 CURVE",
"299 649 LINE",
"299 655 OFFCURVE",
"302 658 OFFCURVE",
"308 658 CURVE",
"332 658 LINE",
"338 658 OFFCURVE",
"341 655 OFFCURVE",
"341 649 CURVE"
);
},
{
closed = 1;
nodes = (
"38 89 LINE",
"38 0 LINE",
"404 13 LINE",
"396 89 LINE"
);
}
);
};
layerId = "DC66480E-7BB6-4652-B43C-57E9BA303B13";
paths = (
{
closed = 1;
nodes = (
"140 140 LINE",
"140 653 LINE",
"200 653 LINE",
"200 710 LINE",
"35 710 LINE",
"25 672 LINE",
"79 660 LINE",
"79 140 LINE"
);
},
{
closed = 1;
nodes = (
"404 13 LINE",
"396 84 LINE",
"38 84 LINE",
"38 0 LINE"
);
},
{
closed = 1;
nodes = (
"335 140 LINE",
"398 176 LINE",
"398 682 LINE",
"358 710 LINE",
"273 710 LINE",
"230 678 LINE",
"230 182 LINE",
"289 140 LINE"
);
},
{
closed = 1;
nodes = (
"297 205 OFFCURVE",
"294 207 OFFCURVE",
"294 211 CURVE",
"294 654 LINE",
"294 660 OFFCURVE",
"297 663 OFFCURVE",
"303 663 CURVE",
"337 663 LINE",
"343 663 OFFCURVE",
"346 660 OFFCURVE",
"346 654 CURVE",
"334 211 LINE",
"334 207 OFFCURVE",
"331 205 OFFCURVE",
"325 205 CURVE",
"303 205 LINE"
);
}
);
width = 454;
}
);
leftKerningGroup = T;
rightKerningGroup = O;
},
{
glyphname = f_f;
layers = (
{
layerId = "DC66480E-7BB6-4652-B43C-57E9BA303B13";
paths = (
{
closed = 1;
nodes = (
"113 0 LINE",
"108 522 LINE",
"236.985 527.901 LINE",
"235 0 LINE",
"306 0 LINE",
"301 522 LINE",
"394 529 LINE",
"394 582 LINE",
"300 582 LINE",
"302 645 LINE",
"416 655 LINE",
"416 710 LINE",
"278 710 LINE SMOOTH",
"252 710 OFFCURVE",
"235 692 OFFCURVE",
"235 661 CURVE SMOOTH",
"236.225 582 LINE",
"107 582 LINE",
"109 645 LINE",
"203 655 LINE",
"203 710 LINE",
"85 710 LINE SMOOTH",
"59 710 OFFCURVE",
"42 692 OFFCURVE",
"42 661 CURVE SMOOTH",
"43 582 LINE",
"3 582 LINE",
"3 522 LINE",
"44 522 LINE",
"42 0 LINE"
);
}
);
width = 386;
}
);
rightKerningGroup = F;
},
{
glyphname = fi;
layers = (
{
layerId = "DC66480E-7BB6-4652-B43C-57E9BA303B13";
paths = (
{
closed = 1;
nodes = (
"113 0 LINE",
"108 522 LINE",
"195 529 LINE",
"195 582 LINE",
"107 582 LINE",
"109 645 LINE",
"235 650 LINE",
"250 622 LINE",
"302 626 LINE",
"313 710 LINE",
"85 710 LINE SMOOTH",
"59 710 OFFCURVE",
"42 692 OFFCURVE",
"42 661 CURVE SMOOTH",
"43 582 LINE",
"3 582 LINE",
"3 522 LINE",
"44 522 LINE",
"42 0 LINE"
);
},
{
closed = 1;
nodes = (
"316 -24 LINE",
"317 21 LINE",
"303 51 LINE",
"311 582 LINE",
"237 582 LINE",
"241 -24 LINE"
);
}
);
width = 354;
}
);
unicode = FB01;
},
{
glyphname = fl;
layers = (
{
layerId = "DC66480E-7BB6-4652-B43C-57E9BA303B13";
paths = (
{
closed = 1;
nodes = (
"113 0 LINE",
"108 522 LINE",
"197 529 LINE",
"197 582 LINE",
"107 582 LINE",
"109 645 LINE",
"242 656 LINE",
"242 655 LINE",
"236 0 LINE",
"325 0 LINE",
"324 42 LINE",
"306 53 LINE",
"299 710 LINE",
"85 710 LINE SMOOTH",
"59 710 OFFCURVE",
"42 692 OFFCURVE",
"42 661 CURVE SMOOTH",
"43 582 LINE",
"3 582 LINE",
"3 522 LINE",
"44 522 LINE",
"42 0 LINE"
);
}
);
width = 352;
}
);
unicode = FB02;
},
{
glyphname = F_F.alt;
layers = (
{
layerId = "DC66480E-7BB6-4652-B43C-57E9BA303B13";
paths = (
{
closed = 1;
nodes = (
"134 -20 LINE",
"114 372 LINE",
"309 387 LINE",
"309 -20 LINE",
"388 -20 LINE",
"368 372 LINE",
"520 389 LINE",
"520 447 LINE",
"385 447 LINE",
"385 619 LINE",
"520 631 LINE",
"520 690 LINE",
"306 710 LINE",
"306 651 LINE",
"157 663 LINE",
"55 608 LINE",
"55 -20 LINE"
);
},
{
closed = 1;
nodes = (
"141 581 LINE",
"309 590 LINE",
"309 447 LINE",
"131 447 LINE"
);
}
);
width = 560;
}
);
rightKerningGroup = f;
},
{
glyphname = F_I.alt;
layers = (
{
layerId = "DC66480E-7BB6-4652-B43C-57E9BA303B13";
paths = (
{
closed = 1;
nodes = (
"134 -20 LINE",
"114 375 LINE",
"309 390 LINE",
"309 20 LINE",
"390 20 LINE",
"369 447 LINE",
"131 447 LINE",
"131 619 LINE",
"353 631 LINE",
"353 690 LINE",
"55 710 LINE",
"55 -20 LINE"
);
}
);
width = 426;
}
);
},
{
glyphname = F_L.alt;
layers = (
{
layerId = "DC66480E-7BB6-4652-B43C-57E9BA303B13";
paths = (
{
closed = 1;
nodes = (
"134 -20 LINE",
"114 372 LINE",
"259 389 LINE",
"259 447 LINE",
"131 447 LINE",
"131 619 LINE",
"324 628 LINE",
"324 0 LINE",
"518 0 LINE",
"518 69 LINE",
"405 82 LINE",
"390 105 LINE",
"390 690 LINE",
"55 710 LINE",
"55 -20 LINE"
);
}
);
width = 548;
}
);
},
{
glyphname = f_f.alt;
layers = (
{
layerId = "DC66480E-7BB6-4652-B43C-57E9BA303B13";
paths = (
{
closed = 1;
nodes = (
"81 -129 LINE",
"124 -80 LINE",
"109 522 LINE",
"229.082 522 LINE",
"237 -56 LINE SMOOTH",
"237 -61 OFFCURVE",
"235 -65 OFFCURVE",
"231 -65 CURVE",
"158 -74 LINE",
"158 -129 LINE",
"266 -129 LINE",
"309 -80 LINE",
"294 522 LINE",
"386 522 LINE",
"386 583 LINE",
"293 583 LINE",
"293 637 LINE SMOOTH",
"293 642 OFFCURVE",
"295 646 OFFCURVE",
"299 646 CURVE",
"408 655 LINE",
"408 710 LINE",
"270 710 LINE",
"227 661 LINE",
"227.929 583 LINE",
"108 583 LINE",
"108 637 LINE SMOOTH",
"108 642 OFFCURVE",
"110 646 OFFCURVE",
"114 646 CURVE",
"195 655 LINE",
"195 710 LINE",
"85 710 LINE",
"42 661 LINE",
"43 583 LINE",
"3 565 LINE",
"3 522 LINE",
"44 522 LINE",
"52 -56 LINE SMOOTH",
"52 -61 OFFCURVE",
"50 -65 OFFCURVE",
"46 -65 CURVE",
"-57 -74 LINE",
"-57 -129 LINE"
);
}
);
width = 370;
}
);
rightKerningGroup = f.alt;
},
{
glyphname = f_i.alt;
layers = (
{
layerId = "DC66480E-7BB6-4652-B43C-57E9BA303B13";
paths = (
{
closed = 1;
nodes = (
"81 -129 LINE",
"124 -80 LINE",
"109 522 LINE",
"238 522 LINE",
"238 0 LINE",
"317 0 LINE",
"301 582 LINE",
"108 583 LINE",
"108 637 LINE SMOOTH",
"108 642 OFFCURVE",
"110 646 OFFCURVE",
"114 646 CURVE SMOOTH",
"197 655 LINE",
"197 710 LINE",
"85 710 LINE",
"42 661 LINE",
"43 583 LINE",
"3 565 LINE",
"3 522 LINE",
"44 522 LINE",
"52 -56 LINE SMOOTH",
"52 -61 OFFCURVE",
"50 -65 OFFCURVE",
"46 -65 CURVE SMOOTH",
"-57 -74 LINE",
"-57 -129 LINE"
);
},
{
closed = 1;
nodes = (
"300 646 LINE",
"312 671 LINE",
"312 707 LINE",
"297 721 LINE",
"244 721 LINE",
"227 701 LINE",
"229 661 LINE",
"248 646 LINE"
);
}
);
width = 362;
}
);
},
{
glyphname = f_l.alt;
layers = (
{
layerId = "DC66480E-7BB6-4652-B43C-57E9BA303B13";
paths = (
{
closed = 1;
nodes = (
"81 -129 LINE",
"124 -80 LINE",
"109 522 LINE",
"189 522 LINE",
"189 583 LINE",
"108 583 LINE",
"108 637 LINE SMOOTH",
"108 642 OFFCURVE",
"110 646 OFFCURVE",
"114 646 CURVE SMOOTH",
"228 652 LINE",
"232 -25 LINE",
"326 -25 LINE",
"327 20 LINE",
"294 33 LINE",
"302 710 LINE",
"85 710 LINE",
"42 661 LINE",
"43 583 LINE",
"3 565 LINE",
"3 522 LINE",
"44 522 LINE",
"52 -56 LINE SMOOTH",
"52 -61 OFFCURVE",
"50 -65 OFFCURVE",
"46 -65 CURVE SMOOTH",
"-57 -74 LINE",
"-57 -129 LINE"
);
}
);
width = 345;
}
);
},
{
glyphname = ordfeminine;
layers = (
{
layerId = "DC66480E-7BB6-4652-B43C-57E9BA303B13";
paths = (
{
closed = 1;
nodes = (
"86 355 LINE",
"97 459 LINE",
"137 484 LINE",
"155 355 LINE",
"187 355 LINE",
"166 710 LINE",
"67 710 LINE",
"45 355 LINE"
);
},
{
closed = 1;
nodes = (
"99 513 OFFCURVE",
"98 514 OFFCURVE",
"98 515 CURVE",
"98 669 LINE SMOOTH",
"98 671 OFFCURVE",
"99 673 OFFCURVE",
"101 674 CURVE",
"132 679 LINE SMOOTH",
"134 679 OFFCURVE",
"135 678 OFFCURVE",
"135 676 CURVE",
"130 516 LINE SMOOTH",
"130 514 OFFCURVE",
"129 513 OFFCURVE",
"127 513 CURVE SMOOTH",
"101 513 LINE SMOOTH"
);
}
);
width = 222;
}
);
unicode = 00AA;
},
{
glyphname = ordmasculine;
layers = (
{
layerId = "DC66480E-7BB6-4652-B43C-57E9BA303B13";
paths = (
{
closed = 1;
nodes = (
"160 355 LINE SMOOTH",
"180 355 OFFCURVE",
"187 362 OFFCURVE",
"187 374 CURVE SMOOTH",
"187 698 LINE SMOOTH",
"187 701 OFFCURVE",
"136 710 OFFCURVE",
"81 710 CURVE SMOOTH",
"62 710 OFFCURVE",
"50 703 OFFCURVE",
"50 698 CURVE",
"55 355 LINE"
);
},
{
closed = 1;
nodes = (
"93 396 LINE",
"103 657 LINE",
"103 658 OFFCURVE",
"104 659 OFFCURVE",
"107 660 CURVE SMOOTH",
"139 665 LINE",
"143 662 LINE",
"148 404 LINE",
"98 391 LINE"
);
}
);
width = 237;
}
);
unicode = 00BA;
},
{
glyphname = Delta;
layers = (
{
layerId = "DC66480E-7BB6-4652-B43C-57E9BA303B13";
paths = (
{
closed = 1;
nodes = (
"214 710 LINE",
"144 700 LINE",
"15 10 LINE",
"315 0 LINE"
);
},
{
closed = 1;
nodes = (
"165 664 LINE",
"178 662 LINE",
"238 74 LINE",
"92 64 LINE"
);
}
);
width = 330;
}
);
unicode = 0394;
},
{
glyphname = Omega;
layers = (
{
layerId = "DC66480E-7BB6-4652-B43C-57E9BA303B13";
paths = (
{
closed = 1;
nodes = (
"131 1 LINE",
"150 86 LINE",
"123 196 LINE",
"123 649 LINE SMOOTH",
"123 655 OFFCURVE",
"126 658 OFFCURVE",
"132 658 CURVE SMOOTH",
"218 658 LINE SMOOTH",
"224 658 OFFCURVE",
"227 655 OFFCURVE",
"227 649 CURVE SMOOTH",
"212 196 LINE",
"188 72 LINE",
"198 6 LINE",
"333 1 LINE",
"338 78 LINE",
"232 62 LINE",
"231 66 LINE",
"282 156 LINE",
"282 662 LINE",
"222 710 LINE",
"127 710 LINE",
"64 658 LINE",
"64 162 LINE",
"93 72 LINE",
"92 68 LINE",
"5 61 LINE",
"2 1 LINE"
);
}
);
width = 340;
}
);
unicode = 03A9;
},
{
glyphname = mu;
layers = (
{
layerId = "DC66480E-7BB6-4652-B43C-57E9BA303B13";
paths = (
{
closed = 1;
nodes = (
"132 -222 LINE",
"89 -9 LINE",
"265 -9 LINE",
"265 683 LINE",
"195 687 LINE",
"195 79 LINE",
"111 73 LINE",
"132 710 LINE",
"58 690 LINE",
"35 -9 LINE",
"43 -236 LINE"
);
}
);
width = 304;
}
);
unicode = 03BC;
},
{
glyphname = pi;
layers = (
{
layerId = "DC66480E-7BB6-4652-B43C-57E9BA303B13";
paths = (
{
closed = 1;
nodes = (
"140 636 LINE",
"213 609 LINE",
"213 23 LINE",
"267 23 LINE",
"267 609 LINE",
"329 645 LINE",
"329 715 LINE",
"274 689 LINE SMOOTH",
"249 677 OFFCURVE",
"234 670 OFFCURVE",
"223 670 CURVE SMOOTH",
"208 670 OFFCURVE",
"193 676 OFFCURVE",
"164 688 CURVE",
"105 712 LINE",
"11 665 LINE",
"14 591 LINE",
"56 618 LINE",
"82 634 LINE",
"61 10 LINE",
"140 0 LINE"
);
}
);
width = 342;
}
);
unicode = 03C0;
},
{
glyphname = zero;
layers = (
{
layerId = "DC66480E-7BB6-4652-B43C-57E9BA303B13";
paths = (
{
closed = 1;
nodes = (
"252 0 LINE",
"291 41 LINE",
"290 676 LINE",
"236 710 LINE",
"105 709 LINE",
"51 676 LINE",
"48 44 LINE",
"101 0 LINE"
);
},
{
closed = 1;
nodes = (
"126 66 OFFCURVE",
"122 70 OFFCURVE",
"122 79 CURVE SMOOTH",
"122 632 LINE SMOOTH",
"122 643 OFFCURVE",
"131 647 OFFCURVE",
"141 647 CURVE SMOOTH",
"203 647 LINE SMOOTH",
"213 647 OFFCURVE",
"220 640 OFFCURVE",
"220 633 CURVE SMOOTH",
"220 78 LINE SMOOTH",
"220 72 OFFCURVE",
"216 68 OFFCURVE",
"205 68 CURVE SMOOTH",
"135 66 LINE SMOOTH"
);
},
{
closed = 1;
nodes = (
"199 321 LINE",
"205 412 LINE",
"135 398 LINE",
"144 321 LINE"
);
}
);
width = 339;
}
);
unicode = 0030;
},
{
glyphname = one;
layers = (
{
layerId = "DC66480E-7BB6-4652-B43C-57E9BA303B13";
paths = (
{
closed = 1;
nodes = (
"318 0 LINE",
"318 67 LINE",
"223 67 LINE",
"223 711 LINE",
"53 711 LINE",
"53 669 LINE",
"68 638 LINE",
"148 638 LINE",
"141 67 LINE",
"37 67 LINE",
"37 0 LINE"
);
}
);
width = 339;
}
);
unicode = 0031;
},
{
glyphname = two;
layers = (
{
layerId = "DC66480E-7BB6-4652-B43C-57E9BA303B13";
paths = (
{
closed = 1;
nodes = (
"295 0 LINE",
"295 68 LINE",
"134 68 LINE",
"156 287 LINE",
"274 410 LINE",
"274 663 LINE SMOOTH",
"274 663 OFFCURVE",
"234 710 OFFCURVE",
"234 710 CURVE SMOOTH",
"57 710 LINE",
"57 563 LINE",
"105 563 LINE",
"120 650 LINE",
"204 650 LINE",
"190 434 LINE",
"66 301 LINE",
"66 301 OFFCURVE",
"66 0 OFFCURVE",
"66 0 CURVE"
);
}
);
width = 339;
}
);
unicode = 0032;
},
{
glyphname = three;
layers = (
{
layerId = "DC66480E-7BB6-4652-B43C-57E9BA303B13";
paths = (
{
closed = 1;
nodes = (
"229 0 LINE SMOOTH",
"229 0 OFFCURVE",
"284 58 OFFCURVE",
"284 58 CURVE SMOOTH",
"284 325 LINE",
"284 370 OFFCURVE",
"220 382 OFFCURVE",
"220 382 CURVE",
"220 382 OFFCURVE",
"281 398 OFFCURVE",
"281 441 CURVE",
"281 655 LINE SMOOTH",
"281 655 OFFCURVE",
"213 710 OFFCURVE",
"213 710 CURVE SMOOTH",
"43 710 LINE",
"43 559 LINE",
"91 559 LINE",
"106 648 LINE",
"208 648 LINE",
"201 426 LINE",
"188 412 LINE",
"84 412 LINE",
"84 342 LINE",
"188 342 LINE",
"201 326 LINE",
"208 69 LINE",
"121 69 LINE",
"98 160 LINE",
"54 160 LINE",
"54 0 LINE"
);
}
);
width = 339;
}
);
unicode = 0033;
},
{
glyphname = four;
layers = (
{
layerId = "DC66480E-7BB6-4652-B43C-57E9BA303B13";
paths = (
{
closed = 1;
nodes = (
"272 0 LINE",
"271 151 LINE",
"329 151 LINE",
"329 208 LINE",
"271 224 LINE",
"269 711 LINE",
"159 710 LINE",
"31 211 LINE",
"50 151 LINE",
"196 151 LINE",
"197 0 LINE"
);
},
{
closed = 1;
nodes = (
"210 664 LINE",
"217 664 LINE",
"193 224 LINE",
"107 224 LINE"
);
}
);
width = 339;
}
);
unicode = 0034;
},
{
glyphname = five;
layers = (
{
layerId = "DC66480E-7BB6-4652-B43C-57E9BA303B13";
paths = (
{
closed = 1;
nodes = (
"230 0 LINE SMOOTH",
"230 0 OFFCURVE",
"283 47 OFFCURVE",
"283 47 CURVE SMOOTH",
"283 356 LINE SMOOTH",
"283 356 OFFCURVE",
"221 409 OFFCURVE",
"221 409 CURVE SMOOTH",
"155 409 LINE",
"137 642 LINE",
"290 642 LINE",
"290 710 LINE",
"75 710 LINE",
"75 710 OFFCURVE",
"75 347 OFFCURVE",
"75 347 CURVE",
"204 335 LINE",
"216 80 LINE",
"129 65 LINE",
"109 162 LINE",
"63 162 LINE",
"63 0 LINE"
);
}
);
width = 339;
}
);
unicode = 0035;
},
{
glyphname = six;
layers = (
{
layerId = "DC66480E-7BB6-4652-B43C-57E9BA303B13";
paths = (
{
closed = 1;
nodes = (
"239 0 LINE SMOOTH",
"239 0 OFFCURVE",
"291 47 OFFCURVE",
"291 47 CURVE SMOOTH",
"291 353 LINE SMOOTH",
"291 353 OFFCURVE",
"229 406 OFFCURVE",
"229 406 CURVE SMOOTH",
"124 407 LINE",
"117 642 LINE",
"208 642 LINE",
"230 548 LINE",
"276 548 LINE",
"276 710 LINE",
"103 710 LINE SMOOTH",
"103 710 OFFCURVE",
"49 653 OFFCURVE",
"49 653 CURVE SMOOTH",
"50 47 LINE SMOOTH",
"50 47 OFFCURVE",
"105 0 OFFCURVE",
"105 0 CURVE"
);
},
{
closed = 1;
nodes = (
"127 74 LINE",
"119 82 LINE",
"119 328 LINE",
"212 328 LINE",
"220 321 LINE",
"220 79 LINE",
"212 69 LINE"
);
}
);
width = 339;
}
);
unicode = 0036;
},
{
glyphname = seven;
layers = (
{
layerId = "DC66480E-7BB6-4652-B43C-57E9BA303B13";
paths = (
{
closed = 1;
nodes = (
"162 0 LINE",
"290 665 LINE",
"290 710 LINE",
"51 710 LINE",
"51 550 LINE",
"100 550 LINE",
"116 643 LINE",
"217 643 LINE",
"83 0 LINE"
);
}
);
width = 339;
}
);
unicode = 0037;
},
{
glyphname = eight;
layers = (
{
layerId = "DC66480E-7BB6-4652-B43C-57E9BA303B13";
paths = (
{
closed = 1;
nodes = (
"241 0 LINE SMOOTH",
"241 0 OFFCURVE",
"294 53 OFFCURVE",
"294 53 CURVE",
"295 310 LINE",
"295 358 OFFCURVE",
"237 375 OFFCURVE",
"237 375 CURVE",
"237 375 OFFCURVE",
"285 402 OFFCURVE",
"285 438 CURVE",
"285 655 LINE SMOOTH",
"285 655 OFFCURVE",
"237 710 OFFCURVE",
"237 710 CURVE",
"112 710 LINE SMOOTH",
"112 710 OFFCURVE",
"57 655 OFFCURVE",
"57 655 CURVE SMOOTH",
"57 437 LINE",
"57 398 OFFCURVE",
"111 375 OFFCURVE",
"111 375 CURVE",
"111 375 OFFCURVE",
"48 357 OFFCURVE",
"48 307 CURVE",
"49 53 LINE",
"49 53 OFFCURVE",
"109 0 OFFCURVE",
"109 0 CURVE SMOOTH"
);
},
{
closed = 1;
nodes = (
"120 86 LINE",
"117 306 LINE",
"139 327 LINE",
"200 327 LINE",
"223 306 LINE",
"220 84 LINE",
"208 74 LINE",
"134 74 LINE"
);
},
{
closed = 1;
nodes = (
"123 436 LINE",
"128 634 LINE",
"140 646 LINE",
"200 646 LINE",
"212 634 LINE",
"217 436 LINE",
"197 420 LINE",
"145 420 LINE"
);
}
);
width = 339;
}
);
unicode = 0038;
},
{
glyphname = nine;
layers = (
{
layerId = "DC66480E-7BB6-4652-B43C-57E9BA303B13";
paths = (
{
closed = 1;
nodes = (
"237 0 LINE",
"237 0 OFFCURVE",
"291 57 OFFCURVE",
"291 57 CURVE",
"290 663 LINE",
"290 663 OFFCURVE",
"235 710 OFFCURVE",
"235 710 CURVE",
"101 710 LINE",
"101 710 OFFCURVE",
"49 663 OFFCURVE",
"49 663 CURVE",
"49 357 LINE",
"49 357 OFFCURVE",
"111 304 OFFCURVE",
"111 304 CURVE",
"221 305 LINE",
"215 76 LINE",
"132 65 LINE",
"110 162 LINE",
"64 162 LINE",
"64 0 LINE"
);
},
{
closed = 1;
nodes = (
"120 381 LINE",
"120 631 LINE",
"128 641 LINE",
"213 642 LINE",
"221 634 LINE",
"221 374 LINE",
"128 374 LINE"
);
}
);
width = 339;
}
);
unicode = 0039;
},
{
glyphname = zero.ss01;
layers = (
{
layerId = "DC66480E-7BB6-4652-B43C-57E9BA303B13";
paths = (
{
closed = 1;
nodes = (
"252 0 LINE SMOOTH",
"274 0 OFFCURVE",
"291 17 OFFCURVE",
"291 41 CURVE SMOOTH",
"290 650 LINE SMOOTH",
"290 667 OFFCURVE",
"271 710 OFFCURVE",
"236 710 CURVE SMOOTH",
"105 710 LINE SMOOTH",
"73 710 OFFCURVE",
"51 690 OFFCURVE",
"51 663 CURVE SMOOTH",
"48 44 LINE SMOOTH",
"48 14 OFFCURVE",
"68 0 OFFCURVE",
"101 0 CURVE SMOOTH"
);
},
{
closed = 1;
nodes = (
"126 66 OFFCURVE",
"122 70 OFFCURVE",
"122 70 CURVE",
"116 641 LINE",
"116 641 OFFCURVE",
"120 647 OFFCURVE",
"120 647 CURVE",
"203 647 LINE SMOOTH",
"213 647 OFFCURVE",
"220 640 OFFCURVE",
"220 633 CURVE SMOOTH",
"220 74 LINE",
"220 74 OFFCURVE",
"216 68 OFFCURVE",
"216 68 CURVE",
"126 66 LINE"
);
},
{
closed = 1;
nodes = (
"199 321 LINE",
"208 400 LINE",
"136 411 LINE",
"144 321 LINE"
);
}
);
width = 339;
}
);
},
{
glyphname = one.ss01;
layers = (
{
layerId = "DC66480E-7BB6-4652-B43C-57E9BA303B13";
paths = (
{
closed = 1;
nodes = (
"312 0 LINE",
"312 35 LINE",
"291 67 LINE",
"223 67 LINE",
"223 710 LINE",
"53 687 LINE",
"53 625 LINE",
"148 625 LINE",
"141 67 LINE",
"37 67 LINE",
"37 0 LINE"
);
}
);
width = 339;
}
);
},
{
glyphname = two.ss01;
layers = (
{
layerId = "DC66480E-7BB6-4652-B43C-57E9BA303B13";
paths = (
{
closed = 1;
nodes = (
"295 0 LINE",
"295 68 LINE",
"134 68 LINE",
"156 306 LINE",
"274 398 LINE",
"274 663 LINE SMOOTH",
"274 696 OFFCURVE",
"255 710 OFFCURVE",
"234 710 CURVE SMOOTH",
"66 710 LINE",
"66 661 LINE",
"202 630 LINE",
"190 434 LINE",
"66 332 LINE",
"66 332 OFFCURVE",
"66 0 OFFCURVE",
"66 0 CURVE"
);
}
);
width = 339;
}
);
},
{
glyphname = three.ss01;
layers = (
{
layerId = "DC66480E-7BB6-4652-B43C-57E9BA303B13";
paths = (
{
closed = 1;
nodes = (
"211 0 LINE SMOOTH",
"246 0 OFFCURVE",
"285 24 OFFCURVE",
"284 69 CURVE SMOOTH",
"284 334 LINE",
"158 382 LINE",
"281 441 LINE",
"281 655 LINE SMOOTH",
"281 680 OFFCURVE",
"251 710 OFFCURVE",
"213 710 CURVE SMOOTH",
"62 710 LINE",
"62 659 LINE",
"210 631 LINE",
"200 476 LINE",
"84 408 LINE",
"84 346 LINE",
"199 291 LINE",
"211 69 LINE",
"81 69 LINE",
"54 37 LINE",
"54 0 LINE"
);
}
);
width = 339;
}
);
},
{
glyphname = four.ss01;
layers = (
{
layerId = "DC66480E-7BB6-4652-B43C-57E9BA303B13";
paths = (
{
closed = 1;
nodes = (
"272 0 LINE",
"271 151 LINE",
"316 151 LINE",
"330 184 LINE",
"330 226 LINE",
"271 226 LINE",
"269 471 LINE",
"212 471 LINE",
"193 226 LINE",
"103 226 LINE",
"239 710 LINE",
"159 710 LINE",
"32 211 LINE",
"33 151 LINE",
"196 151 LINE",
"208 0 LINE"
);
}
);
width = 339;
}
);
},
{
glyphname = five.ss01;
layers = (
{
layerId = "DC66480E-7BB6-4652-B43C-57E9BA303B13";
paths = (
{
closed = 1;
nodes = (
"243 0 LINE SMOOTH",
"264 0 OFFCURVE",
"283 14 OFFCURVE",
"283 47 CURVE SMOOTH",
"283 356 LINE SMOOTH",
"283 391 OFFCURVE",
"265 409 OFFCURVE",
"221 409 CURVE SMOOTH",
"155 409 LINE",
"137 642 LINE",
"273 642 LINE",
"290 673 LINE",
"290 710 LINE",
"75 710 LINE",
"75 710 OFFCURVE",
"75 347 OFFCURVE",
"75 347 CURVE",
"204 335 LINE",
"216 80 LINE",
"63 49 LINE",
"63 0 LINE"
);
}
);
width = 339;
}
);
},
{
glyphname = six.ss01;
layers = (
{
layerId = "DC66480E-7BB6-4652-B43C-57E9BA303B13";
paths = (
{
closed = 1;
nodes = (
"251 0 LINE SMOOTH",
"272 0 OFFCURVE",
"291 14 OFFCURVE",
"291 47 CURVE SMOOTH",
"291 336 LINE SMOOTH",
"291 371 OFFCURVE",
"272 381 OFFCURVE",
"229 389 CURVE SMOOTH",
"124 409 LINE",
"117 642 LINE",
"266 642 LINE",
"266 673 LINE",
"241 710 LINE",
"122 710 LINE SMOOTH",
"90 710 OFFCURVE",
"49 702 OFFCURVE",
"49 653 CURVE SMOOTH",
"50 47 LINE SMOOTH",
"50 14 OFFCURVE",
"69 0 OFFCURVE",
"90 0 CURVE"
);
},
{
closed = 1;
nodes = (
"127 74 LINE",
"119 82 LINE",
"119 334 LINE",
"212 308 LINE",
"220 301 LINE",
"220 79 LINE",
"212 69 LINE"
);
}
);
width = 339;
}
);
},
{
glyphname = seven.ss01;
layers = (
{
layerId = "DC66480E-7BB6-4652-B43C-57E9BA303B13";
paths = (
{
closed = 1;
nodes = (
"162 0 LINE",
"227 340 LINE",
"288 340 LINE",
"288 390 LINE",
"239 403 LINE",
"290 665 LINE",
"290 710 LINE",
"51 710 LINE",
"51 677 LINE",
"74 643 LINE",
"212 643 LINE",
"164 408 LINE",
"65 408 LINE",
"65 340 LINE",
"151 340 LINE",
"83 0 LINE"
);
}
);
width = 339;
}
);
},
{
glyphname = eight.ss01;
layers = (
{
layerId = "DC66480E-7BB6-4652-B43C-57E9BA303B13";
paths = (
{
closed = 1;
nodes = (
"221 0 LINE SMOOTH",
"256 0 OFFCURVE",
"295 24 OFFCURVE",
"294 69 CURVE",
"295 325 LINE",
"225 384 LINE",
"285 438 LINE",
"285 655 LINE SMOOTH",
"285 680 OFFCURVE",
"255 710 OFFCURVE",
"217 710 CURVE",
"125 710 LINE SMOOTH",
"87 710 OFFCURVE",
"57 680 OFFCURVE",
"57 655 CURVE SMOOTH",
"57 431 LINE",
"127 375 LINE",
"48 307 LINE",
"49 69 LINE",
"48 24 OFFCURVE",
"87 0 OFFCURVE",
"122 0 CURVE SMOOTH"
);
},
{
closed = 1;
nodes = (
"120 86 LINE",
"117 287 LINE",
"173 338 LINE",
"223 293 LINE",
"220 84 LINE",
"208 74 LINE",
"134 74 LINE"
);
},
{
closed = 1;
nodes = (
"123 472 LINE",
"128 634 LINE",
"140 646 LINE",
"200 646 LINE",
"212 634 LINE",
"217 462 LINE",
"178 423 LINE"
);
}
);
width = 339;
}
);
},
{
glyphname = nine.ss01;
layers = (
{
layerId = "DC66480E-7BB6-4652-B43C-57E9BA303B13";
paths = (
{
closed = 1;
nodes = (
"218 0 LINE SMOOTH",
"250 0 OFFCURVE",
"291 8 OFFCURVE",
"291 57 CURVE SMOOTH",
"290 663 LINE SMOOTH",
"290 696 OFFCURVE",
"271 710 OFFCURVE",
"250 710 CURVE",
"89 710 LINE",
"68 710 OFFCURVE",
"49 696 OFFCURVE",
"49 663 CURVE SMOOTH",
"49 374 LINE",
"49 339 OFFCURVE",
"67 327 OFFCURVE",
"111 321 CURVE SMOOTH",
"216 306 LINE",
"219 79 LINE",
"75 55 LINE",
"75 0 LINE"
);
},
{
closed = 1;
nodes = (
"128 395 LINE",
"120 402 LINE",
"120 631 LINE",
"128 641 LINE",
"212 645 LINE",
"220 637 LINE",
"218 377 LINE"
);
}
);
width = 339;
}
);
},
{
glyphname = zero.zero;
layers = (
{
layerId = "DC66480E-7BB6-4652-B43C-57E9BA303B13";
paths = (
{
closed = 1;
nodes = (
"252 0 LINE",
"291 41 LINE",
"290 676 LINE",
"236 710 LINE",
"105 709 LINE",
"51 676 LINE",
"48 44 LINE",
"101 0 LINE"
);
},
{
closed = 1;
nodes = (
"126 66 OFFCURVE",
"122 70 OFFCURVE",
"122 79 CURVE SMOOTH",
"122 632 LINE SMOOTH",
"122 643 OFFCURVE",
"131 647 OFFCURVE",
"141 647 CURVE SMOOTH",
"203 647 LINE SMOOTH",
"213 647 OFFCURVE",
"220 640 OFFCURVE",
"220 633 CURVE SMOOTH",
"220 78 LINE SMOOTH",
"220 72 OFFCURVE",
"216 68 OFFCURVE",
"205 68 CURVE SMOOTH",
"135 66 LINE SMOOTH"
);
},
{
closed = 1;
nodes = (
"205 431 LINE",
"206 561 LINE",
"196 566 LINE",
"132 257 LINE",
"137 153 LINE",
"151 152 LINE"
);
}
);
width = 339;
}
);
},
{
glyphname = onesuperior;
layers = (
{
layerId = "DC66480E-7BB6-4652-B43C-57E9BA303B13";
paths = (
{
closed = 1;
nodes = (
"200 345 LINE",
"194 399 LINE",
"147 397 LINE",
"147 710 LINE",
"112 710 LINE",
"47 679 LINE",
"47 652 LINE",
"97 649 LINE",
"89 394 LINE",
"45 394 LINE",
"45 345 LINE"
);
}
);
width = 245;
}
);
unicode = 00B9;
},
{
glyphname = twosuperior;
layers = (
{
layerId = "DC66480E-7BB6-4652-B43C-57E9BA303B13";
paths = (
{
closed = 1;
nodes = (
"203 345 LINE",
"203 392 LINE",
"113 403 LINE",
"192 533 LINE",
"199 710 LINE",
"99 710 LINE",
"62 662 LINE",
"62 566 LINE",
"96 568 LINE",
"106 659 LINE",
"148 659 LINE",
"143 554 LINE",
"53 399 LINE",
"45 345 LINE"
);
}
);
width = 248;
}
);
unicode = 00B2;
},
{
glyphname = threesuperior;
layers = (
{
layerId = "DC66480E-7BB6-4652-B43C-57E9BA303B13";
paths = (
{
closed = 1;
nodes = (
"160 345 LINE",
"187 375 LINE",
"187 545 LINE",
"183 550 OFFCURVE",
"177 561 OFFCURVE",
"172 568 CURVE",
"185 581 LINE",
"189 595 LINE",
"189 710 LINE",
"73 710 LINE",
"45 684 LINE",
"45 657 LINE",
"144 661 LINE",
"142 604 LINE",
"57 558 LINE",
"77 533 LINE",
"135 536 LINE",
"143 395 LINE",
"95 400 LINE",
"90 461 LINE",
"50 461 LINE",
"50 345 LINE"
);
}
);
width = 234;
}
);
unicode = 00B3;
},
{
glyphname = foursuperior;
layers = (
{
layerId = "DC66480E-7BB6-4652-B43C-57E9BA303B13";
paths = (
{
closed = 1;
nodes = (
"158 345 LINE",
"158 419 LINE",
"193 419 LINE",
"193 460 LINE",
"158 467 LINE",
"157 710 LINE",
"85 710 LINE",
"10 454 LINE",
"20 419 LINE",
"112 419 LINE",
"112 345 LINE"
);
},
{
closed = 1;
nodes = (
"112 653 LINE",
"116 653 LINE",
"110 470 LINE",
"63 470 LINE"
);
}
);
width = 198;
}
);
unicode = 2074;
},
{
glyphname = fraction;
layers = (
{
layerId = "DC66480E-7BB6-4652-B43C-57E9BA303B13";
paths = (
{
closed = 1;
nodes = (
"395 679 LINE",
"361 707 LINE",
"0 33 LINE",
"39 -2 LINE"
);
}
);
width = 395;
}
);
unicode = 2044;
},
{
glyphname = onehalf;
layers = (
{
layerId = "DC66480E-7BB6-4652-B43C-57E9BA303B13";
paths = (
{
closed = 1;
nodes = (
"429 679 LINE",
"395 707 LINE",
"34 33 LINE",
"73 -2 LINE"
);
},
{
closed = 1;
nodes = (
"417 0 LINE",
"417 47 LINE",
"327 58 LINE",
"406 158 LINE",
"413 325 LINE",
"313 325 LINE",
"276 277 LINE",
"276 191 LINE",
"310 193 LINE",
"320 274 LINE",
"362 274 LINE",
"357 179 LINE",
"267 54 LINE",
"259 0 LINE"
);
},
{
closed = 1;
nodes = (
"170 395 LINE",
"164 449 LINE",
"117 447 LINE",
"117 710 LINE",
"87 710 LINE",
"22 679 LINE",
"22 652 LINE",
"73 649 LINE",
"65 444 LINE",
"20 444 LINE",
"20 395 LINE"
);
}
);
width = 449;
}
);
unicode = 00BD;
},
{
glyphname = onethird;
layers = (
{
layerId = "DC66480E-7BB6-4652-B43C-57E9BA303B13";
paths = (
{
closed = 1;
nodes = (
"429 679 LINE",
"395 707 LINE",
"34 33 LINE",
"73 -2 LINE"
);
},
{
closed = 1;
nodes = (
"396 0 LINE",
"423 30 LINE",
"423 170 LINE",
"419 175 OFFCURVE",
"413 186 OFFCURVE",
"408 193 CURVE",
"421 206 LINE",
"425 220 LINE",
"425 315 LINE",
"309 315 LINE",
"281 289 LINE",
"281 262 LINE",
"380 266 LINE",
"378 229 LINE",
"293 183 LINE",
"313 158 LINE",
"371 161 LINE",
"379 50 LINE",
"331 55 LINE",
"326 116 LINE",
"286 116 LINE",
"286 0 LINE"
);
},
{
closed = 1;
nodes = (
"170 395 LINE",
"164 449 LINE",
"117 447 LINE",
"117 710 LINE",
"87 710 LINE",
"22 679 LINE",
"22 652 LINE",
"73 649 LINE",
"65 444 LINE",
"20 444 LINE",
"20 395 LINE"
);
}
);
width = 449;
}
);
unicode = 2153;
},
{
glyphname = twothirds;
layers = (
{
layerId = "DC66480E-7BB6-4652-B43C-57E9BA303B13";
paths = (
{
closed = 1;
nodes = (
"429 679 LINE",
"395 707 LINE",
"34 33 LINE",
"73 -2 LINE"
);
},
{
closed = 1;
nodes = (
"396 0 LINE",
"423 30 LINE",
"423 170 LINE",
"419 175 OFFCURVE",
"413 186 OFFCURVE",
"408 193 CURVE",
"421 206 LINE",
"425 220 LINE",
"425 315 LINE",
"309 315 LINE",
"281 289 LINE",
"281 262 LINE",
"380 266 LINE",
"378 229 LINE",
"293 183 LINE",
"313 158 LINE",
"371 161 LINE",
"379 50 LINE",
"331 55 LINE",
"326 116 LINE",
"286 116 LINE",
"286 0 LINE"
);
},
{
closed = 1;
nodes = (
"172 391 LINE",
"172 438 LINE",
"82 449 LINE",
"161 545 LINE",
"168 709 LINE",
"68 709 LINE",
"31 661 LINE",
"31 578 LINE",
"65 580 LINE",
"75 658 LINE",
"117 658 LINE",
"112 566 LINE",
"22 445 LINE",
"14 391 LINE"
);
}
);
width = 449;
}
);
unicode = 2154;
},
{
glyphname = onequarter;
layers = (
{
layerId = "DC66480E-7BB6-4652-B43C-57E9BA303B13";
paths = (
{
closed = 1;
nodes = (
"429 679 LINE",
"395 707 LINE",
"34 33 LINE",
"73 -2 LINE"
);
},
{
closed = 1;
nodes = (
"393 0 LINE",
"393 325 LINE",
"317 325 LINE",
"241 121 LINE",
"263 90 LINE",
"349 90 LINE",
"346 0 LINE"
);
},
{
closed = 1;
nodes = (
"347 298 LINE",
"351 298 LINE",
"344 133 LINE",
"295 128 LINE"
);
},
{
closed = 1;
nodes = (
"170 395 LINE",
"164 449 LINE",
"117 447 LINE",
"117 710 LINE",
"87 710 LINE",
"22 679 LINE",
"22 652 LINE",
"73 649 LINE",
"65 444 LINE",
"20 444 LINE",
"20 395 LINE"
);
}
);
width = 449;
}
);
unicode = 00BC;
},
{
glyphname = threequarters;
layers = (
{
layerId = "DC66480E-7BB6-4652-B43C-57E9BA303B13";
paths = (
{
closed = 1;
nodes = (
"429 679 LINE",
"395 707 LINE",
"34 33 LINE",
"73 -2 LINE"
);
},
{
closed = 1;
nodes = (
"393 0 LINE",
"393 325 LINE",
"317 325 LINE",
"241 121 LINE",
"263 90 LINE",
"349 90 LINE",
"346 0 LINE"
);
},
{
closed = 1;
nodes = (
"347 298 LINE",
"351 298 LINE",
"344 133 LINE",
"295 128 LINE"
);
},
{
closed = 1;
nodes = (
"151 395 LINE",
"178 425 LINE",
"178 565 LINE",
"174 570 OFFCURVE",
"168 581 OFFCURVE",
"163 588 CURVE",
"176 601 LINE",
"180 615 LINE",
"180 710 LINE",
"64 710 LINE",
"36 684 LINE",
"36 657 LINE",
"135 661 LINE",
"133 624 LINE",
"48 578 LINE",
"68 553 LINE",
"126 556 LINE",
"134 445 LINE",
"86 450 LINE",
"81 511 LINE",
"41 511 LINE",
"41 395 LINE"
);
}
);
width = 449;
}
);
unicode = 00BE;
},
{
glyphname = oneeighth;
layers = (
{
layerId = "DC66480E-7BB6-4652-B43C-57E9BA303B13";
paths = (
{
closed = 1;
nodes = (
"429 679 LINE",
"395 707 LINE",
"34 33 LINE",
"73 -2 LINE"
);
},
{
closed = 1;
nodes = (
"327 134 LINE",
"379 121 LINE",
"375 38 LINE",
"314 38 LINE"
);
},
{
closed = 1;
nodes = (
"407 0 LINE",
"419 24 LINE",
"423 140 LINE",
"394 157 LINE",
"416 168 LINE",
"424 312 LINE",
"317 317 LINE",
"281 301 LINE",
"281 175 LINE",
"304 156 LINE",
"279 131 LINE",
"269 29 LINE",
"279 0 LINE"
);
},
{
closed = 1;
nodes = (
"327 179 LINE",
"329 276 LINE",
"379 276 LINE",
"371 168 LINE"
);
},
{
closed = 1;
nodes = (
"170 395 LINE",
"164 449 LINE",
"117 447 LINE",
"117 710 LINE",
"87 710 LINE",
"22 679 LINE",
"22 652 LINE",
"73 649 LINE",
"65 444 LINE",
"20 444 LINE",
"20 395 LINE"
);
}
);
width = 449;
}
);
unicode = 215B;
},
{
glyphname = period;
layers = (
{
layerId = "DC66480E-7BB6-4652-B43C-57E9BA303B13";
paths = (
{
closed = 1;
nodes = (
"152 0 LINE",
"156 96 LINE",
"60 92 LINE",
"60 0 LINE"
);
}
);
width = 206;
}
);
leftKerningGroup = period;
unicode = 002E;
},
{
glyphname = comma;
layers = (
{
layerId = "DC66480E-7BB6-4652-B43C-57E9BA303B13";
paths = (
{
closed = 1;
nodes = (
"111 0 LINE",
"115 96 LINE",
"29 92 LINE",
"61 0 LINE",
"20 -95 LINE",
"63 -110 LINE"
);
}
);
width = 145;
}
);
leftKerningGroup = period;
unicode = 002C;
},
{
glyphname = colon;
layers = (
{
layerId = "DC66480E-7BB6-4652-B43C-57E9BA303B13";
paths = (
{
closed = 1;
nodes = (
"156 394 LINE",
"156 486 LINE",
"60 490 LINE",
"64 394 LINE"
);
},
{
closed = 1;
nodes = (
"152 0 LINE",
"156 96 LINE",
"60 92 LINE",
"60 0 LINE"
);
}
);
width = 206;
}
);
leftKerningGroup = colon;
rightKerningGroup = colon;
unicode = 003A;
},
{
glyphname = semicolon;
layers = (
{
layerId = "DC66480E-7BB6-4652-B43C-57E9BA303B13";
paths = (
{
closed = 1;
nodes = (
"151 0 LINE",
"155 96 LINE",
"69 92 LINE",
"101 0 LINE",
"60 -95 LINE",
"103 -110 LINE"
);
},
{
closed = 1;
nodes = (
"156 394 LINE",
"156 486 LINE",
"60 490 LINE",
"64 394 LINE"
);
}
);
width = 206;
}
);
leftKerningGroup = colon;
unicode = 003B;
},
{
glyphname = ellipsis;
layers = (
{
layerId = "DC66480E-7BB6-4652-B43C-57E9BA303B13";
paths = (
{
closed = 1;
nodes = (
"564 0 LINE",
"568 96 LINE",
"472 92 LINE",
"472 0 LINE"
);
},
{
closed = 1;
nodes = (
"152 0 LINE",
"156 96 LINE",
"60 92 LINE",
"60 0 LINE"
);
},
{
closed = 1;
nodes = (
"358 0 LINE",
"362 96 LINE",
"266 92 LINE",
"266 0 LINE"
);
}
);
width = 618;
}
);
leftKerningGroup = period;
unicode = 2026;
},
{
glyphname = exclam;
layers = (
{
layerId = "DC66480E-7BB6-4652-B43C-57E9BA303B13";
paths = (
{
closed = 1;
nodes = (
"154 710 LINE",
"50 710 LINE",
"73 190 LINE",
"116 184 LINE"
);
},
{
closed = 1;
nodes = (
"142 0 LINE",
"146 96 LINE",
"50 92 LINE",
"50 0 LINE"
);
}
);
width = 206;
}
);
unicode = 0021;
},
{
glyphname = exclamdown;
layers = (
{
layerId = "DC66480E-7BB6-4652-B43C-57E9BA303B13";
paths = (
{
closed = 1;
nodes = (
"146 0 LINE",
"119 523 LINE",
"78 523 LINE",
"42 0 LINE"
);
},
{
closed = 1;
nodes = (
"146 710 LINE",
"54 710 LINE",
"50 623 LINE",
"143 618 LINE"
);
}
);
width = 206;
}
);
unicode = 00A1;
},
{
glyphname = question;
layers = (
{
layerId = "DC66480E-7BB6-4652-B43C-57E9BA303B13";
paths = (
{
closed = 1;
nodes = (
"160 319 LINE",
"257 464 LINE",
"270 710 LINE",
"137 710 LINE",
"51 690 LINE",
"51 549 LINE",
"100 542 LINE",
"103 622 LINE",
"121 646 LINE",
"195 646 LINE",
"183 492 LINE",
"101 359 LINE",
"101 163 LINE",
"146 155 LINE"
);
},
{
closed = 1;
nodes = (
"170 0 LINE",
"174 96 LINE",
"78 92 LINE",
"78 0 LINE"
);
}
);
width = 334;
}
);
unicode = 003F;
},
{
glyphname = questiondown;
layers = (
{
layerId = "DC66480E-7BB6-4652-B43C-57E9BA303B13";
paths = (
{
closed = 1;
nodes = (
"209 0 LINE",
"295 20 LINE",
"274 161 LINE",
"225 168 LINE",
"225 64 LINE",
"151 64 LINE",
"163 218 LINE",
"244 332 LINE",
"244 525 LINE",
"199 525 LINE",
"186 372 LINE",
"89 246 LINE",
"76 0 LINE"
);
},
{
closed = 1;
nodes = (
"266 710 LINE",
"174 710 LINE",
"170 623 LINE",
"263 618 LINE"
);
}
);
width = 334;
}
);
unicode = 00BF;
},
{
glyphname = periodcentered;
layers = (
{
layerId = "DC66480E-7BB6-4652-B43C-57E9BA303B13";
paths = (
{
closed = 1;
nodes = (
"152 321 LINE",
"156 417 LINE",
"60 413 LINE",
"60 321 LINE"
);
}
);
width = 206;
}
);
unicode = 00B7;
},
{
glyphname = bullet;
layers = (
{
layerId = "DC66480E-7BB6-4652-B43C-57E9BA303B13";
paths = (
{
closed = 1;
nodes = (
"192 272 LINE",
"197 420 LINE",
"44 425 LINE",
"51 272 LINE"
);
}
);
width = 263;
}
);
unicode = 2022;
},
{
glyphname = asterisk;
layers = (
{
layerId = "DC66480E-7BB6-4652-B43C-57E9BA303B13";
paths = (
{
closed = 1;
nodes = (
"300 284 LINE",
"285 453 LINE",
"430 363 LINE",
"468 430 LINE",
"312 502 LINE",
"459 580 LINE",
"420 646 LINE",
"281 549 LINE",
"287 710 LINE",
"210 710 LINE",
"224 550 LINE",
"93 632 LINE",
"55 565 LINE",
"197 499 LINE",
"56 424 LINE",
"95 358 LINE",
"228 451 LINE",
"223 284 LINE"
);
}
);
width = 523;
}
);
unicode = 002A;
},
{
glyphname = numbersign;
layers = (
{
layerId = "DC66480E-7BB6-4652-B43C-57E9BA303B13";
paths = (
{
closed = 1;
nodes = (
"149 257 LINE",
"224 259 LINE",
"192 92 LINE",
"250 78 LINE",
"282 261 LINE",
"383 263 LINE",
"383 312 LINE",
"291 312 LINE",
"305 390 LINE",
"412 390 LINE",
"412 439 LINE",
"314 441 LINE",
"347 622 LINE",
"296 632 LINE",
"259 442 LINE",
"182 444 LINE",
"214 622 LINE",
"163 632 LINE",
"127 445 LINE",
"24 448 LINE",
"27 390 LINE",
"116 390 LINE",
"101 312 LINE",
"-2 312 LINE",
"-5 254 LINE",
"90 256 LINE",
"59 92 LINE",
"117 78 LINE"
);
},
{
closed = 1;
nodes = (
"172 390 LINE",
"249 390 LINE",
"234 312 LINE",
"158 312 LINE"
);
}
);
width = 408;
}
);
unicode = 0023;
},
{
glyphname = slash;
layers = (
{
layerId = "DC66480E-7BB6-4652-B43C-57E9BA303B13";
paths = (
{
closed = 1;
nodes = (
"216 710 LINE",
"165 720 LINE",
"30 0 LINE",
"88 -14 LINE"
);
}
);
width = 246;
}
);
unicode = 002F;
},
{
glyphname = backslash;
layers = (
{
layerId = "DC66480E-7BB6-4652-B43C-57E9BA303B13";
paths = (
{
closed = 1;
nodes = (
"216 0 LINE",
"81 720 LINE",
"30 710 LINE",
"158 -14 LINE"
);
}
);
width = 246;
}
);
unicode = 005C;
},
{
glyphname = periodcentered.loclCAT.case;
layers = (
{
anchors = (
{
name = _center;
position = "{108, 369}";
}
);
layerId = "DC66480E-7BB6-4652-B43C-57E9BA303B13";
paths = (
{
closed = 1;
nodes = (
"153 321 LINE",
"157 417 LINE",
"61 413 LINE",
"61 321 LINE"
);
}
);
width = 216;
}
);
},
{
glyphname = periodcentered.loclCAT;
layers = (
{
anchors = (
{
name = _center;
position = "{83, 369}";
}
);
layerId = "DC66480E-7BB6-4652-B43C-57E9BA303B13";
paths = (
{
closed = 1;
nodes = (
"118 331 LINE",
"118 403 LINE",
"51 406 LINE",
"50 333 LINE"
);
}
);
width = 168;
}
);
},
{
glyphname = parenleft;
layers = (
{
layerId = "DC66480E-7BB6-4652-B43C-57E9BA303B13";
paths = (
{
closed = 1;
nodes = (
"195 -49 LINE",
"105 211 LINE",
"105 441 LINE",
"198 742 LINE",
"130 762 LINE",
"40 404 LINE",
"46 222 LINE",
"130 -76 LINE"
);
}
);
width = 248;
}
);
unicode = 0028;
},
{
glyphname = parenright;
layers = (
{
layerId = "DC66480E-7BB6-4652-B43C-57E9BA303B13";
paths = (
{
closed = 1;
nodes = (
"208 282 LINE",
"202 464 LINE",
"118 762 LINE",
"53 735 LINE",
"143 475 LINE",
"143 245 LINE",
"50 -56 LINE",
"118 -76 LINE"
);
}
);
width = 248;
}
);
unicode = 0029;
},
{
glyphname = braceleft;
layers = (
{
layerId = "DC66480E-7BB6-4652-B43C-57E9BA303B13";
paths = (
{
closed = 1;
nodes = (
"223 -34 LINE",
"135 -34 LINE",
"135 245 LINE",
"75 352 LINE",
"131 457 LINE",
"121 710 LINE",
"223 721 LINE",
"223 761 LINE",
"77 761 LINE",
"67 752 LINE",
"67 462 LINE",
"27 377 LINE",
"-50 377 LINE",
"-48 324 LINE",
"26 328 LINE",
"66 211 LINE",
"77 -36 LINE",
"115 -76 LINE",
"223 -83 LINE"
);
}
);
width = 273;
}
);
unicode = 007B;
},
{
glyphname = braceright;
layers = (
{
layerId = "DC66480E-7BB6-4652-B43C-57E9BA303B13";
paths = (
{
closed = 1;
nodes = (
"196 -82 LINE",
"206 -73 LINE",
"206 217 LINE",
"246 302 LINE",
"323 302 LINE",
"321 355 LINE",
"247 351 LINE",
"207 468 LINE",
"196 715 LINE",
"158 755 LINE",
"50 762 LINE",
"50 713 LINE",
"138 713 LINE",
"138 434 LINE",
"198 327 LINE",
"142 222 LINE",
"152 -31 LINE",
"50 -42 LINE",
"50 -82 LINE"
);
}
);
width = 273;
}
);
unicode = 007D;
},
{
glyphname = bracketleft;
layers = (
{
layerId = "DC66480E-7BB6-4652-B43C-57E9BA303B13";
paths = (
{
closed = 1;
nodes = (
"196 -31 LINE",
"105 -34 LINE",
"105 717 LINE",
"196 721 LINE",
"196 762 LINE",
"40 762 LINE",
"40 -76 LINE",
"196 -81 LINE"
);
}
);
width = 246;
}
);
unicode = 005B;
},
{
glyphname = bracketright;
layers = (
{
layerId = "DC66480E-7BB6-4652-B43C-57E9BA303B13";
paths = (
{
closed = 1;
nodes = (
"206 -81 LINE",
"206 756 LINE",
"50 762 LINE",
"50 712 LINE",
"141 715 LINE",
"141 -36 LINE",
"50 -40 LINE",
"50 -81 LINE"
);
}
);
width = 246;
}
);
unicode = 005D;
},
{
glyphname = hyphen;
layers = (
{
layerId = "DC66480E-7BB6-4652-B43C-57E9BA303B13";
paths = (
{
closed = 1;
nodes = (
"328 308 LINE",
"328 357 LINE",
"10 366 LINE",
"13 308 LINE"
);
}
);
width = 339;
}
);
leftKerningGroup = hyphen;
unicode = 002D;
},
{
glyphname = softhyphen;
layers = (
{
layerId = "DC66480E-7BB6-4652-B43C-57E9BA303B13";
paths = (
{
closed = 1;
nodes = (
"288 308 LINE",
"288 357 LINE",
"10 366 LINE",
"13 308 LINE"
);
}
);
width = 298;
}
);
leftKerningGroup = hyphen;
unicode = 00AD;
},
{
glyphname = endash;
layers = (
{
layerId = "DC66480E-7BB6-4652-B43C-57E9BA303B13";
paths = (
{
closed = 1;
nodes = (
"288 319 LINE",
"291 376 LINE",
"47 381 LINE",
"47 308 LINE"
);
}
);
width = 338;
}
);
leftKerningGroup = hyphen;
unicode = 2013;
},
{
glyphname = emdash;
layers = (
{
layerId = "DC66480E-7BB6-4652-B43C-57E9BA303B13";
paths = (
{
closed = 1;
nodes = (
"360 319 LINE",
"363 376 LINE",
"49 381 LINE",
"49 308 LINE"
);
}
);
width = 411;
}
);
leftKerningGroup = hyphen;
unicode = 2014;
},
{
glyphname = underscore;
layers = (
{
layerId = "DC66480E-7BB6-4652-B43C-57E9BA303B13";
paths = (
{
closed = 1;
nodes = (
"360 -102 LINE",
"363 -45 LINE",
"49 -40 LINE",
"49 -113 LINE"
);
}
);
width = 411;
}
);
leftKerningGroup = period;
unicode = 005F;
},
{
glyphname = quotesinglbase;
layers = (
{
layerId = "DC66480E-7BB6-4652-B43C-57E9BA303B13";
paths = (
{
closed = 1;
nodes = (
"147 -18 LINE",
"152 92 LINE",
"53 87 LINE",
"90 -18 LINE",
"43 -127 LINE",
"92 -144 LINE"
);
}
);
width = 198;
}
);
unicode = 201A;
},
{
glyphname = quotedblbase;
layers = (
{
layerId = "DC66480E-7BB6-4652-B43C-57E9BA303B13";
paths = (
{
closed = 1;
nodes = (
"294 -18 LINE",
"299 92 LINE",
"200 87 LINE",
"237 -18 LINE",
"190 -127 LINE",
"239 -144 LINE"
);
},
{
closed = 1;
nodes = (
"147 -18 LINE",
"152 92 LINE",
"53 87 LINE",
"90 -18 LINE",
"43 -127 LINE",
"92 -144 LINE"
);
}
);
width = 348;
}
);
leftKerningGroup = period;
unicode = 201E;
},
{
glyphname = quotedblleft;
layers = (
{
layerId = "DC66480E-7BB6-4652-B43C-57E9BA303B13";
paths = (
{
closed = 1;
nodes = (
"288 492 LINE",
"251 597 LINE",
"298 706 LINE",
"249 723 LINE",
"194 597 LINE",
"189 487 LINE"
);
},
{
closed = 1;
nodes = (
"142 492 LINE",
"105 597 LINE",
"152 706 LINE",
"103 723 LINE",
"48 597 LINE",
"43 487 LINE"
);
}
);
width = 348;
}
);
leftKerningGroup = quotedbl;
rightKerningGroup = quotedbl;
unicode = 201C;
},
{
glyphname = quotedblright;
layers = (
{
layerId = "DC66480E-7BB6-4652-B43C-57E9BA303B13";
paths = (
{
closed = 1;
nodes = (
"293 605 LINE",
"298 715 LINE",
"199 710 LINE",
"236 605 LINE",
"189 496 LINE",
"238 479 LINE"
);
},
{
closed = 1;
nodes = (
"147 605 LINE",
"152 715 LINE",
"53 710 LINE",
"90 605 LINE",
"43 496 LINE",
"92 479 LINE"
);
}
);
width = 348;
}
);
leftKerningGroup = quotedbl;
rightKerningGroup = quotedbl;
unicode = 201D;
},
{
glyphname = quoteleft;
layers = (
{
layerId = "DC66480E-7BB6-4652-B43C-57E9BA303B13";
paths = (
{
closed = 1;
nodes = (
"142 492 LINE",
"105 597 LINE",
"152 706 LINE",
"103 723 LINE",
"48 597 LINE",
"43 487 LINE"
);
}
);
width = 198;
}
);
leftKerningGroup = quotedbl;
rightKerningGroup = quotedbl;
unicode = 2018;
},
{
glyphname = quoteright;
layers = (
{
layerId = "DC66480E-7BB6-4652-B43C-57E9BA303B13";
paths = (
{
closed = 1;
nodes = (
"147 604 LINE",
"152 714 LINE",
"53 709 LINE",
"90 604 LINE",
"43 495 LINE",
"92 478 LINE"
);
}
);
width = 198;
}
);
leftKerningGroup = quotedbl;
rightKerningGroup = quotedbl;
unicode = 2019;
},
{
glyphname = guillemetleft;
layers = (
{
layerId = "DC66480E-7BB6-4652-B43C-57E9BA303B13";
paths = (
{
closed = 1;
nodes = (
"438 151 LINE",
"295 351 LINE",
"295 355 LINE",
"436 518 LINE",
"374 573 LINE",
"217 355 LINE",
"219 335 LINE",
"381 96 LINE"
);
},
{
closed = 1;
nodes = (
"250 151 LINE",
"109 344 LINE",
"109 348 LINE",
"252 518 LINE",
"195 573 LINE",
"33 344 LINE",
"31 318 LINE",
"188 96 LINE"
);
}
);
width = 478;
}
);
unicode = 00AB;
},
{
glyphname = guillemetright;
layers = (
{
layerId = "DC66480E-7BB6-4652-B43C-57E9BA303B13";
paths = (
{
closed = 1;
nodes = (
"447 318 LINE",
"445 344 LINE",
"283 573 LINE",
"226 518 LINE",
"369 348 LINE",
"369 344 LINE",
"228 151 LINE",
"290 96 LINE"
);
},
{
closed = 1;
nodes = (
"259 335 LINE",
"261 355 LINE",
"104 573 LINE",
"42 518 LINE",
"183 355 LINE",
"183 351 LINE",
"40 151 LINE",
"97 96 LINE"
);
}
);
width = 478;
}
);
unicode = 00BB;
},
{
glyphname = guilsinglleft;
layers = (
{
layerId = "DC66480E-7BB6-4652-B43C-57E9BA303B13";
paths = (
{
closed = 1;
nodes = (
"250 151 LINE",
"109 344 LINE",
"109 348 LINE",
"252 518 LINE",
"195 573 LINE",
"33 344 LINE",
"31 318 LINE",
"188 96 LINE"
);
}
);
width = 287;
}
);
unicode = 2039;
},
{
glyphname = guilsinglright;
layers = (
{
layerId = "DC66480E-7BB6-4652-B43C-57E9BA303B13";
paths = (
{
closed = 1;
nodes = (
"256 318 LINE",
"254 344 LINE",
"92 573 LINE",
"35 518 LINE",
"178 348 LINE",
"178 344 LINE",
"37 151 LINE",
"99 96 LINE"
);
}
);
width = 287;
}
);
unicode = 203A;
},
{
glyphname = quotedbl;
layers = (
{
layerId = "DC66480E-7BB6-4652-B43C-57E9BA303B13";
paths = (
{
closed = 1;
nodes = (
"252 502 LINE",
"259 710 LINE",
"182 710 LINE",
"201 492 LINE"
);
},
{
closed = 1;
nodes = (
"120 502 LINE",
"127 710 LINE",
"50 710 LINE",
"69 492 LINE"
);
}
);
width = 309;
}
);
leftKerningGroup = quotedbl;
rightKerningGroup = quotedbl;
unicode = 0022;
},
{
glyphname = quotesingle;
layers = (
{
layerId = "DC66480E-7BB6-4652-B43C-57E9BA303B13";
paths = (
{
closed = 1;
nodes = (
"120 502 LINE",
"127 710 LINE",
"50 710 LINE",
"69 492 LINE"
);
}
);
width = 177;
}
);
leftKerningGroup = quotedbl;
rightKerningGroup = quotedbl;
unicode = 0027;
},
{
glyphname = quotesingle.loclGUA;
layers = (
{
layerId = "DC66480E-7BB6-4652-B43C-57E9BA303B13";
paths = (
{
closed = 1;
nodes = (
"89 462 LINE",
"113 723 LINE",
"30 710 LINE",
"50 595 LINE",
"37 462 LINE"
);
}
);
width = 143;
}
);
leftKerningGroup = quotedbl;
rightKerningGroup = quotedbl;
},
{
glyphname = "leftanglebracket-math";
layers = (
{
layerId = "DC66480E-7BB6-4652-B43C-57E9BA303B13";
paths = (
{
closed = 1;
nodes = (
"197 -53 LINE",
"93 301 LINE",
"198 750 LINE",
"130 762 LINE",
"30 284 LINE",
"130 -76 LINE"
);
}
);
width = 248;
}
);
unicode = 27E8;
},
{
glyphname = "rightanglebracket-math";
layers = (
{
layerId = "DC66480E-7BB6-4652-B43C-57E9BA303B13";
paths = (
{
closed = 1;
nodes = (
"218 284 LINE",
"118 762 LINE",
"50 742 LINE",
"153 321 LINE",
"53 -49 LINE",
"118 -76 LINE"
);
}
);
width = 258;
}
);
unicode = 27E9;
},
{
glyphname = .notdef;
layers = (
{
layerId = "DC66480E-7BB6-4652-B43C-57E9BA303B13";
paths = (
{
closed = 1;
nodes = (
"239 0 LINE",
"290 11 LINE",
"267 710 LINE",
"50 701 LINE",
"50 0 LINE"
);
},
{
closed = 1;
nodes = (
"98 39 OFFCURVE",
"95 40 OFFCURVE",
"93 41 CURVE",
"163 321 LINE",
"226 39 LINE",
"101 39 LINE SMOOTH"
);
},
{
closed = 1;
nodes = (
"88 657 LINE",
"152 368 LINE",
"88 124 LINE"
);
},
{
closed = 1;
nodes = (
"174 367 LINE",
"237 618 LINE",
"237 106 LINE"
);
},
{
closed = 1;
nodes = (
"101 676 LINE",
"225 676 LINE",
"233 672 LINE",
"164 411 LINE"
);
}
);
width = 339;
}
);
},
{
glyphname = cedi;
layers = (
{
layerId = "DC66480E-7BB6-4652-B43C-57E9BA303B13";
paths = (
{
closed = 1;
nodes = (
"203 20 LINE",
"296 20 LINE",
"296 187 LINE",
"270 187 LINE",
"244 167 LINE",
"244 99 LINE",
"244 95 OFFCURVE",
"240 93 OFFCURVE",
"232 93 CURVE",
"128 93 LINE",
"124 93 OFFCURVE",
"122 95 OFFCURVE",
"122 99 CURVE",
"122 567 LINE",
"122 600 OFFCURVE",
"122 630 OFFCURVE",
"155 640 CURVE",
"222 660 LINE",
"230 660 OFFCURVE",
"234 657 OFFCURVE",
"234 651 CURVE",
"234 548 LINE",
"280 548 LINE",
"296 710 LINE",
"218 710 LINE",
"213 811 LINE",
"165 811 LINE",
"165 710 LINE",
"129 710 LINE",
"85 710 OFFCURVE",
"63 680 OFFCURVE",
"62 653 CURVE",
"42 62 LINE",
"83 20 LINE",
"154 20 LINE",
"154 -87 LINE",
"208 -89 LINE"
);
}
);
width = 339;
}
);
unicode = 20B5;
},
{
glyphname = cent;
layers = (
{
layerId = "DC66480E-7BB6-4652-B43C-57E9BA303B13";
paths = (
{
closed = 1;
nodes = (
"203 20 LINE",
"306 20 LINE",
"306 187 LINE",
"280 187 LINE",
"254 167 LINE",
"254 99 LINE",
"254 95 OFFCURVE",
"250 93 OFFCURVE",
"242 93 CURVE",
"128 93 LINE",
"124 93 OFFCURVE",
"122 95 OFFCURVE",
"122 99 CURVE",
"128 306 LINE",
"128 339 OFFCURVE",
"128 369 OFFCURVE",
"161 379 CURVE",
"242 390 LINE",
"250 390 OFFCURVE",
"254 387 OFFCURVE",
"254 381 CURVE",
"254 278 LINE",
"300 278 LINE",
"316 440 LINE",
"218 440 LINE",
"220 551 LINE",
"172 551 LINE",
"165 440 LINE",
"129 440 LINE",
"85 440 OFFCURVE",
"63 410 OFFCURVE",
"62 383 CURVE",
"52 62 LINE",
"93 20 LINE",
"154 20 LINE",
"154 -87 LINE",
"208 -89 LINE"
);
}
);
width = 339;
}
);
unicode = 00A2;
},
{
glyphname = colonsign;
layers = (
{
layerId = "DC66480E-7BB6-4652-B43C-57E9BA303B13";
paths = (
{
closed = 1;
nodes = (
"209 20 LINE",
"288 20 LINE",
"288 187 LINE",
"255 187 LINE",
"236 174 LINE",
"236 99 LINE SMOOTH",
"236 95 OFFCURVE",
"232 93 OFFCURVE",
"224 93 CURVE SMOOTH",
"125 93 LINE SMOOTH",
"121 93 OFFCURVE",
"119 95 OFFCURVE",
"119 99 CURVE SMOOTH",
"119 567 LINE SMOOTH",
"119 600 OFFCURVE",
"120 630 OFFCURVE",
"152 630 CURVE SMOOTH",
"219 630 LINE SMOOTH",
"227 630 OFFCURVE",
"231 627 OFFCURVE",
"231 621 CURVE SMOOTH",
"226 528 LINE",
"272 528 LINE",
"288 689 LINE",
"297 794 LINE",
"264 801 LINE",
"245 695 LINE",
"212 699 LINE",
"225 804 LINE",
"188 809 LINE",
"171 704 LINE",
"134 709 LINE",
"130 709 OFFCURVE",
"125 710 OFFCURVE",
"121 710 CURVE SMOOTH",
"77 710 OFFCURVE",
"55 690 OFFCURVE",
"54 653 CURVE SMOOTH",
"34 62 LINE",
"75 20 LINE",
"94 20 LINE",
"80 -88 LINE",
"127 -93 LINE",
"138 20 LINE",
"169 20 LINE",
"154 -90 LINE",
"202 -101 LINE"
);
}
);
width = 314;
}
);
unicode = 20A1;
},
{
glyphname = currency;
layers = (
{
layerId = "DC66480E-7BB6-4652-B43C-57E9BA303B13";
paths = (
{
closed = 1;
nodes = (
"109 219 LINE",
"239 219 LINE",
"292 161 LINE",
"329 201 LINE",
"273 251 LINE",
"292 270 LINE",
"283 451 LINE",
"329 502 LINE",
"295 527 LINE",
"244 481 LINE",
"100 488 LINE",
"47 546 LINE",
"10 499 LINE",
"54 460 LINE",
"63 247 LINE",
"10 194 LINE",
"44 160 LINE"
);
},
{
closed = 1;
nodes = (
"126 276 OFFCURVE",
"121 282 OFFCURVE",
"121 285 CURVE",
"109 430 LINE",
"109 434 OFFCURVE",
"114 436 OFFCURVE",
"125 436 CURVE",
"220 436 LINE",
"228 433 OFFCURVE",
"232 429 OFFCURVE",
"232 425 CURVE",
"238 300 LINE",
"238 295 OFFCURVE",
"232 289 OFFCURVE",
"223 288 CURVE",
"133 276 LINE"
);
}
);
width = 339;
}
);
unicode = 00A4;
},
{
glyphname = dollar;
layers = (
{
layerId = "DC66480E-7BB6-4652-B43C-57E9BA303B13";
paths = (
{
closed = 1;
nodes = (
"177 -99 LINE",
"177 0 LINE",
"211 0 LINE SMOOTH",
"240 0 OFFCURVE",
"275 32 OFFCURVE",
"275 60 CURVE SMOOTH",
"275 377 LINE",
"133 410 LINE",
"124 651 LINE",
"275 656 LINE",
"275 710 LINE",
"207 710 LINE",
"207 809 LINE",
"153 811 LINE",
"158 710 LINE",
"108 710 LINE SMOOTH",
"87 710 OFFCURVE",
"68 684 OFFCURVE",
"68 663 CURVE SMOOTH",
"68 355 LINE",
"207 325 LINE",
"219 60 LINE",
"65 60 LINE",
"68 0 LINE",
"124 0 LINE",
"129 -99 LINE"
);
}
);
width = 339;
}
);
unicode = 0024;
},
{
glyphname = dong;
layers = (
{
layerId = "DC66480E-7BB6-4652-B43C-57E9BA303B13";
paths = (
{
closed = 1;
nodes = (
"246 114 LINE",
"251 721 LINE",
"176 721 LINE",
"180 582 LINE",
"87 582 LINE SMOOTH",
"63 582 OFFCURVE",
"45 563 OFFCURVE",
"45 528 CURVE SMOOTH",
"47 150 LINE SMOOTH",
"47 126 OFFCURVE",
"58 114 OFFCURVE",
"98 114 CURVE SMOOTH"
);
},
{
closed = 1;
nodes = (
"255 20 LINE",
"255 78 LINE",
"36 68 LINE",
"39 20 LINE"
);
},
{
closed = 1;
nodes = (
"117 177 OFFCURVE",
"117 179 OFFCURVE",
"117 183 CURVE",
"108 511 LINE",
"108 517 OFFCURVE",
"108 520 OFFCURVE",
"117 520 CURVE SMOOTH",
"173 520 LINE SMOOTH",
"178 520 OFFCURVE",
"182 517 OFFCURVE",
"182 511 CURVE SMOOTH",
"177 183 LINE SMOOTH",
"177 179 OFFCURVE",
"177 177 OFFCURVE",
"168 177 CURVE SMOOTH",
"126 177 LINE SMOOTH"
);
},
{
closed = 1;
nodes = (
"285 620 LINE",
"285 678 LINE",
"86 668 LINE",
"89 620 LINE"
);
}
);
width = 294;
}
);
unicode = 20AB;
},
{
glyphname = euro;
layers = (
{
layerId = "DC66480E-7BB6-4652-B43C-57E9BA303B13";
paths = (
{
closed = 1;
nodes = (
"289 0 LINE",
"296 29 LINE",
"260 69 LINE",
"149 69 LINE SMOOTH",
"142 69 OFFCURVE",
"137 75 OFFCURVE",
"137 78 CURVE SMOOTH",
"143 252 LINE",
"276 252 LINE",
"280 320 LINE",
"145 315 LINE",
"147 394 LINE",
"277 399 LINE",
"280 458 LINE",
"149 458 LINE",
"156 650 LINE SMOOTH",
"156 654 OFFCURVE",
"161 656 OFFCURVE",
"172 656 CURVE",
"273 642 LINE",
"299 710 LINE",
"80 710 LINE",
"80 457 LINE",
"20 457 LINE",
"20 389 LINE",
"80 391 LINE",
"80 313 LINE",
"23 311 LINE",
"20 252 LINE",
"80 252 LINE",
"80 0 LINE"
);
}
);
width = 339;
}
);
unicode = 20AC;
},
{
glyphname = florin;
layers = (
{
layerId = "DC66480E-7BB6-4652-B43C-57E9BA303B13";
paths = (
{
closed = 1;
nodes = (
"119 -39 LINE",
"139 372 LINE",
"272 389 LINE",
"277 447 LINE",
"162 447 LINE",
"175 616 LINE",
"291 628 LINE",
"296 690 LINE",
"160 705 LINE",
"100 654 LINE",
"83 451 LINE",
"31 448 LINE",
"31 398 LINE",
"78 385 LINE",
"45 -20 LINE",
"-61 -32 LINE",
"-66 -74 LINE",
"65 -87 LINE"
);
}
);
width = 311;
}
);
unicode = 0192;
},
{
glyphname = franc;
layers = (
{
layerId = "DC66480E-7BB6-4652-B43C-57E9BA303B13";
paths = (
{
closed = 1;
nodes = (
"124 0 LINE",
"124 153 LINE",
"209 153 LINE",
"208 215 LINE",
"124 211 LINE",
"124 355 LINE",
"228 373 LINE",
"228 423 LINE",
"119 423 LINE",
"119 622 LINE",
"242 622 LINE",
"242 710 LINE",
"59 710 LINE",
"43 208 LINE",
"-15 206 LINE",
"-10 153 LINE",
"41 153 LINE",
"36 0 LINE"
);
}
);
width = 266;
}
);
unicode = 20A3;
},
{
glyphname = guarani;
layers = (
{
layerId = "DC66480E-7BB6-4652-B43C-57E9BA303B13";
paths = (
{
closed = 1;
nodes = (
"177 -99 LINE",
"177 0 LINE",
"212 0 LINE SMOOTH",
"247 0 OFFCURVE",
"282 22 OFFCURVE",
"282 58 CURVE SMOOTH",
"282 333 LINE",
"180 343 LINE",
"180 291 LINE",
"219 272 LINE",
"219 106 LINE SMOOTH",
"219 98 OFFCURVE",
"207 94 OFFCURVE",
"199 94 CURVE SMOOTH",
"153 94 LINE SMOOTH",
"144 94 OFFCURVE",
"132 103 OFFCURVE",
"132 112 CURVE SMOOTH",
"115 630 LINE",
"227 655 LINE",
"227 559 LINE",
"271 559 LINE",
"289 668 LINE",
"289 710 LINE",
"207 710 LINE",
"207 809 LINE",
"153 811 LINE",
"158 710 LINE",
"89 710 LINE SMOOTH",
"60 710 OFFCURVE",
"41 687 OFFCURVE",
"40 656 CURVE",
"62 0 LINE",
"125 0 LINE",
"129 -99 LINE"
);
}
);
width = 339;
}
);
unicode = 20B2;
},
{
glyphname = kip;
layers = (
{
anchors = (
{
name = bottom;
position = "{155, 0}";
},
{
name = top;
position = "{130, 710}";
}
);
layerId = "DC66480E-7BB6-4652-B43C-57E9BA303B13";
paths = (
{
closed = 1;
nodes = (
"118 0 LINE",
"118 321 LINE",
"119 322 LINE",
"143 322 LINE",
"193 0 LINE",
"252 0 LINE",
"270 21 LINE",
"201 322 LINE",
"293 322 LINE",
"290 380 LINE",
"200 377 LINE",
"227 431 LINE",
"244 710 LINE",
"176 707 LINE",
"157 389 LINE",
"106 382 LINE",
"106 710 LINE",
"64 710 LINE",
"38 700 LINE",
"44 379 LINE",
"3 381 LINE",
"0 322 LINE",
"45 322 LINE",
"51 0 LINE"
);
}
);
width = 286;
}
);
unicode = 20AD;
},
{
glyphname = lira;
layers = (
{
layerId = "DC66480E-7BB6-4652-B43C-57E9BA303B13";
paths = (
{
closed = 1;
nodes = (
"307 0 LINE",
"307 64 LINE",
"161 82 LINE",
"189 172 LINE",
"188 256 LINE",
"275 256 LINE",
"279 314 LINE",
"179 317 LINE",
"174 375 LINE",
"290 375 LINE",
"296 434 LINE",
"165 439 LINE",
"133 642 LINE",
"157 651 LINE",
"234 651 LINE SMOOTH",
"242 651 OFFCURVE",
"246 648 OFFCURVE",
"246 642 CURVE",
"256 529 LINE",
"302 529 LINE",
"318 654 LINE",
"318 710 LINE",
"148 710 LINE SMOOTH",
"96 710 OFFCURVE",
"68 685 OFFCURVE",
"68 654 CURVE",
"95 442 LINE",
"38 444 LINE",
"38 376 LINE",
"102 376 LINE",
"107 315 LINE",
"40 313 LINE",
"37 256 LINE",
"114 256 LINE",
"115 166 LINE",
"75 71 LINE",
"32 43 LINE",
"32 0 LINE"
);
}
);
width = 339;
}
);
unicode = 20A4;
},
{
glyphname = liraTurkish;
layers = (
{
layerId = "DC66480E-7BB6-4652-B43C-57E9BA303B13";
paths = (
{
closed = 1;
nodes = (
"300 130 LINE",
"320 250 LINE",
"254 264 LINE",
"235 157 LINE",
"199 69 LINE",
"116 77 LINE",
"123 283 LINE",
"276 361 LINE",
"272 418 LINE",
"125 347 LINE",
"127 426 LINE",
"273 494 LINE",
"268 546 LINE",
"130 490 LINE",
"137 710 LINE",
"40 710 LINE",
"40 443 LINE",
"-16 417 LINE",
"-10 349 LINE",
"40 376 LINE",
"40 297 LINE",
"-7 271 LINE",
"-10 212 LINE",
"40 239 LINE",
"40 0 LINE",
"245 -2 LINE"
);
}
);
width = 349;
}
);
unicode = 20BA;
},
{
glyphname = manat;
layers = (
{
layerId = "DC66480E-7BB6-4652-B43C-57E9BA303B13";
paths = (
{
closed = 1;
nodes = (
"130 0 LINE",
"130 651 LINE",
"287 642 LINE",
"266 0 LINE",
"350 0 LINE",
"350 670 LINE SMOOTH",
"350 689 OFFCURVE",
"326 710 OFFCURVE",
"307 710 LINE SMOOTH",
"106 710 LINE SMOOTH",
"70 710 OFFCURVE",
"51 690 OFFCURVE",
"52 654 CURVE SMOOTH",
"70 0 LINE"
);
},
{
closed = 1;
nodes = (
"228 151 LINE",
"233 812 LINE",
"173 812 LINE",
"178 479 LINE",
"173 151 LINE"
);
}
);
width = 400;
}
);
unicode = 20BC;
},
{
glyphname = naira;
layers = (
{
layerId = "DC66480E-7BB6-4652-B43C-57E9BA303B13";
paths = (
{
closed = 1;
nodes = (
"107 0 LINE",
"107 651 LINE",
"111 651 LINE",
"213 0 LINE",
"328 0 LINE",
"333 343 LINE",
"401 339 LINE",
"404 398 LINE",
"334 398 LINE",
"338 710 LINE",
"280 710 LINE",
"258 58 LINE",
"254 58 LINE",
"164 710 LINE",
"48 710 LINE",
"48 402 LINE",
"-17 400 LINE",
"-17 345 LINE",
"48 341 LINE",
"48 0 LINE"
);
}
);
width = 404;
}
);
unicode = 20A6;
},
{
glyphname = peseta;
layers = (
{
layerId = "DC66480E-7BB6-4652-B43C-57E9BA303B13";
paths = (
{
closed = 1;
nodes = (
"97 0 LINE",
"105 306 LINE",
"215 317 LINE",
"250 379 LINE",
"241 659 LINE SMOOTH",
"239 704 OFFCURVE",
"218 710 OFFCURVE",
"163 712 CURVE SMOOTH",
"51 717 LINE",
"28 0 LINE"
);
},
{
closed = 1;
nodes = (
"80 473 LINE",
"80 539 LINE",
"0 539 LINE",
"0 471 LINE"
);
},
{
closed = 1;
nodes = (
"111 652 LINE",
"182 660 LINE",
"182 391 LINE SMOOTH",
"182 387 OFFCURVE",
"180 385 OFFCURVE",
"176 385 CURVE",
"111 382 LINE"
);
},
{
closed = 1;
nodes = (
"284 481 LINE",
"287 540 LINE",
"199 540 LINE",
"197 476 LINE"
);
}
);
width = 287;
}
);
unicode = 20A7;
},
{
glyphname = peso;
layers = (
{
layerId = "DC66480E-7BB6-4652-B43C-57E9BA303B13";
paths = (
{
closed = 1;
nodes = (
"134 0 LINE",
"122 306 LINE",
"225 317 LINE",
"260 379 LINE",
"258 443 LINE",
"297 441 LINE",
"297 500 LINE",
"256 500 LINE",
"255 549 LINE",
"297 551 LINE",
"297 600 LINE",
"253 602 LINE",
"251 659 LINE SMOOTH",
"249 704 OFFCURVE",
"228 711 OFFCURVE",
"173 712 CURVE SMOOTH",
"51 714 LINE",
"52 600 LINE",
"0 603 LINE",
"0 541 LINE",
"53 542 LINE",
"53 497 LINE",
"0 493 LINE",
"0 431 LINE",
"54 432 LINE",
"58 0 LINE"
);
},
{
closed = 1;
nodes = (
"111 639 LINE",
"111 648 OFFCURVE",
"117 654 OFFCURVE",
"126 655 CURVE",
"192 660 LINE",
"192 391 LINE SMOOTH",
"192 387 OFFCURVE",
"190 385 OFFCURVE",
"186 385 CURVE",
"120 382 LINE"
);
}
);
width = 297;
}
);
unicode = 20B1;
},
{
glyphname = ruble;
layers = (
{
layerId = "DC66480E-7BB6-4652-B43C-57E9BA303B13";
paths = (
{
closed = 1;
nodes = (
"121 0 LINE",
"116 150 LINE",
"207 154 LINE",
"206 203 LINE",
"114 203 LINE",
"111 306 LINE",
"155 306 LINE SMOOTH",
"248 306 OFFCURVE",
"258 367 OFFCURVE",
"258 379 CURVE SMOOTH",
"258 661 LINE SMOOTH",
"258 688 OFFCURVE",
"219 710 OFFCURVE",
"168 710 CURVE SMOOTH",
"44 710 LINE",
"44 202 LINE",
"0 202 LINE",
"0 144 LINE",
"44 146 LINE",
"44 0 LINE"
);
},
{
closed = 1;
nodes = (
"121 365 OFFCURVE",
"116 370 OFFCURVE",
"116 373 CURVE SMOOTH",
"116 658 LINE SMOOTH",
"116 663 OFFCURVE",
"120 665 OFFCURVE",
"128 665 CURVE SMOOTH",
"145 665 LINE SMOOTH",
"176 665 OFFCURVE",
"186 648 OFFCURVE",
"187 633 CURVE",
"177 381 LINE",
"177 377 OFFCURVE",
"175 376 OFFCURVE",
"171 375 CURVE SMOOTH",
"128 365 LINE"
);
}
);
width = 290;
}
);
unicode = 20BD;
},
{
glyphname = rupeeIndian;
layers = (
{
layerId = "DC66480E-7BB6-4652-B43C-57E9BA303B13";
paths = (
{
closed = 1;
nodes = (
"310 0 LINE",
"109 350 LINE",
"216 370 LINE",
"251 517 LINE",
"322 518 LINE",
"325 575 LINE",
"251 570 LINE",
"231 652 LINE",
"238 661 LINE",
"327 665 LINE",
"327 710 LINE",
"40 710 LINE",
"40 650 LINE",
"174 657 LINE",
"178 567 LINE",
"41 560 LINE",
"43 508 LINE",
"179 516 LINE",
"178 449 LINE SMOOTH",
"178 429 OFFCURVE",
"168 414 OFFCURVE",
"148 410 CURVE SMOOTH",
"40 386 LINE",
"40 351 LINE",
"231 0 LINE"
);
}
);
width = 348;
}
);
unicode = 20B9;
},
{
glyphname = sterling;
layers = (
{
layerId = "DC66480E-7BB6-4652-B43C-57E9BA303B13";
paths = (
{
closed = 1;
nodes = (
"307 0 LINE",
"307 64 LINE",
"161 82 LINE",
"192 202 LINE",
"174 335 LINE",
"298 335 LINE",
"295 394 LINE",
"165 399 LINE",
"133 642 LINE",
"157 651 LINE",
"228 651 LINE SMOOTH",
"236 651 OFFCURVE",
"240 648 OFFCURVE",
"240 642 CURVE SMOOTH",
"250 529 LINE",
"296 529 LINE",
"312 654 LINE",
"312 710 LINE",
"148 710 LINE SMOOTH",
"96 710 OFFCURVE",
"68 685 OFFCURVE",
"68 654 CURVE",
"95 402 LINE",
"38 404 LINE",
"38 336 LINE",
"102 336 LINE",
"118 196 LINE",
"75 71 LINE",
"32 43 LINE",
"32 0 LINE"
);
}
);
width = 339;
}
);
unicode = 00A3;
},
{
glyphname = won;
layers = (
{
layerId = "DC66480E-7BB6-4652-B43C-57E9BA303B13";
paths = (
{
closed = 1;
nodes = (
"188 0 LINE",
"220 483 LINE",
"224 483 LINE",
"281 0 LINE",
"387 0 LINE",
"420 710 LINE",
"359 710 LINE",
"341 23 LINE",
"336 23 LINE",
"249 575 LINE",
"255 697 LINE",
"198 697 LINE",
"134 37 LINE",
"130 37 LINE",
"79 709 LINE",
"14 709 LINE",
"83 0 LINE"
);
},
{
closed = 1;
nodes = (
"90 378 LINE",
"0 378 LINE",
"0 339 LINE",
"90 329 LINE"
);
},
{
closed = 1;
nodes = (
"443 330 LINE",
"443 374 LINE",
"379 384 LINE",
"379 330 LINE"
);
}
);
width = 435;
}
);
unicode = 20A9;
},
{
glyphname = yen;
layers = (
{
layerId = "DC66480E-7BB6-4652-B43C-57E9BA303B13";
paths = (
{
closed = 1;
nodes = (
"209 0 LINE",
"205 172 LINE",
"314 172 LINE",
"318 240 LINE",
"204 236 LINE",
"204 290 LINE",
"315 294 LINE",
"318 353 LINE",
"202 353 LINE",
"262 451 LINE",
"262 710 LINE",
"206 710 LINE",
"188 428 LINE",
"152 431 LINE",
"139 710 LINE",
"75 710 LINE",
"75 472 LINE",
"142 353 LINE",
"142 352 LINE",
"20 352 LINE",
"20 284 LINE",
"142 288 LINE",
"142 234 LINE",
"23 231 LINE",
"20 172 LINE",
"142 172 LINE",
"142 0 LINE"
);
}
);
width = 339;
}
);
unicode = 00A5;
},
{
glyphname = bulletoperator;
layers = (
{
layerId = "DC66480E-7BB6-4652-B43C-57E9BA303B13";
paths = (
{
closed = 1;
nodes = (
"188 262 LINE",
"227 297 LINE",
"227 432 LINE",
"157 440 LINE",
"56 432 LINE",
"50 377 LINE",
"63 262 LINE"
);
}
);
width = 277;
}
);
unicode = 2219;
},
{
glyphname = commercialMinusSign;
layers = (
{
layerId = "DC66480E-7BB6-4652-B43C-57E9BA303B13";
paths = (
{
closed = 1;
nodes = (
"279 710 LINE",
"218 720 LINE",
"23 0 LINE",
"76 -14 LINE"
);
},
{
closed = 1;
nodes = (
"284 -1 LINE",
"289 104 LINE",
"221 106 LINE",
"175 94 LINE",
"175 44 LINE",
"185 -1 LINE"
);
},
{
closed = 1;
nodes = (
"124 609 LINE",
"134 676 LINE",
"124 710 LINE",
"20 711 LINE",
"20 615 LINE",
"51 605 LINE"
);
}
);
width = 309;
}
);
unicode = 2052;
},
{
glyphname = divisionslash;
layers = (
{
layerId = "DC66480E-7BB6-4652-B43C-57E9BA303B13";
paths = (
{
closed = 1;
nodes = (
"395 679 LINE",
"361 707 LINE",
"0 33 LINE",
"39 -2 LINE"
);
}
);
width = 395;
}
);
unicode = 2215;
},
{
glyphname = plus;
layers = (
{
layerId = "DC66480E-7BB6-4652-B43C-57E9BA303B13";
paths = (
{
closed = 1;
nodes = (
"188 158 LINE",
"198 308 LINE",
"328 308 LINE",
"328 357 LINE",
"198 366 LINE",
"198 516 LINE",
"139 516 LINE",
"145 361 LINE",
"10 366 LINE",
"10 308 LINE",
"140 308 LINE",
"140 158 LINE"
);
}
);
width = 339;
}
);
unicode = 002B;
},
{
glyphname = minus;
layers = (
{
layerId = "DC66480E-7BB6-4652-B43C-57E9BA303B13";
paths = (
{
closed = 1;
nodes = (
"328 330 LINE",
"328 379 LINE",
"10 388 LINE",
"13 330 LINE"
);
}
);
width = 339;
}
);
unicode = 2212;
},
{
glyphname = multiply;
layers = (
{
layerId = "DC66480E-7BB6-4652-B43C-57E9BA303B13";
paths = (
{
closed = 1;
nodes = (
"319 223 LINE",
"208 341 LINE",
"322 464 LINE",
"281 504 LINE",
"179 384 LINE",
"60 513 LINE",
"16 468 LINE",
"137 336 LINE",
"16 221 LINE",
"62 176 LINE",
"169 298 LINE",
"270 173 LINE"
);
}
);
width = 339;
}
);
unicode = 00D7;
},
{
glyphname = divide;
layers = (
{
layerId = "DC66480E-7BB6-4652-B43C-57E9BA303B13";
paths = (
{
closed = 1;
nodes = (
"328 308 LINE",
"328 357 LINE",
"10 366 LINE",
"13 308 LINE"
);
},
{
closed = 1;
nodes = (
"223 132 LINE",
"227 228 LINE",
"131 224 LINE",
"131 132 LINE"
);
},
{
closed = 1;
nodes = (
"223 536 LINE",
"131 536 LINE",
"131 444 LINE",
"227 440 LINE"
);
}
);
width = 339;
}
);
unicode = 00F7;
},
{
glyphname = equal;
layers = (
{
layerId = "DC66480E-7BB6-4652-B43C-57E9BA303B13";
paths = (
{
closed = 1;
nodes = (
"315 389 LINE",
"318 448 LINE",
"20 448 LINE",
"20 379 LINE"
);
},
{
closed = 1;
nodes = (
"314 222 LINE",
"318 290 LINE",
"23 281 LINE",
"20 222 LINE"
);
}
);
width = 339;
}
);
unicode = 003D;
},
{
glyphname = notequal;
layers = (
{
layerId = "DC66480E-7BB6-4652-B43C-57E9BA303B13";
paths = (
{
closed = 1;
nodes = (
"152 222 LINE",
"314 222 LINE",
"318 290 LINE",
"177 285 LINE",
"217 386 LINE",
"315 389 LINE",
"318 448 LINE",
"242 448 LINE",
"288 567 LINE",
"249 595 LINE",
"189 447 LINE",
"20 447 LINE",
"20 379 LINE",
"163 384 LINE",
"122 284 LINE",
"23 281 LINE",
"20 222 LINE",
"96 222 LINE",
"51 113 LINE",
"95 78 LINE"
);
}
);
width = 339;
}
);
unicode = 2260;
},
{
glyphname = greater;
layers = (
{
layerId = "DC66480E-7BB6-4652-B43C-57E9BA303B13";
paths = (
{
closed = 1;
nodes = (
"308 298 LINE",
"304 364 LINE",
"66 516 LINE",
"30 458 LINE",
"236 334 LINE",
"236 330 LINE",
"32 241 LINE",
"87 158 LINE"
);
}
);
width = 339;
}
);
unicode = 003E;
},
{
glyphname = less;
layers = (
{
layerId = "DC66480E-7BB6-4652-B43C-57E9BA303B13";
paths = (
{
closed = 1;
nodes = (
"307 221 LINE",
"103 330 LINE",
"103 334 LINE",
"309 458 LINE",
"273 516 LINE",
"35 364 LINE",
"31 298 LINE",
"262 158 LINE"
);
}
);
width = 339;
}
);
unicode = 003C;
},
{
glyphname = greaterequal;
layers = (
{
layerId = "DC66480E-7BB6-4652-B43C-57E9BA303B13";
paths = (
{
closed = 1;
nodes = (
"308 373 LINE",
"304 439 LINE",
"66 591 LINE",
"30 533 LINE",
"236 405 LINE",
"236 401 LINE",
"42 302 LINE",
"87 233 LINE"
);
},
{
closed = 1;
nodes = (
"328 120 LINE",
"328 169 LINE",
"10 178 LINE",
"13 120 LINE"
);
}
);
width = 339;
}
);
unicode = 2265;
},
{
glyphname = lessequal;
layers = (
{
layerId = "DC66480E-7BB6-4652-B43C-57E9BA303B13";
paths = (
{
closed = 1;
nodes = (
"307 296 LINE",
"103 405 LINE",
"103 409 LINE",
"309 533 LINE",
"273 591 LINE",
"35 439 LINE",
"31 373 LINE",
"262 233 LINE"
);
},
{
closed = 1;
nodes = (
"328 120 LINE",
"328 169 LINE",
"10 178 LINE",
"13 120 LINE"
);
}
);
width = 339;
}
);
unicode = 2264;
},
{
glyphname = plusminus;
layers = (
{
layerId = "DC66480E-7BB6-4652-B43C-57E9BA303B13";
paths = (
{
closed = 1;
nodes = (
"188 240 LINE",
"198 390 LINE",
"328 390 LINE",
"328 439 LINE",
"198 448 LINE",
"198 598 LINE",
"139 598 LINE",
"145 443 LINE",
"10 448 LINE",
"10 390 LINE",
"140 390 LINE",
"140 240 LINE"
);
},
{
closed = 1;
nodes = (
"328 120 LINE",
"328 169 LINE",
"10 178 LINE",
"13 120 LINE"
);
}
);
width = 339;
}
);
unicode = 00B1;
},
{
glyphname = approxequal;
layers = (
{
layerId = "DC66480E-7BB6-4652-B43C-57E9BA303B13";
paths = (
{
closed = 1;
nodes = (
"56 379 LINE SMOOTH",
"89 400 OFFCURVE",
"97 405 OFFCURVE",
"112 405 CURVE SMOOTH",
"123 405 OFFCURVE",
"136 398 OFFCURVE",
"156 391 CURVE SMOOTH",
"246 358 LINE",
"329 406 LINE",
"329 466 LINE",
"274 440 LINE SMOOTH",
"249 428 OFFCURVE",
"234 421 OFFCURVE",
"223 421 CURVE SMOOTH",
"208 421 OFFCURVE",
"193 427 OFFCURVE",
"164 439 CURVE",
"105 463 LINE",
"11 416 LINE",
"14 352 LINE"
);
},
{
closed = 1;
nodes = (
"56 227 LINE SMOOTH",
"89 248 OFFCURVE",
"97 253 OFFCURVE",
"112 253 CURVE SMOOTH",
"123 253 OFFCURVE",
"136 246 OFFCURVE",
"156 239 CURVE SMOOTH",
"246 206 LINE",
"329 254 LINE",
"329 314 LINE",
"274 288 LINE SMOOTH",
"249 276 OFFCURVE",
"234 269 OFFCURVE",
"223 269 CURVE SMOOTH",
"208 269 OFFCURVE",
"193 275 OFFCURVE",
"164 287 CURVE",
"105 311 LINE",
"11 264 LINE",
"14 200 LINE"
);
}
);
width = 339;
}
);
unicode = 2248;
},
{
glyphname = asciitilde;
layers = (
{
layerId = "DC66480E-7BB6-4652-B43C-57E9BA303B13";
paths = (
{
closed = 1;
nodes = (
"358 333 LINE",
"358 393 LINE",
"303 367 LINE SMOOTH",
"278 355 OFFCURVE",
"263 348 OFFCURVE",
"252 348 CURVE SMOOTH",
"237 348 OFFCURVE",
"222 353 OFFCURVE",
"193 366 CURVE",
"134 393 LINE",
"40 353 LINE",
"43 279 LINE",
"85 306 LINE SMOOTH",
"118 327 OFFCURVE",
"126 332 OFFCURVE",
"141 332 CURVE SMOOTH",
"150 332 OFFCURVE",
"165 327 OFFCURVE",
"185 318 CURVE SMOOTH",
"275 275 LINE"
);
}
);
width = 398;
}
);
unicode = 007E;
},
{
glyphname = logicalnot;
layers = (
{
layerId = "DC66480E-7BB6-4652-B43C-57E9BA303B13";
paths = (
{
closed = 1;
nodes = (
"328 317 LINE",
"328 366 LINE",
"13 366 LINE",
"10 308 LINE",
"278 315 LINE",
"252 190 LINE",
"312 175 LINE"
);
}
);
width = 339;
}
);
unicode = 00AC;
},
{
glyphname = asciicircum;
layers = (
{
layerId = "DC66480E-7BB6-4652-B43C-57E9BA303B13";
paths = (
{
closed = 1;
nodes = (
"187 420 LINE",
"311 277 LINE",
"340 296 LINE",
"207 487 LINE",
"167 490 LINE",
"30 296 LINE",
"59 277 LINE"
);
}
);
width = 370;
}
);
unicode = 005E;
},
{
glyphname = infinity;
layers = (
{
layerId = "DC66480E-7BB6-4652-B43C-57E9BA303B13";
paths = (
{
closed = 1;
nodes = (
"370 273 LINE",
"381 426 LINE",
"343 461 LINE",
"224 471 LINE",
"194 410 LINE",
"149 470 LINE",
"25 470 LINE",
"15 325 LINE",
"53 251 LINE",
"146 256 LINE",
"187 322 LINE",
"233 246 LINE",
"316 229 LINE"
);
},
{
closed = 1;
nodes = (
"75 408 LINE",
"157 398 LINE",
"171 361 LINE",
"144 305 LINE",
"60 305 LINE"
);
},
{
closed = 1;
nodes = (
"238 321 LINE",
"214 367 LINE",
"239 407 LINE",
"338 398 LINE",
"330 300 LINE"
);
}
);
width = 396;
}
);
unicode = 221E;
},
{
glyphname = integral;
layers = (
{
layerId = "DC66480E-7BB6-4652-B43C-57E9BA303B13";
paths = (
{
closed = 1;
nodes = (
"130 0 LINE",
"205 94 LINE",
"205 660 LINE",
"277 655 LINE",
"277 570 LINE",
"329 563 LINE",
"329 710 LINE",
"214 710 LINE SMOOTH",
"175 710 OFFCURVE",
"146 677 OFFCURVE",
"145 636 CURVE",
"134 100 LINE",
"82 55 LINE",
"64 161 LINE",
"20 161 LINE",
"20 0 LINE"
);
}
);
width = 349;
}
);
unicode = 222B;
},
{
glyphname = increment;
layers = (
{
layerId = "DC66480E-7BB6-4652-B43C-57E9BA303B13";
paths = (
{
closed = 1;
nodes = (
"214 710 LINE",
"144 700 LINE",
"15 10 LINE",
"315 0 LINE"
);
},
{
closed = 1;
nodes = (
"165 664 LINE",
"178 662 LINE",
"238 74 LINE",
"92 64 LINE"
);
}
);
width = 330;
}
);
unicode = 2206;
},
{
glyphname = product;
layers = (
{
layerId = "DC66480E-7BB6-4652-B43C-57E9BA303B13";
paths = (
{
closed = 1;
nodes = (
"106 0 LINE",
"106 647 LINE",
"183 641 LINE",
"203 23 LINE",
"253 23 LINE",
"253 710 LINE",
"49 702 LINE",
"49 0 LINE"
);
}
);
width = 298;
}
);
unicode = 220F;
},
{
glyphname = summation;
layers = (
{
layerId = "DC66480E-7BB6-4652-B43C-57E9BA303B13";
paths = (
{
closed = 1;
nodes = (
"271 10 LINE",
"259 101 LINE",
"104 83 LINE",
"241 388 LINE",
"119 632 LINE",
"282 652 LINE",
"282 710 LINE",
"79 710 LINE",
"24 642 LINE",
"153 365 LINE",
"12 31 LINE",
"23 0 LINE"
);
}
);
width = 316;
}
);
unicode = 2211;
},
{
glyphname = radical;
layers = (
{
layerId = "DC66480E-7BB6-4652-B43C-57E9BA303B13";
paths = (
{
closed = 1;
nodes = (
"199 0 LINE",
"294 647 LINE",
"381 656 LINE",
"377 710 LINE",
"239 710 LINE",
"171 78 LINE",
"167 78 LINE",
"129 325 LINE",
"10 325 LINE",
"14 288 LINE",
"85 269 LINE",
"133 -10 LINE"
);
}
);
width = 391;
}
);
unicode = 221A;
},
{
glyphname = partialdiff;
layers = (
{
layerId = "DC66480E-7BB6-4652-B43C-57E9BA303B13";
paths = (
{
closed = 1;
nodes = (
"299 0 LINE",
"283 447 LINE",
"140 728 LINE",
"91 704 LINE",
"224 422 LINE",
"143 422 LINE",
"49 388 LINE",
"49 0 LINE"
);
},
{
closed = 1;
nodes = (
"113 340 LINE",
"214 361 LINE",
"224 70 LINE",
"113 60 LINE"
);
}
);
width = 339;
}
);
unicode = 2202;
},
{
glyphname = micro;
layers = (
{
layerId = "DC66480E-7BB6-4652-B43C-57E9BA303B13";
paths = (
{
closed = 1;
nodes = (
"122 -222 LINE",
"89 11 LINE",
"280 -9 LINE",
"280 37 LINE",
"250 56 LINE",
"260 703 LINE",
"190 707 LINE",
"180 79 LINE",
"101 93 LINE",
"122 710 LINE",
"38 710 LINE",
"35 11 LINE",
"53 -228 LINE"
);
}
);
width = 304;
}
);
unicode = 00B5;
},
{
glyphname = percent;
layers = (
{
layerId = "DC66480E-7BB6-4652-B43C-57E9BA303B13";
paths = (
{
closed = 1;
nodes = (
"419 679 LINE",
"385 707 LINE",
"24 33 LINE",
"63 -2 LINE"
);
},
{
closed = 1;
nodes = (
"323 37 OFFCURVE",
"320 38 OFFCURVE",
"320 40 CURVE SMOOTH",
"330 266 LINE SMOOTH",
"330 269 OFFCURVE",
"332 270 OFFCURVE",
"336 270 CURVE",
"367 270 LINE SMOOTH",
"372 270 OFFCURVE",
"374 268 OFFCURVE",
"374 264 CURVE SMOOTH",
"364 58 LINE SMOOTH",
"364 56 OFFCURVE",
"362 54 OFFCURVE",
"358 52 CURVE SMOOTH",
"328 37 LINE"
);
},
{
closed = 1;
nodes = (
"416 0 LINE",
"416 289 LINE",
"391 315 LINE",
"277 315 LINE",
"277 0 LINE"
);
},
{
closed = 1;
nodes = (
"141 395 LINE",
"166 421 LINE",
"166 710 LINE",
"27 710 LINE",
"27 395 LINE"
);
},
{
closed = 1;
nodes = (
"82 440 OFFCURVE",
"80 441 OFFCURVE",
"80 444 CURVE SMOOTH",
"70 670 LINE SMOOTH",
"70 672 OFFCURVE",
"73 673 OFFCURVE",
"78 673 CURVE",
"108 658 LINE SMOOTH",
"112 656 OFFCURVE",
"114 654 OFFCURVE",
"114 652 CURVE SMOOTH",
"124 446 LINE SMOOTH",
"124 442 OFFCURVE",
"122 440 OFFCURVE",
"117 440 CURVE",
"86 440 LINE SMOOTH"
);
}
);
width = 449;
}
);
unicode = 0025;
},
{
glyphname = perthousand;
layers = (
{
layerId = "DC66480E-7BB6-4652-B43C-57E9BA303B13";
paths = (
{
closed = 1;
nodes = (
"419 679 LINE",
"385 707 LINE",
"24 33 LINE",
"63 -2 LINE"
);
},
{
closed = 1;
nodes = (
"323 37 OFFCURVE",
"320 38 OFFCURVE",
"320 40 CURVE SMOOTH",
"330 266 LINE SMOOTH",
"330 269 OFFCURVE",
"332 270 OFFCURVE",
"336 270 CURVE",
"367 270 LINE SMOOTH",
"372 270 OFFCURVE",
"374 268 OFFCURVE",
"374 264 CURVE SMOOTH",
"364 58 LINE SMOOTH",
"364 56 OFFCURVE",
"362 54 OFFCURVE",
"358 52 CURVE SMOOTH",
"328 37 LINE"
);
},
{
closed = 1;
nodes = (
"416 0 LINE",
"416 289 LINE",
"391 315 LINE",
"277 315 LINE",
"277 0 LINE"
);
},
{
closed = 1;
nodes = (
"141 395 LINE",
"166 421 LINE",
"166 710 LINE",
"27 710 LINE",
"27 395 LINE"
);
},
{
closed = 1;
nodes = (
"82 440 OFFCURVE",
"80 441 OFFCURVE",
"80 444 CURVE SMOOTH",
"70 670 LINE SMOOTH",
"70 672 OFFCURVE",
"73 673 OFFCURVE",
"78 673 CURVE",
"108 658 LINE SMOOTH",
"112 656 OFFCURVE",
"114 654 OFFCURVE",
"114 652 CURVE SMOOTH",
"124 446 LINE SMOOTH",
"124 442 OFFCURVE",
"122 440 OFFCURVE",
"117 440 CURVE",
"86 440 LINE SMOOTH"
);
},
{
closed = 1;
nodes = (
"584 -1 LINE",
"609 25 LINE",
"609 314 LINE",
"470 314 LINE",
"470 -1 LINE"
);
},
{
closed = 1;
nodes = (
"525 44 OFFCURVE",
"523 45 OFFCURVE",
"523 48 CURVE SMOOTH",
"513 274 LINE SMOOTH",
"513 276 OFFCURVE",
"516 277 OFFCURVE",
"521 277 CURVE",
"551 262 LINE SMOOTH",
"555 260 OFFCURVE",
"557 258 OFFCURVE",
"557 256 CURVE SMOOTH",
"567 50 LINE SMOOTH",
"567 46 OFFCURVE",
"565 44 OFFCURVE",
"560 44 CURVE",
"529 44 LINE SMOOTH"
);
}
);
width = 653;
}
);
unicode = 2030;
},
{
glyphname = upArrow;
layers = (
{
layerId = "DC66480E-7BB6-4652-B43C-57E9BA303B13";
paths = (
{
closed = 1;
nodes = (
"265 118 LINE",
"276 539 LINE",
"283 538 LINE",
"408 413 LINE",
"443 443 LINE",
"263 650 LINE",
"222 642 LINE",
"43 451 LINE",
"75 410 LINE",
"97 413 LINE",
"205 552 LINE",
"213 551 LINE",
"213 118 LINE"
);
}
);
width = 486;
}
);
note = arrowup;
unicode = 2191;
},
{
glyphname = northEastArrow;
layers = (
{
layerId = "DC66480E-7BB6-4652-B43C-57E9BA303B13";
paths = (
{
closed = 1;
nodes = (
"377 462 LINE",
"386 456 LINE",
"376 277 LINE",
"393 264 LINE",
"440 275 LINE",
"435 532 LINE",
"418 560 LINE",
"145 563 LINE",
"142 510 LINE",
"321 501 LINE",
"330 493 LINE",
"66 233 LINE",
"114 191 LINE"
);
}
);
width = 509;
}
);
note = uni2197;
unicode = 2197;
},
{
glyphname = rightArrow;
layers = (
{
layerId = "DC66480E-7BB6-4652-B43C-57E9BA303B13";
paths = (
{
closed = 1;
nodes = (
"472 363 LINE",
"480 395 LINE",
"298 594 LINE",
"258 559 LINE",
"371 421 LINE",
"374 406 LINE",
"28 413 LINE",
"32 349 LINE",
"383 353 LINE",
"385 343 LINE",
"247 206 LINE",
"306 164 LINE"
);
}
);
width = 512;
}
);
note = arrowright;
unicode = 2192;
},
{
glyphname = southEastArrow;
layers = (
{
layerId = "DC66480E-7BB6-4652-B43C-57E9BA303B13";
paths = (
{
closed = 1;
nodes = (
"400 201 LINE",
"428 218 LINE",
"431 491 LINE",
"378 494 LINE",
"368 307 LINE",
"360 295 LINE",
"101 570 LINE",
"59 522 LINE",
"328 258 LINE",
"322 249 LINE",
"131 264 LINE",
"143 191 LINE"
);
}
);
width = 502;
}
);
note = uni2198;
unicode = 2198;
},
{
glyphname = downArrow;
layers = (
{
layerId = "DC66480E-7BB6-4652-B43C-57E9BA303B13";
paths = (
{
closed = 1;
nodes = (
"264 118 LINE",
"443 317 LINE",
"414 354 LINE",
"386 352 LINE",
"281 212 LINE",
"272 213 LINE",
"273 650 LINE",
"221 650 LINE",
"210 225 LINE",
"200 226 LINE",
"78 355 LINE",
"43 325 LINE",
"223 118 LINE"
);
}
);
width = 486;
}
);
note = arrowdown;
unicode = 2193;
},
{
glyphname = southWestArrow;
layers = (
{
layerId = "DC66480E-7BB6-4652-B43C-57E9BA303B13";
paths = (
{
closed = 1;
nodes = (
"381 260 LINE",
"366 275 LINE",
"185 272 LINE",
"442 526 LINE",
"405 562 LINE",
"149 321 LINE",
"143 326 LINE",
"120 511 LINE",
"71 511 LINE",
"81 248 LINE",
"112 217 LINE",
"373 205 LINE"
);
}
);
width = 501;
}
);
note = uni2199;
unicode = 2199;
},
{
glyphname = leftArrow;
layers = (
{
layerId = "DC66480E-7BB6-4652-B43C-57E9BA303B13";
paths = (
{
closed = 1;
nodes = (
"253 210 LINE",
"253 231 LINE",
"123 354 LINE",
"484 355 LINE",
"484 407 LINE",
"133 419 LINE",
"133 427 LINE",
"246 572 LINE",
"211 607 LINE",
"32 414 LINE",
"32 370 LINE",
"208 177 LINE"
);
}
);
width = 512;
}
);
note = arrowleft;
unicode = 2190;
},
{
glyphname = northWestArrow;
layers = (
{
layerId = "DC66480E-7BB6-4652-B43C-57E9BA303B13";
paths = (
{
closed = 1;
nodes = (
"429 234 LINE",
"174 509 LINE",
"346 538 LINE",
"346 587 LINE",
"94 579 LINE",
"63 548 LINE",
"55 280 LINE",
"110 272 LINE",
"125 287 LINE",
"121 471 LINE",
"392 197 LINE"
);
}
);
width = 490;
}
);
note = uni2196;
unicode = 2196;
},
{
glyphname = leftRightArrow;
layers = (
{
layerId = "DC66480E-7BB6-4652-B43C-57E9BA303B13";
paths = (
{
closed = 1;
nodes = (
"612 368 LINE",
"620 400 LINE",
"438 594 LINE",
"398 559 LINE",
"510 422 LINE",
"513 408 LINE",
"135 420 LINE",
"246 567 LINE",
"211 602 LINE",
"32 414 LINE",
"32 370 LINE",
"208 172 LINE",
"253 205 LINE",
"253 226 LINE",
"125 355 LINE",
"522 355 LINE",
"524 344 LINE",
"383 206 LINE",
"446 164 LINE"
);
}
);
width = 652;
}
);
note = arrowboth;
unicode = 2194;
},
{
glyphname = upDownArrow;
layers = (
{
layerId = "DC66480E-7BB6-4652-B43C-57E9BA303B13";
paths = (
{
closed = 1;
nodes = (
"269 88 LINE",
"448 287 LINE",
"419 324 LINE",
"391 322 LINE",
"285 183 LINE",
"279 184 LINE",
"278 581 LINE",
"285 580 LINE",
"419 451 LINE",
"454 481 LINE",
"269 690 LINE",
"228 682 LINE",
"49 491 LINE",
"91 438 LINE",
"214 594 LINE",
"225 592 LINE",
"214 197 LINE",
"78 327 LINE",
"43 297 LINE",
"228 88 LINE"
);
}
);
width = 497;
}
);
note = arrowupdn;
unicode = 2195;
},
